%TF.GenerationSoftware,KiCad,Pcbnew,8.0.4*%
%TF.CreationDate,2024-08-31T12:15:00-06:00*%
%TF.ProjectId,MultiOut,4d756c74-694f-4757-942e-6b696361645f,1*%
%TF.SameCoordinates,Original*%
%TF.FileFunction,Legend,Bot*%
%TF.FilePolarity,Positive*%
%FSLAX46Y46*%
G04 Gerber Fmt 4.6, Leading zero omitted, Abs format (unit mm)*
G04 Created by KiCad (PCBNEW 8.0.4) date 2024-08-31 12:15:00*
%MOMM*%
%LPD*%
G01*
G04 APERTURE LIST*
%ADD10C,0.300000*%
G04 APERTURE END LIST*
D10*
X145892856Y-89068442D02*
X145678571Y-89139870D01*
X145678571Y-89139870D02*
X145321428Y-89139870D01*
X145321428Y-89139870D02*
X145178571Y-89068442D01*
X145178571Y-89068442D02*
X145107142Y-88997013D01*
X145107142Y-88997013D02*
X145035713Y-88854156D01*
X145035713Y-88854156D02*
X145035713Y-88711299D01*
X145035713Y-88711299D02*
X145107142Y-88568442D01*
X145107142Y-88568442D02*
X145178571Y-88497013D01*
X145178571Y-88497013D02*
X145321428Y-88425584D01*
X145321428Y-88425584D02*
X145607142Y-88354156D01*
X145607142Y-88354156D02*
X145749999Y-88282727D01*
X145749999Y-88282727D02*
X145821428Y-88211299D01*
X145821428Y-88211299D02*
X145892856Y-88068442D01*
X145892856Y-88068442D02*
X145892856Y-87925584D01*
X145892856Y-87925584D02*
X145821428Y-87782727D01*
X145821428Y-87782727D02*
X145749999Y-87711299D01*
X145749999Y-87711299D02*
X145607142Y-87639870D01*
X145607142Y-87639870D02*
X145249999Y-87639870D01*
X145249999Y-87639870D02*
X145035713Y-87711299D01*
X144392857Y-89139870D02*
X144392857Y-87639870D01*
X144392857Y-87639870D02*
X143535714Y-89139870D01*
X143535714Y-89139870D02*
X143535714Y-87639870D01*
X142821428Y-88354156D02*
X142321428Y-88354156D01*
X142107142Y-89139870D02*
X142821428Y-89139870D01*
X142821428Y-89139870D02*
X142821428Y-87639870D01*
X142821428Y-87639870D02*
X142107142Y-87639870D01*
X140821428Y-89139870D02*
X140821428Y-87639870D01*
X140821428Y-89068442D02*
X140964285Y-89139870D01*
X140964285Y-89139870D02*
X141249999Y-89139870D01*
X141249999Y-89139870D02*
X141392856Y-89068442D01*
X141392856Y-89068442D02*
X141464285Y-88997013D01*
X141464285Y-88997013D02*
X141535713Y-88854156D01*
X141535713Y-88854156D02*
X141535713Y-88425584D01*
X141535713Y-88425584D02*
X141464285Y-88282727D01*
X141464285Y-88282727D02*
X141392856Y-88211299D01*
X141392856Y-88211299D02*
X141249999Y-88139870D01*
X141249999Y-88139870D02*
X140964285Y-88139870D01*
X140964285Y-88139870D02*
X140821428Y-88211299D01*
X139464285Y-88139870D02*
X139464285Y-89354156D01*
X139464285Y-89354156D02*
X139535713Y-89497013D01*
X139535713Y-89497013D02*
X139607142Y-89568442D01*
X139607142Y-89568442D02*
X139749999Y-89639870D01*
X139749999Y-89639870D02*
X139964285Y-89639870D01*
X139964285Y-89639870D02*
X140107142Y-89568442D01*
X139464285Y-89068442D02*
X139607142Y-89139870D01*
X139607142Y-89139870D02*
X139892856Y-89139870D01*
X139892856Y-89139870D02*
X140035713Y-89068442D01*
X140035713Y-89068442D02*
X140107142Y-88997013D01*
X140107142Y-88997013D02*
X140178570Y-88854156D01*
X140178570Y-88854156D02*
X140178570Y-88425584D01*
X140178570Y-88425584D02*
X140107142Y-88282727D01*
X140107142Y-88282727D02*
X140035713Y-88211299D01*
X140035713Y-88211299D02*
X139892856Y-88139870D01*
X139892856Y-88139870D02*
X139607142Y-88139870D01*
X139607142Y-88139870D02*
X139464285Y-88211299D01*
X138178570Y-89068442D02*
X138321427Y-89139870D01*
X138321427Y-89139870D02*
X138607142Y-89139870D01*
X138607142Y-89139870D02*
X138749999Y-89068442D01*
X138749999Y-89068442D02*
X138821427Y-88925584D01*
X138821427Y-88925584D02*
X138821427Y-88354156D01*
X138821427Y-88354156D02*
X138749999Y-88211299D01*
X138749999Y-88211299D02*
X138607142Y-88139870D01*
X138607142Y-88139870D02*
X138321427Y-88139870D01*
X138321427Y-88139870D02*
X138178570Y-88211299D01*
X138178570Y-88211299D02*
X138107142Y-88354156D01*
X138107142Y-88354156D02*
X138107142Y-88497013D01*
X138107142Y-88497013D02*
X138821427Y-88639870D01*
X146250000Y-91554786D02*
X146250000Y-90054786D01*
X146250000Y-90054786D02*
X145750000Y-91126215D01*
X145750000Y-91126215D02*
X145250000Y-90054786D01*
X145250000Y-90054786D02*
X145250000Y-91554786D01*
X143892857Y-90554786D02*
X143892857Y-91554786D01*
X144535714Y-90554786D02*
X144535714Y-91340500D01*
X144535714Y-91340500D02*
X144464285Y-91483358D01*
X144464285Y-91483358D02*
X144321428Y-91554786D01*
X144321428Y-91554786D02*
X144107142Y-91554786D01*
X144107142Y-91554786D02*
X143964285Y-91483358D01*
X143964285Y-91483358D02*
X143892857Y-91411929D01*
X142964285Y-91554786D02*
X143107142Y-91483358D01*
X143107142Y-91483358D02*
X143178571Y-91340500D01*
X143178571Y-91340500D02*
X143178571Y-90054786D01*
X142607142Y-90554786D02*
X142035714Y-90554786D01*
X142392857Y-90054786D02*
X142392857Y-91340500D01*
X142392857Y-91340500D02*
X142321428Y-91483358D01*
X142321428Y-91483358D02*
X142178571Y-91554786D01*
X142178571Y-91554786D02*
X142035714Y-91554786D01*
X141535714Y-91554786D02*
X141535714Y-90554786D01*
X141535714Y-90054786D02*
X141607142Y-90126215D01*
X141607142Y-90126215D02*
X141535714Y-90197643D01*
X141535714Y-90197643D02*
X141464285Y-90126215D01*
X141464285Y-90126215D02*
X141535714Y-90054786D01*
X141535714Y-90054786D02*
X141535714Y-90197643D01*
X140535713Y-90054786D02*
X140249999Y-90054786D01*
X140249999Y-90054786D02*
X140107142Y-90126215D01*
X140107142Y-90126215D02*
X139964285Y-90269072D01*
X139964285Y-90269072D02*
X139892856Y-90554786D01*
X139892856Y-90554786D02*
X139892856Y-91054786D01*
X139892856Y-91054786D02*
X139964285Y-91340500D01*
X139964285Y-91340500D02*
X140107142Y-91483358D01*
X140107142Y-91483358D02*
X140249999Y-91554786D01*
X140249999Y-91554786D02*
X140535713Y-91554786D01*
X140535713Y-91554786D02*
X140678571Y-91483358D01*
X140678571Y-91483358D02*
X140821428Y-91340500D01*
X140821428Y-91340500D02*
X140892856Y-91054786D01*
X140892856Y-91054786D02*
X140892856Y-90554786D01*
X140892856Y-90554786D02*
X140821428Y-90269072D01*
X140821428Y-90269072D02*
X140678571Y-90126215D01*
X140678571Y-90126215D02*
X140535713Y-90054786D01*
X138607142Y-90554786D02*
X138607142Y-91554786D01*
X139249999Y-90554786D02*
X139249999Y-91340500D01*
X139249999Y-91340500D02*
X139178570Y-91483358D01*
X139178570Y-91483358D02*
X139035713Y-91554786D01*
X139035713Y-91554786D02*
X138821427Y-91554786D01*
X138821427Y-91554786D02*
X138678570Y-91483358D01*
X138678570Y-91483358D02*
X138607142Y-91411929D01*
X138107141Y-90554786D02*
X137535713Y-90554786D01*
X137892856Y-90054786D02*
X137892856Y-91340500D01*
X137892856Y-91340500D02*
X137821427Y-91483358D01*
X137821427Y-91483358D02*
X137678570Y-91554786D01*
X137678570Y-91554786D02*
X137535713Y-91554786D01*
M02*
