%TF.GenerationSoftware,KiCad,Pcbnew,10.0.3*%
%TF.CreationDate,2026-06-06T21:40:16-06:00*%
%TF.ProjectId,Multiout_UFL,4d756c74-696f-4757-945f-55464c2e6b69,1*%
%TF.SameCoordinates,Original*%
%TF.FileFunction,Legend,Bot*%
%TF.FilePolarity,Positive*%
%FSLAX46Y46*%
G04 Gerber Fmt 4.6, Leading zero omitted, Abs format (unit mm)*
G04 Created by KiCad (PCBNEW 10.0.3) date 2026-06-06 21:40:16*
%MOMM*%
%LPD*%
G01*
G04 APERTURE LIST*
%ADD10C,0.300000*%
G04 APERTURE END LIST*
D10*
X144792856Y-88549442D02*
X144578571Y-88620870D01*
X144578571Y-88620870D02*
X144221428Y-88620870D01*
X144221428Y-88620870D02*
X144078571Y-88549442D01*
X144078571Y-88549442D02*
X144007142Y-88478013D01*
X144007142Y-88478013D02*
X143935713Y-88335156D01*
X143935713Y-88335156D02*
X143935713Y-88192299D01*
X143935713Y-88192299D02*
X144007142Y-88049442D01*
X144007142Y-88049442D02*
X144078571Y-87978013D01*
X144078571Y-87978013D02*
X144221428Y-87906584D01*
X144221428Y-87906584D02*
X144507142Y-87835156D01*
X144507142Y-87835156D02*
X144649999Y-87763727D01*
X144649999Y-87763727D02*
X144721428Y-87692299D01*
X144721428Y-87692299D02*
X144792856Y-87549442D01*
X144792856Y-87549442D02*
X144792856Y-87406584D01*
X144792856Y-87406584D02*
X144721428Y-87263727D01*
X144721428Y-87263727D02*
X144649999Y-87192299D01*
X144649999Y-87192299D02*
X144507142Y-87120870D01*
X144507142Y-87120870D02*
X144149999Y-87120870D01*
X144149999Y-87120870D02*
X143935713Y-87192299D01*
X143292857Y-88620870D02*
X143292857Y-87120870D01*
X143292857Y-87120870D02*
X142435714Y-88620870D01*
X142435714Y-88620870D02*
X142435714Y-87120870D01*
X141721428Y-87835156D02*
X141221428Y-87835156D01*
X141007142Y-88620870D02*
X141721428Y-88620870D01*
X141721428Y-88620870D02*
X141721428Y-87120870D01*
X141721428Y-87120870D02*
X141007142Y-87120870D01*
X139721428Y-88620870D02*
X139721428Y-87120870D01*
X139721428Y-88549442D02*
X139864285Y-88620870D01*
X139864285Y-88620870D02*
X140149999Y-88620870D01*
X140149999Y-88620870D02*
X140292856Y-88549442D01*
X140292856Y-88549442D02*
X140364285Y-88478013D01*
X140364285Y-88478013D02*
X140435713Y-88335156D01*
X140435713Y-88335156D02*
X140435713Y-87906584D01*
X140435713Y-87906584D02*
X140364285Y-87763727D01*
X140364285Y-87763727D02*
X140292856Y-87692299D01*
X140292856Y-87692299D02*
X140149999Y-87620870D01*
X140149999Y-87620870D02*
X139864285Y-87620870D01*
X139864285Y-87620870D02*
X139721428Y-87692299D01*
X138364285Y-87620870D02*
X138364285Y-88835156D01*
X138364285Y-88835156D02*
X138435713Y-88978013D01*
X138435713Y-88978013D02*
X138507142Y-89049442D01*
X138507142Y-89049442D02*
X138649999Y-89120870D01*
X138649999Y-89120870D02*
X138864285Y-89120870D01*
X138864285Y-89120870D02*
X139007142Y-89049442D01*
X138364285Y-88549442D02*
X138507142Y-88620870D01*
X138507142Y-88620870D02*
X138792856Y-88620870D01*
X138792856Y-88620870D02*
X138935713Y-88549442D01*
X138935713Y-88549442D02*
X139007142Y-88478013D01*
X139007142Y-88478013D02*
X139078570Y-88335156D01*
X139078570Y-88335156D02*
X139078570Y-87906584D01*
X139078570Y-87906584D02*
X139007142Y-87763727D01*
X139007142Y-87763727D02*
X138935713Y-87692299D01*
X138935713Y-87692299D02*
X138792856Y-87620870D01*
X138792856Y-87620870D02*
X138507142Y-87620870D01*
X138507142Y-87620870D02*
X138364285Y-87692299D01*
X137078570Y-88549442D02*
X137221427Y-88620870D01*
X137221427Y-88620870D02*
X137507142Y-88620870D01*
X137507142Y-88620870D02*
X137649999Y-88549442D01*
X137649999Y-88549442D02*
X137721427Y-88406584D01*
X137721427Y-88406584D02*
X137721427Y-87835156D01*
X137721427Y-87835156D02*
X137649999Y-87692299D01*
X137649999Y-87692299D02*
X137507142Y-87620870D01*
X137507142Y-87620870D02*
X137221427Y-87620870D01*
X137221427Y-87620870D02*
X137078570Y-87692299D01*
X137078570Y-87692299D02*
X137007142Y-87835156D01*
X137007142Y-87835156D02*
X137007142Y-87978013D01*
X137007142Y-87978013D02*
X137721427Y-88120870D01*
X145150000Y-91035786D02*
X145150000Y-89535786D01*
X145150000Y-89535786D02*
X144650000Y-90607215D01*
X144650000Y-90607215D02*
X144150000Y-89535786D01*
X144150000Y-89535786D02*
X144150000Y-91035786D01*
X142792857Y-90035786D02*
X142792857Y-91035786D01*
X143435714Y-90035786D02*
X143435714Y-90821500D01*
X143435714Y-90821500D02*
X143364285Y-90964358D01*
X143364285Y-90964358D02*
X143221428Y-91035786D01*
X143221428Y-91035786D02*
X143007142Y-91035786D01*
X143007142Y-91035786D02*
X142864285Y-90964358D01*
X142864285Y-90964358D02*
X142792857Y-90892929D01*
X141864285Y-91035786D02*
X142007142Y-90964358D01*
X142007142Y-90964358D02*
X142078571Y-90821500D01*
X142078571Y-90821500D02*
X142078571Y-89535786D01*
X141507142Y-90035786D02*
X140935714Y-90035786D01*
X141292857Y-89535786D02*
X141292857Y-90821500D01*
X141292857Y-90821500D02*
X141221428Y-90964358D01*
X141221428Y-90964358D02*
X141078571Y-91035786D01*
X141078571Y-91035786D02*
X140935714Y-91035786D01*
X140435714Y-91035786D02*
X140435714Y-90035786D01*
X140435714Y-89535786D02*
X140507142Y-89607215D01*
X140507142Y-89607215D02*
X140435714Y-89678643D01*
X140435714Y-89678643D02*
X140364285Y-89607215D01*
X140364285Y-89607215D02*
X140435714Y-89535786D01*
X140435714Y-89535786D02*
X140435714Y-89678643D01*
X139435713Y-89535786D02*
X139149999Y-89535786D01*
X139149999Y-89535786D02*
X139007142Y-89607215D01*
X139007142Y-89607215D02*
X138864285Y-89750072D01*
X138864285Y-89750072D02*
X138792856Y-90035786D01*
X138792856Y-90035786D02*
X138792856Y-90535786D01*
X138792856Y-90535786D02*
X138864285Y-90821500D01*
X138864285Y-90821500D02*
X139007142Y-90964358D01*
X139007142Y-90964358D02*
X139149999Y-91035786D01*
X139149999Y-91035786D02*
X139435713Y-91035786D01*
X139435713Y-91035786D02*
X139578571Y-90964358D01*
X139578571Y-90964358D02*
X139721428Y-90821500D01*
X139721428Y-90821500D02*
X139792856Y-90535786D01*
X139792856Y-90535786D02*
X139792856Y-90035786D01*
X139792856Y-90035786D02*
X139721428Y-89750072D01*
X139721428Y-89750072D02*
X139578571Y-89607215D01*
X139578571Y-89607215D02*
X139435713Y-89535786D01*
X137507142Y-90035786D02*
X137507142Y-91035786D01*
X138149999Y-90035786D02*
X138149999Y-90821500D01*
X138149999Y-90821500D02*
X138078570Y-90964358D01*
X138078570Y-90964358D02*
X137935713Y-91035786D01*
X137935713Y-91035786D02*
X137721427Y-91035786D01*
X137721427Y-91035786D02*
X137578570Y-90964358D01*
X137578570Y-90964358D02*
X137507142Y-90892929D01*
X137007141Y-90035786D02*
X136435713Y-90035786D01*
X136792856Y-89535786D02*
X136792856Y-90821500D01*
X136792856Y-90821500D02*
X136721427Y-90964358D01*
X136721427Y-90964358D02*
X136578570Y-91035786D01*
X136578570Y-91035786D02*
X136435713Y-91035786D01*
M02*
