%TF.GenerationSoftware,KiCad,Pcbnew,10.0.3*%
%TF.CreationDate,2026-06-06T21:40:15-06:00*%
%TF.ProjectId,Multiout_UFL,4d756c74-696f-4757-945f-55464c2e6b69,1*%
%TF.SameCoordinates,Original*%
%TF.FileFunction,Copper,L2,Bot*%
%TF.FilePolarity,Positive*%
%FSLAX46Y46*%
G04 Gerber Fmt 4.6, Leading zero omitted, Abs format (unit mm)*
G04 Created by KiCad (PCBNEW 10.0.3) date 2026-06-06 21:40:15*
%MOMM*%
%LPD*%
G01*
G04 APERTURE LIST*
G04 Aperture macros list*
%AMRoundRect*
0 Rectangle with rounded corners*
0 $1 Rounding radius*
0 $2 $3 $4 $5 $6 $7 $8 $9 X,Y pos of 4 corners*
0 Add a 4 corners polygon primitive as box body*
4,1,4,$2,$3,$4,$5,$6,$7,$8,$9,$2,$3,0*
0 Add four circle primitives for the rounded corners*
1,1,$1+$1,$2,$3*
1,1,$1+$1,$4,$5*
1,1,$1+$1,$6,$7*
1,1,$1+$1,$8,$9*
0 Add four rect primitives between the rounded corners*
20,1,$1+$1,$2,$3,$4,$5,0*
20,1,$1+$1,$4,$5,$6,$7,0*
20,1,$1+$1,$6,$7,$8,$9,0*
20,1,$1+$1,$8,$9,$2,$3,0*%
G04 Aperture macros list end*
%TA.AperFunction,ComponentPad*%
%ADD10RoundRect,0.600000X-0.550000X-0.550000X0.550000X-0.550000X0.550000X0.550000X-0.550000X0.550000X0*%
%TD*%
%TA.AperFunction,ComponentPad*%
%ADD11C,2.300000*%
%TD*%
%TA.AperFunction,ComponentPad*%
%ADD12C,0.100000*%
%TD*%
%TA.AperFunction,ViaPad*%
%ADD13C,0.600000*%
%TD*%
G04 APERTURE END LIST*
D10*
%TO.P,J1,1,Pin_1_1*%
%TO.N,/R*%
X146965000Y-84125000D03*
D11*
%TO.P,J1,2,Pin_2_2*%
%TO.N,/G*%
X146965000Y-81585000D03*
D12*
%TO.P,J1,3,Pin_3_3*%
%TO.N,unconnected-(J1-Pin_3-Pad3)*%
X144425000Y-84125000D03*
D11*
%TO.P,J1,4,Pin_4_4*%
%TO.N,/B*%
X144425000Y-81585000D03*
%TO.P,J1,5,Pin_5_5*%
%TO.N,GND*%
X141885000Y-84125000D03*
%TO.P,J1,6,Pin_6_6*%
X141885000Y-81585000D03*
%TO.P,J1,7,Pin_7_7*%
%TO.N,unconnected-(J1-Pin_7-Pad7)*%
X139345000Y-84125000D03*
%TO.P,J1,8,Pin_8_8*%
%TO.N,unconnected-(J1-Pin_8-Pad8)*%
X139345000Y-81585000D03*
D12*
%TO.P,J1,9,Pin_9_9*%
%TO.N,unconnected-(J1-Pin_9-Pad9)*%
X136805000Y-84125000D03*
%TO.P,J1,10,Pin_10_10*%
%TO.N,unconnected-(J1-Pin_10-Pad10)*%
X136805000Y-81585000D03*
%TO.P,J1,11,Pin_11_11*%
%TO.N,unconnected-(J1-Pin_11-Pad11)*%
X134265000Y-84125000D03*
%TO.P,J1,12,Pin_12_12*%
%TO.N,unconnected-(J1-Pin_12-Pad12)*%
X134265000Y-81585000D03*
%TD*%
D13*
%TO.N,GND*%
X146303296Y-86361346D03*
X131695883Y-85278081D03*
X148900000Y-79600000D03*
X133000000Y-79700000D03*
X144600000Y-92750000D03*
X144000000Y-88500000D03*
X151050000Y-92700000D03*
X147000000Y-88400000D03*
X136900000Y-86300000D03*
X137650000Y-92750000D03*
X134100000Y-86350000D03*
X131150000Y-92850000D03*
X148184102Y-86837397D03*
X150300000Y-88750000D03*
X131000000Y-88500000D03*
X150300000Y-85250000D03*
X144500000Y-90500000D03*
X143900000Y-86350000D03*
X137500000Y-88500000D03*
%TD*%
%TA.AperFunction,Conductor*%
%TO.N,GND*%
G36*
X142385000Y-83346600D02*
G01*
X142323152Y-83305275D01*
X142154813Y-83235547D01*
X141976105Y-83200000D01*
X141793895Y-83200000D01*
X141615187Y-83235547D01*
X141446848Y-83305275D01*
X141385000Y-83346600D01*
X141385000Y-82363399D01*
X141446848Y-82404725D01*
X141615187Y-82474453D01*
X141793895Y-82510000D01*
X141976105Y-82510000D01*
X142154813Y-82474453D01*
X142323152Y-82404725D01*
X142385000Y-82363399D01*
X142385000Y-83346600D01*
G37*
%TD.AperFunction*%
%TA.AperFunction,Conductor*%
G36*
X149358059Y-79001561D02*
G01*
X149424271Y-79010278D01*
X149455539Y-79018656D01*
X149509668Y-79041077D01*
X149537700Y-79057261D01*
X149584184Y-79092929D01*
X149607070Y-79115815D01*
X149629057Y-79144469D01*
X149642738Y-79162299D01*
X149658922Y-79190331D01*
X149681343Y-79244460D01*
X149689721Y-79275726D01*
X149698439Y-79341938D01*
X149699500Y-79358125D01*
X149699500Y-83565891D01*
X149733608Y-83693187D01*
X149741766Y-83707316D01*
X149799500Y-83807314D01*
X149892686Y-83900500D01*
X150006814Y-83966392D01*
X150134108Y-84000500D01*
X150195125Y-84000500D01*
X150204853Y-84000882D01*
X150257188Y-84005000D01*
X150385736Y-84015117D01*
X150404952Y-84018160D01*
X150407253Y-84018713D01*
X150576629Y-84059377D01*
X150595134Y-84065390D01*
X150758246Y-84132953D01*
X150775583Y-84141787D01*
X150926115Y-84234033D01*
X150941857Y-84245470D01*
X151076109Y-84360132D01*
X151089867Y-84373890D01*
X151204529Y-84508142D01*
X151215966Y-84523884D01*
X151308212Y-84674416D01*
X151317046Y-84691753D01*
X151384609Y-84854865D01*
X151390622Y-84873370D01*
X151431838Y-85045045D01*
X151434882Y-85064264D01*
X151449118Y-85245146D01*
X151449500Y-85254875D01*
X151449500Y-92245124D01*
X151449118Y-92254853D01*
X151434882Y-92435735D01*
X151431838Y-92454954D01*
X151390622Y-92626629D01*
X151384609Y-92645134D01*
X151317046Y-92808246D01*
X151308212Y-92825583D01*
X151215966Y-92976115D01*
X151204529Y-92991857D01*
X151089867Y-93126109D01*
X151076109Y-93139867D01*
X150941857Y-93254529D01*
X150926115Y-93265966D01*
X150775583Y-93358212D01*
X150758246Y-93367046D01*
X150595134Y-93434609D01*
X150576629Y-93440622D01*
X150404954Y-93481838D01*
X150385735Y-93484882D01*
X150206636Y-93498977D01*
X150205998Y-93499028D01*
X150204854Y-93499118D01*
X150195125Y-93499500D01*
X131605412Y-93499500D01*
X131594606Y-93499028D01*
X131573433Y-93497175D01*
X131419883Y-93483741D01*
X131398598Y-93479988D01*
X131234426Y-93435999D01*
X131214114Y-93428606D01*
X131060081Y-93356779D01*
X131041363Y-93345972D01*
X130902141Y-93248488D01*
X130885583Y-93234594D01*
X130765405Y-93114416D01*
X130751511Y-93097858D01*
X130736648Y-93076632D01*
X130654026Y-92958635D01*
X130643220Y-92939918D01*
X130582949Y-92810666D01*
X130571390Y-92785878D01*
X130564000Y-92765573D01*
X130520011Y-92601401D01*
X130516258Y-92580115D01*
X130500972Y-92405394D01*
X130500500Y-92394587D01*
X130500500Y-92350000D01*
X133275000Y-92350000D01*
X135175000Y-92350000D01*
X135175000Y-92325000D01*
X140050000Y-92325000D01*
X141950000Y-92325000D01*
X147050000Y-92325000D01*
X148950000Y-92325000D01*
X148950000Y-90235000D01*
X147050000Y-90235000D01*
X147050000Y-92325000D01*
X141950000Y-92325000D01*
X141950000Y-90235000D01*
X140050000Y-90235000D01*
X140050000Y-92325000D01*
X135175000Y-92325000D01*
X135175000Y-90260000D01*
X133275000Y-90260000D01*
X133275000Y-92350000D01*
X130500500Y-92350000D01*
X130500500Y-85154875D01*
X130500882Y-85145147D01*
X130510603Y-85021621D01*
X130515117Y-84964261D01*
X130518161Y-84945045D01*
X130523582Y-84922468D01*
X130559378Y-84773365D01*
X130565390Y-84754865D01*
X130570059Y-84743595D01*
X130632954Y-84591749D01*
X130641787Y-84574416D01*
X130723396Y-84441243D01*
X130734034Y-84423881D01*
X130745470Y-84408142D01*
X130752198Y-84400265D01*
X130860136Y-84273885D01*
X130873885Y-84260136D01*
X131008144Y-84145468D01*
X131023884Y-84134033D01*
X131174419Y-84041785D01*
X131191749Y-84032954D01*
X131354869Y-83965388D01*
X131373365Y-83959378D01*
X131545049Y-83918160D01*
X131564261Y-83915117D01*
X131705483Y-83904003D01*
X131745147Y-83900882D01*
X131754875Y-83900500D01*
X131815890Y-83900500D01*
X131815892Y-83900500D01*
X131943186Y-83866392D01*
X132057314Y-83800500D01*
X132150500Y-83707314D01*
X132216392Y-83593186D01*
X132250500Y-83465892D01*
X132250500Y-83334108D01*
X132250500Y-81492486D01*
X133089500Y-81492486D01*
X133089500Y-81677514D01*
X133101624Y-81754062D01*
X133118445Y-81860265D01*
X133175619Y-82036232D01*
X133175620Y-82036235D01*
X133259621Y-82201094D01*
X133259622Y-82201096D01*
X133368379Y-82350787D01*
X133499213Y-82481621D01*
X133648904Y-82590378D01*
X133725263Y-82629285D01*
X133813764Y-82674379D01*
X133813767Y-82674380D01*
X133845271Y-82684616D01*
X133989736Y-82731555D01*
X133994798Y-82732356D01*
X133995872Y-82732527D01*
X134059007Y-82762456D01*
X134095938Y-82821768D01*
X134094940Y-82891630D01*
X134056330Y-82949863D01*
X133995872Y-82977473D01*
X133989734Y-82978445D01*
X133813767Y-83035619D01*
X133813764Y-83035620D01*
X133648903Y-83119622D01*
X133563499Y-83181672D01*
X133499213Y-83228379D01*
X133499211Y-83228381D01*
X133499210Y-83228381D01*
X133368381Y-83359210D01*
X133368381Y-83359211D01*
X133368379Y-83359213D01*
X133334019Y-83406505D01*
X133259622Y-83508903D01*
X133175620Y-83673764D01*
X133175619Y-83673767D01*
X133118445Y-83849734D01*
X133099968Y-83966392D01*
X133089500Y-84032486D01*
X133089500Y-84217514D01*
X133092924Y-84239133D01*
X133118445Y-84400265D01*
X133175619Y-84576232D01*
X133175620Y-84576235D01*
X133256332Y-84734639D01*
X133259622Y-84741096D01*
X133368379Y-84890787D01*
X133499213Y-85021621D01*
X133648904Y-85130378D01*
X133729763Y-85171577D01*
X133813764Y-85214379D01*
X133813767Y-85214380D01*
X133901750Y-85242967D01*
X133989736Y-85271555D01*
X134172486Y-85300500D01*
X134172487Y-85300500D01*
X134357513Y-85300500D01*
X134357514Y-85300500D01*
X134540264Y-85271555D01*
X134716235Y-85214379D01*
X134881096Y-85130378D01*
X135030787Y-85021621D01*
X135161621Y-84890787D01*
X135270378Y-84741096D01*
X135354379Y-84576235D01*
X135411555Y-84400264D01*
X135412527Y-84394126D01*
X135442455Y-84330994D01*
X135501766Y-84294062D01*
X135571629Y-84295058D01*
X135629862Y-84333667D01*
X135657472Y-84394126D01*
X135657582Y-84394813D01*
X135658446Y-84400269D01*
X135715619Y-84576232D01*
X135715620Y-84576235D01*
X135796332Y-84734639D01*
X135799622Y-84741096D01*
X135908379Y-84890787D01*
X136039213Y-85021621D01*
X136188904Y-85130378D01*
X136269763Y-85171577D01*
X136353764Y-85214379D01*
X136353767Y-85214380D01*
X136441750Y-85242967D01*
X136529736Y-85271555D01*
X136712486Y-85300500D01*
X136712487Y-85300500D01*
X136897513Y-85300500D01*
X136897514Y-85300500D01*
X137080264Y-85271555D01*
X137256235Y-85214379D01*
X137421096Y-85130378D01*
X137570787Y-85021621D01*
X137701621Y-84890787D01*
X137810378Y-84741096D01*
X137866719Y-84630519D01*
X137914693Y-84579723D01*
X137982514Y-84562928D01*
X138048649Y-84585465D01*
X138091767Y-84639365D01*
X138093444Y-84643415D01*
X138189951Y-84832820D01*
X138314890Y-85004786D01*
X138465213Y-85155109D01*
X138637179Y-85280048D01*
X138637181Y-85280049D01*
X138637184Y-85280051D01*
X138826588Y-85376557D01*
X139028757Y-85442246D01*
X139238713Y-85475500D01*
X139238714Y-85475500D01*
X139451286Y-85475500D01*
X139451287Y-85475500D01*
X139661243Y-85442246D01*
X139863412Y-85376557D01*
X140052816Y-85280051D01*
X140224792Y-85155104D01*
X140335919Y-85043976D01*
X140397238Y-85010494D01*
X140466930Y-85015478D01*
X140522864Y-85057349D01*
X140523915Y-85058775D01*
X140626445Y-85199896D01*
X140626449Y-85199901D01*
X140810098Y-85383550D01*
X140810103Y-85383554D01*
X141020208Y-85536203D01*
X141251619Y-85654115D01*
X141251625Y-85654117D01*
X141384999Y-85697452D01*
X141385000Y-85697451D01*
X141385000Y-84903399D01*
X141446848Y-84944725D01*
X141615187Y-85014453D01*
X141793895Y-85050000D01*
X141976105Y-85050000D01*
X142154813Y-85014453D01*
X142323152Y-84944725D01*
X142385000Y-84903399D01*
X142385000Y-85697452D01*
X142518374Y-85654117D01*
X142518380Y-85654115D01*
X142749791Y-85536203D01*
X142959896Y-85383554D01*
X142959901Y-85383550D01*
X143143550Y-85199901D01*
X143143554Y-85199896D01*
X143296205Y-84989789D01*
X143330507Y-84922468D01*
X143378481Y-84871672D01*
X143446302Y-84854876D01*
X143512437Y-84877413D01*
X143528673Y-84891081D01*
X143659213Y-85021621D01*
X143808904Y-85130378D01*
X143889763Y-85171577D01*
X143973764Y-85214379D01*
X143973767Y-85214380D01*
X144061750Y-85242967D01*
X144149736Y-85271555D01*
X144332486Y-85300500D01*
X144332487Y-85300500D01*
X144517513Y-85300500D01*
X144517514Y-85300500D01*
X144700264Y-85271555D01*
X144876235Y-85214379D01*
X145041096Y-85130378D01*
X145190787Y-85021621D01*
X145321621Y-84890787D01*
X145404071Y-84777303D01*
X145459401Y-84734639D01*
X145529015Y-84728660D01*
X145590809Y-84761266D01*
X145625167Y-84822105D01*
X145627609Y-84836306D01*
X145629630Y-84854250D01*
X145629631Y-84854254D01*
X145689211Y-85024523D01*
X145726651Y-85084108D01*
X145785184Y-85177262D01*
X145912738Y-85304816D01*
X146003080Y-85361582D01*
X146038048Y-85383554D01*
X146065478Y-85400789D01*
X146235745Y-85460368D01*
X146235750Y-85460369D01*
X146326246Y-85470565D01*
X146370040Y-85475499D01*
X146370043Y-85475500D01*
X146370046Y-85475500D01*
X147559957Y-85475500D01*
X147559958Y-85475499D01*
X147627104Y-85467934D01*
X147694249Y-85460369D01*
X147694252Y-85460368D01*
X147694255Y-85460368D01*
X147864522Y-85400789D01*
X148017262Y-85304816D01*
X148144816Y-85177262D01*
X148240789Y-85024522D01*
X148300368Y-84854255D01*
X148301581Y-84843495D01*
X148315499Y-84719960D01*
X148315500Y-84719956D01*
X148315500Y-83530043D01*
X148315499Y-83530039D01*
X148300369Y-83395750D01*
X148300368Y-83395745D01*
X148268711Y-83305275D01*
X148240789Y-83225478D01*
X148144816Y-83072738D01*
X148017262Y-82945184D01*
X147864522Y-82849211D01*
X147864519Y-82849209D01*
X147857195Y-82846646D01*
X147800421Y-82805922D01*
X147774676Y-82740969D01*
X147788134Y-82672407D01*
X147825269Y-82629287D01*
X147844792Y-82615104D01*
X147995104Y-82464792D01*
X147995106Y-82464788D01*
X147995109Y-82464786D01*
X148120048Y-82292820D01*
X148120047Y-82292820D01*
X148120051Y-82292816D01*
X148216557Y-82103412D01*
X148282246Y-81901243D01*
X148315500Y-81691287D01*
X148315500Y-81478713D01*
X148282246Y-81268757D01*
X148216557Y-81066588D01*
X148120051Y-80877184D01*
X148120049Y-80877181D01*
X148120048Y-80877179D01*
X147995109Y-80705213D01*
X147844786Y-80554890D01*
X147672820Y-80429951D01*
X147483414Y-80333444D01*
X147483413Y-80333443D01*
X147483412Y-80333443D01*
X147281243Y-80267754D01*
X147281241Y-80267753D01*
X147281240Y-80267753D01*
X147119957Y-80242208D01*
X147071287Y-80234500D01*
X146858713Y-80234500D01*
X146810042Y-80242208D01*
X146648760Y-80267753D01*
X146446585Y-80333444D01*
X146257179Y-80429951D01*
X146085213Y-80554890D01*
X145934890Y-80705213D01*
X145809949Y-80877182D01*
X145805484Y-80885946D01*
X145757509Y-80936742D01*
X145689688Y-80953536D01*
X145623553Y-80930998D01*
X145584516Y-80885946D01*
X145580050Y-80877182D01*
X145455109Y-80705213D01*
X145304786Y-80554890D01*
X145132820Y-80429951D01*
X144943414Y-80333444D01*
X144943413Y-80333443D01*
X144943412Y-80333443D01*
X144741243Y-80267754D01*
X144741241Y-80267753D01*
X144741240Y-80267753D01*
X144579957Y-80242208D01*
X144531287Y-80234500D01*
X144318713Y-80234500D01*
X144270042Y-80242208D01*
X144108760Y-80267753D01*
X143906585Y-80333444D01*
X143717179Y-80429951D01*
X143545215Y-80554889D01*
X143434083Y-80666021D01*
X143372760Y-80699505D01*
X143303068Y-80694521D01*
X143247135Y-80652649D01*
X143246084Y-80651224D01*
X143143554Y-80510103D01*
X143143550Y-80510098D01*
X142959901Y-80326449D01*
X142959896Y-80326445D01*
X142749791Y-80173796D01*
X142518382Y-80055886D01*
X142385000Y-80012547D01*
X142385000Y-80806600D01*
X142323152Y-80765275D01*
X142154813Y-80695547D01*
X141976105Y-80660000D01*
X141793895Y-80660000D01*
X141615187Y-80695547D01*
X141446848Y-80765275D01*
X141385000Y-80806600D01*
X141385000Y-80012547D01*
X141384999Y-80012547D01*
X141251617Y-80055886D01*
X141020208Y-80173796D01*
X140810103Y-80326445D01*
X140810098Y-80326449D01*
X140626449Y-80510098D01*
X140626445Y-80510103D01*
X140523915Y-80651224D01*
X140468585Y-80693890D01*
X140398972Y-80699869D01*
X140337177Y-80667263D01*
X140335916Y-80666020D01*
X140224786Y-80554890D01*
X140052820Y-80429951D01*
X139863414Y-80333444D01*
X139863413Y-80333443D01*
X139863412Y-80333443D01*
X139661243Y-80267754D01*
X139661241Y-80267753D01*
X139661240Y-80267753D01*
X139499957Y-80242208D01*
X139451287Y-80234500D01*
X139238713Y-80234500D01*
X139190042Y-80242208D01*
X139028760Y-80267753D01*
X138826585Y-80333444D01*
X138637179Y-80429951D01*
X138465213Y-80554890D01*
X138314890Y-80705213D01*
X138189951Y-80877179D01*
X138093441Y-81066590D01*
X138091765Y-81070638D01*
X138047923Y-81125042D01*
X137981629Y-81147106D01*
X137913930Y-81129826D01*
X137866719Y-81079480D01*
X137862214Y-81070638D01*
X137810378Y-80968904D01*
X137701621Y-80819213D01*
X137570787Y-80688379D01*
X137421096Y-80579622D01*
X137372555Y-80554889D01*
X137256235Y-80495620D01*
X137256232Y-80495619D01*
X137080265Y-80438445D01*
X136988889Y-80423972D01*
X136897514Y-80409500D01*
X136712486Y-80409500D01*
X136651569Y-80419148D01*
X136529734Y-80438445D01*
X136353767Y-80495619D01*
X136353764Y-80495620D01*
X136188903Y-80579622D01*
X136103499Y-80641672D01*
X136039213Y-80688379D01*
X136039211Y-80688381D01*
X136039210Y-80688381D01*
X135908381Y-80819210D01*
X135908381Y-80819211D01*
X135908379Y-80819213D01*
X135874019Y-80866505D01*
X135799622Y-80968903D01*
X135715620Y-81133764D01*
X135715619Y-81133767D01*
X135658445Y-81309734D01*
X135657473Y-81315872D01*
X135627544Y-81379007D01*
X135568232Y-81415938D01*
X135498370Y-81414940D01*
X135440137Y-81376330D01*
X135412527Y-81315872D01*
X135412356Y-81314798D01*
X135411555Y-81309736D01*
X135354379Y-81133765D01*
X135354379Y-81133764D01*
X135270377Y-80968903D01*
X135259212Y-80953536D01*
X135161621Y-80819213D01*
X135030787Y-80688379D01*
X134881096Y-80579622D01*
X134832555Y-80554889D01*
X134716235Y-80495620D01*
X134716232Y-80495619D01*
X134540265Y-80438445D01*
X134448889Y-80423972D01*
X134357514Y-80409500D01*
X134172486Y-80409500D01*
X134111569Y-80419148D01*
X133989734Y-80438445D01*
X133813767Y-80495619D01*
X133813764Y-80495620D01*
X133648903Y-80579622D01*
X133563499Y-80641672D01*
X133499213Y-80688379D01*
X133499211Y-80688381D01*
X133499210Y-80688381D01*
X133368381Y-80819210D01*
X133368381Y-80819211D01*
X133368379Y-80819213D01*
X133334019Y-80866505D01*
X133259622Y-80968903D01*
X133175620Y-81133764D01*
X133175619Y-81133767D01*
X133118445Y-81309734D01*
X133117473Y-81315872D01*
X133089500Y-81492486D01*
X132250500Y-81492486D01*
X132250500Y-79506941D01*
X132251280Y-79493059D01*
X132251291Y-79492956D01*
X132261457Y-79402729D01*
X132267633Y-79375668D01*
X132295351Y-79296457D01*
X132307391Y-79271453D01*
X132352044Y-79200389D01*
X132369349Y-79178690D01*
X132428688Y-79119351D01*
X132450387Y-79102046D01*
X132521451Y-79057393D01*
X132546455Y-79045353D01*
X132625666Y-79017635D01*
X132652727Y-79011459D01*
X132728751Y-79002893D01*
X132743076Y-79001280D01*
X132756958Y-79000500D01*
X132815890Y-79000500D01*
X149284108Y-79000500D01*
X149341874Y-79000500D01*
X149358059Y-79001561D01*
G37*
%TD.AperFunction*%
%TD*%
M02*
