%TF.GenerationSoftware,KiCad,Pcbnew,10.0.3*%
%TF.CreationDate,2026-06-06T21:40:15-06:00*%
%TF.ProjectId,Multiout_UFL,4d756c74-696f-4757-945f-55464c2e6b69,1*%
%TF.SameCoordinates,Original*%
%TF.FileFunction,Copper,L1,Top*%
%TF.FilePolarity,Positive*%
%FSLAX46Y46*%
G04 Gerber Fmt 4.6, Leading zero omitted, Abs format (unit mm)*
G04 Created by KiCad (PCBNEW 10.0.3) date 2026-06-06 21:40:15*
%MOMM*%
%LPD*%
G01*
G04 APERTURE LIST*
G04 Aperture macros list*
%AMRoundRect*
0 Rectangle with rounded corners*
0 $1 Rounding radius*
0 $2 $3 $4 $5 $6 $7 $8 $9 X,Y pos of 4 corners*
0 Add a 4 corners polygon primitive as box body*
4,1,4,$2,$3,$4,$5,$6,$7,$8,$9,$2,$3,0*
0 Add four circle primitives for the rounded corners*
1,1,$1+$1,$2,$3*
1,1,$1+$1,$4,$5*
1,1,$1+$1,$6,$7*
1,1,$1+$1,$8,$9*
0 Add four rect primitives between the rounded corners*
20,1,$1+$1,$2,$3,$4,$5,0*
20,1,$1+$1,$4,$5,$6,$7,0*
20,1,$1+$1,$6,$7,$8,$9,0*
20,1,$1+$1,$8,$9,$2,$3,0*%
G04 Aperture macros list end*
%TA.AperFunction,SMDPad,CuDef*%
%ADD10RoundRect,0.250000X-0.250000X0.275000X-0.250000X-0.275000X0.250000X-0.275000X0.250000X0.275000X0*%
%TD*%
%TA.AperFunction,SMDPad,CuDef*%
%ADD11RoundRect,0.250000X-0.275000X0.850000X-0.275000X-0.850000X0.275000X-0.850000X0.275000X0.850000X0*%
%TD*%
%TA.AperFunction,ComponentPad*%
%ADD12RoundRect,0.600000X-0.550000X-0.550000X0.550000X-0.550000X0.550000X0.550000X-0.550000X0.550000X0*%
%TD*%
%TA.AperFunction,ComponentPad*%
%ADD13C,2.300000*%
%TD*%
%TA.AperFunction,ComponentPad*%
%ADD14C,0.100000*%
%TD*%
%TA.AperFunction,ViaPad*%
%ADD15C,0.600000*%
%TD*%
%TA.AperFunction,Conductor*%
%ADD16C,0.400000*%
%TD*%
%TA.AperFunction,Conductor*%
%ADD17C,0.300000*%
%TD*%
G04 APERTURE END LIST*
D10*
%TO.P,J4,1,In_1*%
%TO.N,/B*%
X148000000Y-89700000D03*
D11*
%TO.P,J4,2,Ext_2*%
%TO.N,GND*%
X149475000Y-91225000D03*
X146525000Y-91225000D03*
%TD*%
D12*
%TO.P,J1,1,Pin_1_1*%
%TO.N,/R*%
X146965000Y-84125000D03*
D13*
%TO.P,J1,2,Pin_2_2*%
%TO.N,/G*%
X146965000Y-81585000D03*
D14*
%TO.P,J1,3,Pin_3_3*%
%TO.N,unconnected-(J1-Pin_3-Pad3)*%
X144425000Y-84125000D03*
D13*
%TO.P,J1,4,Pin_4_4*%
%TO.N,/B*%
X144425000Y-81585000D03*
%TO.P,J1,5,Pin_5_5*%
%TO.N,GND*%
X141885000Y-84125000D03*
%TO.P,J1,6,Pin_6_6*%
X141885000Y-81585000D03*
%TO.P,J1,7,Pin_7_7*%
%TO.N,unconnected-(J1-Pin_7-Pad7)*%
X139345000Y-84125000D03*
%TO.P,J1,8,Pin_8_8*%
%TO.N,unconnected-(J1-Pin_8-Pad8)*%
X139345000Y-81585000D03*
D14*
%TO.P,J1,9,Pin_9_9*%
%TO.N,unconnected-(J1-Pin_9-Pad9)*%
X136805000Y-84125000D03*
%TO.P,J1,10,Pin_10_10*%
%TO.N,unconnected-(J1-Pin_10-Pad10)*%
X136805000Y-81585000D03*
%TO.P,J1,11,Pin_11_11*%
%TO.N,unconnected-(J1-Pin_11-Pad11)*%
X134265000Y-84125000D03*
%TO.P,J1,12,Pin_12_12*%
%TO.N,unconnected-(J1-Pin_12-Pad12)*%
X134265000Y-81585000D03*
%TD*%
D10*
%TO.P,J2,1,In_1*%
%TO.N,/R*%
X134225000Y-89725000D03*
D11*
%TO.P,J2,2,Ext_2*%
%TO.N,GND*%
X135700000Y-91250000D03*
X132750000Y-91250000D03*
%TD*%
D10*
%TO.P,J3,1,In_1*%
%TO.N,/G*%
X141000000Y-89700000D03*
D11*
%TO.P,J3,2,Ext_2*%
%TO.N,GND*%
X142475000Y-91225000D03*
X139525000Y-91225000D03*
%TD*%
D15*
%TO.N,GND*%
X146303296Y-86361346D03*
X131695883Y-85278081D03*
X148900000Y-79600000D03*
X133000000Y-79700000D03*
X144600000Y-92750000D03*
X144000000Y-88500000D03*
X151050000Y-92700000D03*
X147000000Y-88400000D03*
X136900000Y-86300000D03*
X137650000Y-92750000D03*
X134100000Y-86350000D03*
X131150000Y-92850000D03*
X148184102Y-86837397D03*
X150300000Y-88750000D03*
X131000000Y-88500000D03*
X150300000Y-85250000D03*
X144500000Y-90500000D03*
X143900000Y-86350000D03*
X137500000Y-88500000D03*
%TD*%
%TO.N,GND*%
D16*
X142200000Y-92800000D02*
X142475000Y-92525000D01*
X135700000Y-91250000D02*
X135950000Y-91250000D01*
X135443572Y-92800000D02*
X135700000Y-92543572D01*
X135950000Y-91250000D02*
X135975000Y-91225000D01*
X142475000Y-91225000D02*
X146525000Y-91225000D01*
X139800000Y-92800000D02*
X142200000Y-92800000D01*
X139525000Y-92525000D02*
X139800000Y-92800000D01*
X149475000Y-92379563D02*
X149475000Y-91225000D01*
X146525000Y-91225000D02*
X146525000Y-92397647D01*
X132750000Y-92442324D02*
X133107676Y-92800000D01*
X139525000Y-91225000D02*
X139525000Y-92525000D01*
X146970714Y-92843361D02*
X149011202Y-92843361D01*
X146525000Y-92397647D02*
X146970714Y-92843361D01*
X135975000Y-91225000D02*
X139525000Y-91225000D01*
X142475000Y-92525000D02*
X142475000Y-91225000D01*
X149011202Y-92843361D02*
X149475000Y-92379563D01*
X133107676Y-92800000D02*
X135443572Y-92800000D01*
X132750000Y-91250000D02*
X132750000Y-92442324D01*
X135700000Y-92543572D02*
X135700000Y-91250000D01*
%TO.N,/B*%
D17*
X145925000Y-80085000D02*
X147785000Y-80085000D01*
X147785000Y-80085000D02*
X148965000Y-81265000D01*
X144425000Y-81585000D02*
X145925000Y-80085000D01*
X148965000Y-88735000D02*
X148000000Y-89700000D01*
X148965000Y-81265000D02*
X148965000Y-88735000D01*
%TO.N,/R*%
X134225000Y-89725000D02*
X136450000Y-87500000D01*
X136450000Y-87500000D02*
X144000000Y-87500000D01*
X134200000Y-89700000D02*
X134225000Y-89725000D01*
X144000000Y-87500000D02*
X146965000Y-84535000D01*
X146965000Y-84535000D02*
X146965000Y-84125000D01*
%TO.N,/G*%
X148465000Y-83085000D02*
X146965000Y-81585000D01*
X141000000Y-89700000D02*
X141200000Y-89500000D01*
X144500000Y-89500000D02*
X148465000Y-85535000D01*
X141200000Y-89500000D02*
X144500000Y-89500000D01*
X148465000Y-85535000D02*
X148465000Y-83085000D01*
%TD*%
%TA.AperFunction,Conductor*%
%TO.N,GND*%
G36*
X142385000Y-83346600D02*
G01*
X142323152Y-83305275D01*
X142154813Y-83235547D01*
X141976105Y-83200000D01*
X141793895Y-83200000D01*
X141615187Y-83235547D01*
X141446848Y-83305275D01*
X141385000Y-83346600D01*
X141385000Y-82363399D01*
X141446848Y-82404725D01*
X141615187Y-82474453D01*
X141793895Y-82510000D01*
X141976105Y-82510000D01*
X142154813Y-82474453D01*
X142323152Y-82404725D01*
X142385000Y-82363399D01*
X142385000Y-83346600D01*
G37*
%TD.AperFunction*%
%TA.AperFunction,Conductor*%
G36*
X149358059Y-79001561D02*
G01*
X149424271Y-79010278D01*
X149455539Y-79018656D01*
X149509668Y-79041077D01*
X149537700Y-79057261D01*
X149584184Y-79092929D01*
X149607070Y-79115815D01*
X149629057Y-79144469D01*
X149642738Y-79162299D01*
X149658922Y-79190331D01*
X149681343Y-79244460D01*
X149689721Y-79275726D01*
X149698439Y-79341938D01*
X149699500Y-79358125D01*
X149699500Y-83565891D01*
X149733608Y-83693187D01*
X149741766Y-83707316D01*
X149799500Y-83807314D01*
X149892686Y-83900500D01*
X150006814Y-83966392D01*
X150134108Y-84000500D01*
X150195125Y-84000500D01*
X150204853Y-84000882D01*
X150257188Y-84005000D01*
X150385736Y-84015117D01*
X150404952Y-84018160D01*
X150407253Y-84018713D01*
X150576629Y-84059377D01*
X150595134Y-84065390D01*
X150758246Y-84132953D01*
X150775583Y-84141787D01*
X150926115Y-84234033D01*
X150941857Y-84245470D01*
X151076109Y-84360132D01*
X151089867Y-84373890D01*
X151204529Y-84508142D01*
X151215966Y-84523884D01*
X151308212Y-84674416D01*
X151317046Y-84691753D01*
X151384609Y-84854865D01*
X151390622Y-84873370D01*
X151431838Y-85045045D01*
X151434882Y-85064264D01*
X151449118Y-85245146D01*
X151449500Y-85254875D01*
X151449500Y-92245124D01*
X151449118Y-92254853D01*
X151434882Y-92435735D01*
X151431838Y-92454954D01*
X151390622Y-92626629D01*
X151384609Y-92645134D01*
X151317046Y-92808246D01*
X151308212Y-92825583D01*
X151215966Y-92976115D01*
X151204529Y-92991857D01*
X151089867Y-93126109D01*
X151076109Y-93139867D01*
X150941857Y-93254529D01*
X150926115Y-93265966D01*
X150775583Y-93358212D01*
X150758246Y-93367046D01*
X150595134Y-93434609D01*
X150576629Y-93440622D01*
X150404954Y-93481838D01*
X150385735Y-93484882D01*
X150206636Y-93498977D01*
X150205998Y-93499028D01*
X150204854Y-93499118D01*
X150195125Y-93499500D01*
X131605412Y-93499500D01*
X131594606Y-93499028D01*
X131573433Y-93497175D01*
X131419883Y-93483741D01*
X131398598Y-93479988D01*
X131234426Y-93435999D01*
X131214114Y-93428606D01*
X131060081Y-93356779D01*
X131041363Y-93345972D01*
X130902141Y-93248488D01*
X130885583Y-93234594D01*
X130765405Y-93114416D01*
X130751511Y-93097858D01*
X130736648Y-93076632D01*
X130654026Y-92958635D01*
X130643220Y-92939918D01*
X130586024Y-92817261D01*
X130571390Y-92785878D01*
X130564000Y-92765573D01*
X130562335Y-92759360D01*
X130520011Y-92601401D01*
X130516258Y-92580115D01*
X130500972Y-92405394D01*
X130500500Y-92394587D01*
X130500500Y-92149986D01*
X131725001Y-92149986D01*
X131735494Y-92252697D01*
X131790641Y-92419119D01*
X131790643Y-92419124D01*
X131882684Y-92568345D01*
X132006654Y-92692315D01*
X132155882Y-92784360D01*
X132249999Y-92815546D01*
X132250000Y-92815546D01*
X132250000Y-91750000D01*
X131725001Y-91750000D01*
X131725001Y-92149986D01*
X130500500Y-92149986D01*
X130500500Y-90350013D01*
X131725000Y-90350013D01*
X131725000Y-90750000D01*
X132250000Y-90750000D01*
X132250000Y-89684453D01*
X132155880Y-89715641D01*
X132155875Y-89715643D01*
X132006654Y-89807684D01*
X131882684Y-89931654D01*
X131790643Y-90080875D01*
X131790641Y-90080880D01*
X131735494Y-90247302D01*
X131735493Y-90247309D01*
X131725000Y-90350013D01*
X130500500Y-90350013D01*
X130500500Y-85154875D01*
X130500882Y-85145147D01*
X130510603Y-85021621D01*
X130515117Y-84964261D01*
X130518161Y-84945045D01*
X130523582Y-84922468D01*
X130559378Y-84773365D01*
X130565390Y-84754865D01*
X130570059Y-84743595D01*
X130632954Y-84591749D01*
X130641787Y-84574416D01*
X130723396Y-84441243D01*
X130734034Y-84423881D01*
X130745470Y-84408142D01*
X130752198Y-84400265D01*
X130860136Y-84273885D01*
X130873885Y-84260136D01*
X131008144Y-84145468D01*
X131023884Y-84134033D01*
X131174419Y-84041785D01*
X131191749Y-84032954D01*
X131354869Y-83965388D01*
X131373365Y-83959378D01*
X131545049Y-83918160D01*
X131564261Y-83915117D01*
X131705483Y-83904003D01*
X131745147Y-83900882D01*
X131754875Y-83900500D01*
X131815890Y-83900500D01*
X131815892Y-83900500D01*
X131943186Y-83866392D01*
X132057314Y-83800500D01*
X132150500Y-83707314D01*
X132216392Y-83593186D01*
X132250500Y-83465892D01*
X132250500Y-83334108D01*
X132250500Y-81492486D01*
X133089500Y-81492486D01*
X133089500Y-81677514D01*
X133101624Y-81754062D01*
X133118445Y-81860265D01*
X133175619Y-82036232D01*
X133175620Y-82036235D01*
X133249102Y-82180449D01*
X133259622Y-82201096D01*
X133368379Y-82350787D01*
X133499213Y-82481621D01*
X133648904Y-82590378D01*
X133725267Y-82629287D01*
X133813764Y-82674379D01*
X133813767Y-82674380D01*
X133845271Y-82684616D01*
X133989736Y-82731555D01*
X133994798Y-82732356D01*
X133995872Y-82732527D01*
X134059007Y-82762456D01*
X134095938Y-82821768D01*
X134094940Y-82891630D01*
X134056330Y-82949863D01*
X133995872Y-82977473D01*
X133989734Y-82978445D01*
X133813767Y-83035619D01*
X133813764Y-83035620D01*
X133648903Y-83119622D01*
X133563499Y-83181672D01*
X133499213Y-83228379D01*
X133499211Y-83228381D01*
X133499210Y-83228381D01*
X133368381Y-83359210D01*
X133368381Y-83359211D01*
X133368379Y-83359213D01*
X133347886Y-83387419D01*
X133259622Y-83508903D01*
X133175620Y-83673764D01*
X133175619Y-83673767D01*
X133118445Y-83849734D01*
X133099968Y-83966392D01*
X133089500Y-84032486D01*
X133089500Y-84217514D01*
X133092924Y-84239133D01*
X133118445Y-84400265D01*
X133175619Y-84576232D01*
X133175620Y-84576235D01*
X133256332Y-84734639D01*
X133259622Y-84741096D01*
X133368379Y-84890787D01*
X133499213Y-85021621D01*
X133648904Y-85130378D01*
X133729763Y-85171577D01*
X133813764Y-85214379D01*
X133813767Y-85214380D01*
X133901750Y-85242967D01*
X133989736Y-85271555D01*
X134172486Y-85300500D01*
X134172487Y-85300500D01*
X134357513Y-85300500D01*
X134357514Y-85300500D01*
X134540264Y-85271555D01*
X134716235Y-85214379D01*
X134881096Y-85130378D01*
X135030787Y-85021621D01*
X135161621Y-84890787D01*
X135270378Y-84741096D01*
X135354379Y-84576235D01*
X135411555Y-84400264D01*
X135412527Y-84394126D01*
X135442455Y-84330994D01*
X135501766Y-84294062D01*
X135571629Y-84295058D01*
X135629862Y-84333667D01*
X135657472Y-84394126D01*
X135657582Y-84394813D01*
X135658446Y-84400269D01*
X135715619Y-84576232D01*
X135715620Y-84576235D01*
X135796332Y-84734639D01*
X135799622Y-84741096D01*
X135908379Y-84890787D01*
X136039213Y-85021621D01*
X136188904Y-85130378D01*
X136269763Y-85171577D01*
X136353764Y-85214379D01*
X136353767Y-85214380D01*
X136441750Y-85242967D01*
X136529736Y-85271555D01*
X136712486Y-85300500D01*
X136712487Y-85300500D01*
X136897513Y-85300500D01*
X136897514Y-85300500D01*
X137080264Y-85271555D01*
X137256235Y-85214379D01*
X137421096Y-85130378D01*
X137570787Y-85021621D01*
X137701621Y-84890787D01*
X137810378Y-84741096D01*
X137866719Y-84630519D01*
X137914693Y-84579723D01*
X137982514Y-84562928D01*
X138048649Y-84585465D01*
X138091767Y-84639365D01*
X138093444Y-84643415D01*
X138189951Y-84832820D01*
X138314890Y-85004786D01*
X138465213Y-85155109D01*
X138637179Y-85280048D01*
X138637181Y-85280049D01*
X138637184Y-85280051D01*
X138826588Y-85376557D01*
X139028757Y-85442246D01*
X139238713Y-85475500D01*
X139238714Y-85475500D01*
X139451286Y-85475500D01*
X139451287Y-85475500D01*
X139661243Y-85442246D01*
X139863412Y-85376557D01*
X140052816Y-85280051D01*
X140224792Y-85155104D01*
X140335919Y-85043976D01*
X140397238Y-85010494D01*
X140466930Y-85015478D01*
X140522864Y-85057349D01*
X140523915Y-85058775D01*
X140626445Y-85199896D01*
X140626449Y-85199901D01*
X140810098Y-85383550D01*
X140810103Y-85383554D01*
X141020208Y-85536203D01*
X141251619Y-85654115D01*
X141251625Y-85654117D01*
X141384999Y-85697452D01*
X141385000Y-85697451D01*
X141385000Y-84903399D01*
X141446848Y-84944725D01*
X141615187Y-85014453D01*
X141793895Y-85050000D01*
X141976105Y-85050000D01*
X142154813Y-85014453D01*
X142323152Y-84944725D01*
X142385000Y-84903399D01*
X142385000Y-85697452D01*
X142518374Y-85654117D01*
X142518380Y-85654115D01*
X142749791Y-85536203D01*
X142959896Y-85383554D01*
X142959901Y-85383550D01*
X143143550Y-85199901D01*
X143143554Y-85199896D01*
X143296205Y-84989789D01*
X143330507Y-84922468D01*
X143378481Y-84871672D01*
X143446302Y-84854876D01*
X143512437Y-84877413D01*
X143528673Y-84891081D01*
X143659213Y-85021621D01*
X143808904Y-85130378D01*
X143889763Y-85171577D01*
X143973764Y-85214379D01*
X143973767Y-85214380D01*
X144061750Y-85242967D01*
X144149736Y-85271555D01*
X144332486Y-85300500D01*
X144332487Y-85300500D01*
X144517513Y-85300500D01*
X144517514Y-85300500D01*
X144700264Y-85271555D01*
X144876235Y-85214379D01*
X145041096Y-85130378D01*
X145190787Y-85021621D01*
X145321621Y-84890787D01*
X145404071Y-84777303D01*
X145459401Y-84734639D01*
X145529015Y-84728660D01*
X145590809Y-84761266D01*
X145625167Y-84822105D01*
X145627609Y-84836306D01*
X145629630Y-84854250D01*
X145629631Y-84854254D01*
X145689211Y-85024523D01*
X145748730Y-85119247D01*
X145767730Y-85186484D01*
X145747362Y-85253319D01*
X145731417Y-85272900D01*
X143891137Y-87113181D01*
X143829814Y-87146666D01*
X143803456Y-87149500D01*
X136403856Y-87149500D01*
X136314712Y-87173386D01*
X136314709Y-87173387D01*
X136234791Y-87219527D01*
X136234786Y-87219531D01*
X134491137Y-88963181D01*
X134429814Y-88996666D01*
X134403456Y-88999500D01*
X133920730Y-88999500D01*
X133890300Y-89002353D01*
X133890298Y-89002353D01*
X133762119Y-89047206D01*
X133762117Y-89047207D01*
X133652850Y-89127850D01*
X133572207Y-89237117D01*
X133572206Y-89237119D01*
X133527353Y-89365298D01*
X133527353Y-89365300D01*
X133524500Y-89395730D01*
X133524500Y-89605112D01*
X133504815Y-89672151D01*
X133452011Y-89717906D01*
X133382853Y-89727850D01*
X133348105Y-89717499D01*
X133344124Y-89715643D01*
X133250000Y-89684453D01*
X133250000Y-92815546D01*
X133344117Y-92784360D01*
X133493345Y-92692315D01*
X133617315Y-92568345D01*
X133713149Y-92412975D01*
X133714862Y-92414032D01*
X133754381Y-92369153D01*
X133820587Y-92350000D01*
X134629413Y-92350000D01*
X134696452Y-92369685D01*
X134735171Y-92414010D01*
X134736851Y-92412975D01*
X134832684Y-92568345D01*
X134956654Y-92692315D01*
X135105882Y-92784360D01*
X135200000Y-92815546D01*
X136200000Y-92815546D01*
X136294117Y-92784360D01*
X136443345Y-92692315D01*
X136567315Y-92568345D01*
X136659356Y-92419124D01*
X136659358Y-92419119D01*
X136714505Y-92252697D01*
X136714506Y-92252690D01*
X136724999Y-92149986D01*
X136725000Y-92149973D01*
X136725000Y-92124986D01*
X138500001Y-92124986D01*
X138510494Y-92227697D01*
X138565641Y-92394119D01*
X138565643Y-92394124D01*
X138657684Y-92543345D01*
X138781654Y-92667315D01*
X138930882Y-92759360D01*
X139025000Y-92790546D01*
X139025000Y-91725000D01*
X138500001Y-91725000D01*
X138500001Y-92124986D01*
X136725000Y-92124986D01*
X136725000Y-91750000D01*
X136200000Y-91750000D01*
X136200000Y-92815546D01*
X135200000Y-92815546D01*
X135200000Y-90750000D01*
X136200000Y-90750000D01*
X136724999Y-90750000D01*
X136724999Y-90350028D01*
X136724998Y-90350013D01*
X136723410Y-90334466D01*
X136722444Y-90325013D01*
X138500000Y-90325013D01*
X138500000Y-90725000D01*
X139025000Y-90725000D01*
X139025000Y-89659453D01*
X138930880Y-89690641D01*
X138930875Y-89690643D01*
X138781654Y-89782684D01*
X138657684Y-89906654D01*
X138565643Y-90055875D01*
X138565641Y-90055880D01*
X138510494Y-90222302D01*
X138510493Y-90222309D01*
X138500000Y-90325013D01*
X136722444Y-90325013D01*
X136714505Y-90247302D01*
X136659358Y-90080880D01*
X136659356Y-90080875D01*
X136567315Y-89931654D01*
X136443345Y-89807684D01*
X136294124Y-89715643D01*
X136294119Y-89715641D01*
X136200000Y-89684453D01*
X136200000Y-90750000D01*
X135200000Y-90750000D01*
X135200000Y-89684453D01*
X135105875Y-89715643D01*
X135101895Y-89717499D01*
X135101392Y-89717575D01*
X135101011Y-89717906D01*
X135066963Y-89722801D01*
X135032817Y-89727985D01*
X135032354Y-89727777D01*
X135031853Y-89727850D01*
X135000487Y-89713525D01*
X134969035Y-89699459D01*
X134968758Y-89699035D01*
X134968297Y-89698825D01*
X134949655Y-89669817D01*
X134930801Y-89640980D01*
X134930704Y-89640330D01*
X134930523Y-89640047D01*
X134925500Y-89605112D01*
X134925500Y-89571544D01*
X134945185Y-89504505D01*
X134961819Y-89483863D01*
X136558863Y-87886819D01*
X136620186Y-87853334D01*
X136646544Y-87850500D01*
X144046142Y-87850500D01*
X144046144Y-87850500D01*
X144135288Y-87826614D01*
X144215212Y-87780470D01*
X146483863Y-85511819D01*
X146545186Y-85478334D01*
X146571544Y-85475500D01*
X147559957Y-85475500D01*
X147559958Y-85475499D01*
X147627104Y-85467934D01*
X147694249Y-85460369D01*
X147694251Y-85460368D01*
X147694255Y-85460368D01*
X147719381Y-85451575D01*
X147789160Y-85448012D01*
X147849788Y-85482739D01*
X147882017Y-85544732D01*
X147875614Y-85614307D01*
X147848020Y-85656297D01*
X144391137Y-89113181D01*
X144329814Y-89146666D01*
X144303456Y-89149500D01*
X141669177Y-89149500D01*
X141602138Y-89129815D01*
X141579524Y-89108617D01*
X141578721Y-89109421D01*
X141572151Y-89102851D01*
X141462882Y-89022207D01*
X141462880Y-89022206D01*
X141334700Y-88977353D01*
X141304270Y-88974500D01*
X141304266Y-88974500D01*
X140695734Y-88974500D01*
X140695730Y-88974500D01*
X140665300Y-88977353D01*
X140665298Y-88977353D01*
X140537119Y-89022206D01*
X140537117Y-89022207D01*
X140427850Y-89102850D01*
X140347207Y-89212117D01*
X140347206Y-89212119D01*
X140302353Y-89340298D01*
X140302353Y-89340300D01*
X140299500Y-89370730D01*
X140299500Y-89580112D01*
X140279815Y-89647151D01*
X140227011Y-89692906D01*
X140157853Y-89702850D01*
X140123105Y-89692499D01*
X140119124Y-89690643D01*
X140025000Y-89659453D01*
X140025000Y-92790546D01*
X140119117Y-92759360D01*
X140268345Y-92667315D01*
X140392315Y-92543345D01*
X140488149Y-92387975D01*
X140489862Y-92389032D01*
X140529381Y-92344153D01*
X140595587Y-92325000D01*
X141404413Y-92325000D01*
X141471452Y-92344685D01*
X141510171Y-92389010D01*
X141511851Y-92387975D01*
X141607684Y-92543345D01*
X141731654Y-92667315D01*
X141880882Y-92759360D01*
X141974999Y-92790546D01*
X141975000Y-92790546D01*
X142975000Y-92790546D01*
X143069117Y-92759360D01*
X143218345Y-92667315D01*
X143342315Y-92543345D01*
X143434356Y-92394124D01*
X143434358Y-92394119D01*
X143489505Y-92227697D01*
X143489506Y-92227690D01*
X143499999Y-92124986D01*
X145500001Y-92124986D01*
X145510494Y-92227697D01*
X145565641Y-92394119D01*
X145565643Y-92394124D01*
X145657684Y-92543345D01*
X145781654Y-92667315D01*
X145930882Y-92759360D01*
X146025000Y-92790546D01*
X146025000Y-91725000D01*
X145500001Y-91725000D01*
X145500001Y-92124986D01*
X143499999Y-92124986D01*
X143500000Y-92124973D01*
X143500000Y-91725000D01*
X142975000Y-91725000D01*
X142975000Y-92790546D01*
X141975000Y-92790546D01*
X141975000Y-91349000D01*
X141994685Y-91281961D01*
X142047489Y-91236206D01*
X142099000Y-91225000D01*
X142475000Y-91225000D01*
X142475000Y-90849000D01*
X142494685Y-90781961D01*
X142547489Y-90736206D01*
X142599000Y-90725000D01*
X143499999Y-90725000D01*
X143499999Y-90325029D01*
X143499998Y-90325013D01*
X145500000Y-90325013D01*
X145500000Y-90725000D01*
X146025000Y-90725000D01*
X146025000Y-89659453D01*
X145930880Y-89690641D01*
X145930875Y-89690643D01*
X145781654Y-89782684D01*
X145657684Y-89906654D01*
X145565643Y-90055875D01*
X145565641Y-90055880D01*
X145510494Y-90222302D01*
X145510493Y-90222309D01*
X145500000Y-90325013D01*
X143499998Y-90325013D01*
X143499998Y-90325012D01*
X143489505Y-90222302D01*
X143434358Y-90055880D01*
X143434355Y-90055873D01*
X143424316Y-90039598D01*
X143405875Y-89972206D01*
X143426797Y-89905542D01*
X143480438Y-89860772D01*
X143529854Y-89850500D01*
X144546142Y-89850500D01*
X144546144Y-89850500D01*
X144635288Y-89826614D01*
X144715212Y-89780470D01*
X148402819Y-86092863D01*
X148464142Y-86059378D01*
X148533834Y-86064362D01*
X148589767Y-86106234D01*
X148614184Y-86171698D01*
X148614500Y-86180544D01*
X148614500Y-88538456D01*
X148594815Y-88605495D01*
X148578181Y-88626137D01*
X148266137Y-88938181D01*
X148204814Y-88971666D01*
X148178456Y-88974500D01*
X147695730Y-88974500D01*
X147665300Y-88977353D01*
X147665298Y-88977353D01*
X147537119Y-89022206D01*
X147537117Y-89022207D01*
X147427850Y-89102850D01*
X147347207Y-89212117D01*
X147347206Y-89212119D01*
X147302353Y-89340298D01*
X147302353Y-89340300D01*
X147299500Y-89370730D01*
X147299500Y-89580112D01*
X147279815Y-89647151D01*
X147227011Y-89692906D01*
X147157853Y-89702850D01*
X147123105Y-89692499D01*
X147119124Y-89690643D01*
X147025000Y-89659453D01*
X147025000Y-92790546D01*
X147119117Y-92759360D01*
X147268345Y-92667315D01*
X147392315Y-92543345D01*
X147488149Y-92387975D01*
X147489862Y-92389032D01*
X147529381Y-92344153D01*
X147595587Y-92325000D01*
X148404413Y-92325000D01*
X148471452Y-92344685D01*
X148510171Y-92389010D01*
X148511851Y-92387975D01*
X148607684Y-92543345D01*
X148731654Y-92667315D01*
X148880882Y-92759360D01*
X148975000Y-92790546D01*
X149975000Y-92790546D01*
X150069117Y-92759360D01*
X150218345Y-92667315D01*
X150342315Y-92543345D01*
X150434356Y-92394124D01*
X150434358Y-92394119D01*
X150489505Y-92227697D01*
X150489506Y-92227690D01*
X150499999Y-92124986D01*
X150500000Y-92124973D01*
X150500000Y-91725000D01*
X149975000Y-91725000D01*
X149975000Y-92790546D01*
X148975000Y-92790546D01*
X148975000Y-90725000D01*
X149975000Y-90725000D01*
X150499999Y-90725000D01*
X150499999Y-90325028D01*
X150499998Y-90325013D01*
X150489505Y-90222302D01*
X150434358Y-90055880D01*
X150434356Y-90055875D01*
X150342315Y-89906654D01*
X150218345Y-89782684D01*
X150069124Y-89690643D01*
X150069119Y-89690641D01*
X149975000Y-89659453D01*
X149975000Y-90725000D01*
X148975000Y-90725000D01*
X148975000Y-89659453D01*
X148880875Y-89690643D01*
X148876895Y-89692499D01*
X148876392Y-89692575D01*
X148876011Y-89692906D01*
X148841963Y-89697801D01*
X148807817Y-89702985D01*
X148807354Y-89702777D01*
X148806853Y-89702850D01*
X148775487Y-89688525D01*
X148744035Y-89674459D01*
X148743758Y-89674035D01*
X148743297Y-89673825D01*
X148724655Y-89644817D01*
X148705801Y-89615980D01*
X148705704Y-89615330D01*
X148705523Y-89615047D01*
X148700500Y-89580112D01*
X148700500Y-89546544D01*
X148720185Y-89479505D01*
X148736819Y-89458863D01*
X148983565Y-89212117D01*
X149245470Y-88950212D01*
X149291614Y-88870288D01*
X149315500Y-88781144D01*
X149315500Y-81218856D01*
X149291614Y-81129712D01*
X149255169Y-81066588D01*
X149245470Y-81049788D01*
X149245469Y-81049787D01*
X149245468Y-81049785D01*
X148000213Y-79804531D01*
X148000208Y-79804527D01*
X147920290Y-79758387D01*
X147920289Y-79758386D01*
X147920288Y-79758386D01*
X147831144Y-79734500D01*
X145878856Y-79734500D01*
X145789712Y-79758386D01*
X145789711Y-79758386D01*
X145789709Y-79758387D01*
X145789706Y-79758388D01*
X145709794Y-79804526D01*
X145709785Y-79804533D01*
X145164426Y-80349891D01*
X145103103Y-80383376D01*
X145033411Y-80378392D01*
X145020451Y-80372695D01*
X144943417Y-80333445D01*
X144943414Y-80333444D01*
X144943412Y-80333443D01*
X144741243Y-80267754D01*
X144741241Y-80267753D01*
X144741240Y-80267753D01*
X144579957Y-80242208D01*
X144531287Y-80234500D01*
X144318713Y-80234500D01*
X144270042Y-80242208D01*
X144108760Y-80267753D01*
X143906585Y-80333444D01*
X143717179Y-80429951D01*
X143545215Y-80554889D01*
X143434083Y-80666021D01*
X143372760Y-80699505D01*
X143303068Y-80694521D01*
X143247135Y-80652649D01*
X143246084Y-80651224D01*
X143143554Y-80510103D01*
X143143550Y-80510098D01*
X142959901Y-80326449D01*
X142959896Y-80326445D01*
X142749791Y-80173796D01*
X142518382Y-80055886D01*
X142385000Y-80012547D01*
X142385000Y-80806600D01*
X142323152Y-80765275D01*
X142154813Y-80695547D01*
X141976105Y-80660000D01*
X141793895Y-80660000D01*
X141615187Y-80695547D01*
X141446848Y-80765275D01*
X141385000Y-80806600D01*
X141385000Y-80012547D01*
X141384999Y-80012547D01*
X141251617Y-80055886D01*
X141020208Y-80173796D01*
X140810103Y-80326445D01*
X140810098Y-80326449D01*
X140626449Y-80510098D01*
X140626445Y-80510103D01*
X140523915Y-80651224D01*
X140468585Y-80693890D01*
X140398972Y-80699869D01*
X140337177Y-80667263D01*
X140335916Y-80666020D01*
X140224786Y-80554890D01*
X140052820Y-80429951D01*
X139863414Y-80333444D01*
X139863413Y-80333443D01*
X139863412Y-80333443D01*
X139661243Y-80267754D01*
X139661241Y-80267753D01*
X139661240Y-80267753D01*
X139499957Y-80242208D01*
X139451287Y-80234500D01*
X139238713Y-80234500D01*
X139190042Y-80242208D01*
X139028760Y-80267753D01*
X138826585Y-80333444D01*
X138637179Y-80429951D01*
X138465213Y-80554890D01*
X138314890Y-80705213D01*
X138189951Y-80877179D01*
X138093442Y-81066589D01*
X138091765Y-81070638D01*
X138047923Y-81125042D01*
X137981629Y-81147106D01*
X137913930Y-81129826D01*
X137866719Y-81079480D01*
X137860151Y-81066589D01*
X137810378Y-80968904D01*
X137701621Y-80819213D01*
X137570787Y-80688379D01*
X137421096Y-80579622D01*
X137372555Y-80554889D01*
X137256235Y-80495620D01*
X137256232Y-80495619D01*
X137080265Y-80438445D01*
X136988889Y-80423972D01*
X136897514Y-80409500D01*
X136712486Y-80409500D01*
X136651569Y-80419148D01*
X136529734Y-80438445D01*
X136353767Y-80495619D01*
X136353764Y-80495620D01*
X136188903Y-80579622D01*
X136103499Y-80641672D01*
X136039213Y-80688379D01*
X136039211Y-80688381D01*
X136039210Y-80688381D01*
X135908381Y-80819210D01*
X135908381Y-80819211D01*
X135908379Y-80819213D01*
X135874019Y-80866505D01*
X135799622Y-80968903D01*
X135715620Y-81133764D01*
X135715619Y-81133767D01*
X135658445Y-81309734D01*
X135657473Y-81315872D01*
X135627544Y-81379007D01*
X135568232Y-81415938D01*
X135498370Y-81414940D01*
X135440137Y-81376330D01*
X135412527Y-81315872D01*
X135411893Y-81311870D01*
X135411555Y-81309736D01*
X135354379Y-81133765D01*
X135354379Y-81133764D01*
X135270377Y-80968903D01*
X135227056Y-80909277D01*
X135161621Y-80819213D01*
X135030787Y-80688379D01*
X134881096Y-80579622D01*
X134832555Y-80554889D01*
X134716235Y-80495620D01*
X134716232Y-80495619D01*
X134540265Y-80438445D01*
X134448889Y-80423972D01*
X134357514Y-80409500D01*
X134172486Y-80409500D01*
X134111569Y-80419148D01*
X133989734Y-80438445D01*
X133813767Y-80495619D01*
X133813764Y-80495620D01*
X133648903Y-80579622D01*
X133563499Y-80641672D01*
X133499213Y-80688379D01*
X133499211Y-80688381D01*
X133499210Y-80688381D01*
X133368381Y-80819210D01*
X133368381Y-80819211D01*
X133368379Y-80819213D01*
X133334019Y-80866505D01*
X133259622Y-80968903D01*
X133175620Y-81133764D01*
X133175619Y-81133767D01*
X133118445Y-81309734D01*
X133094401Y-81461544D01*
X133089500Y-81492486D01*
X132250500Y-81492486D01*
X132250500Y-79506941D01*
X132251280Y-79493059D01*
X132251291Y-79492956D01*
X132261457Y-79402729D01*
X132267633Y-79375668D01*
X132295351Y-79296457D01*
X132307391Y-79271453D01*
X132352044Y-79200389D01*
X132369349Y-79178690D01*
X132428688Y-79119351D01*
X132450387Y-79102046D01*
X132521451Y-79057393D01*
X132546455Y-79045353D01*
X132625666Y-79017635D01*
X132652727Y-79011459D01*
X132728751Y-79002893D01*
X132743076Y-79001280D01*
X132756958Y-79000500D01*
X132815890Y-79000500D01*
X149284108Y-79000500D01*
X149341874Y-79000500D01*
X149358059Y-79001561D01*
G37*
%TD.AperFunction*%
%TD*%
M02*
