M48
; DRILL file KiCad 10.0.3 date 2026-06-06T21:40:13
; FORMAT={-:-/ absolute / metric / decimal}
; #@! TF.CreationDate,2026-06-06T21:40:13-06:00
; #@! TF.GenerationSoftware,Kicad,Pcbnew,10.0.3
; #@! TF.FileFunction,Plated,1,2,PTH
FMAT,2
METRIC
; #@! TA.AperFunction,Plated,PTH,ViaDrill
T1C0.300
; #@! TA.AperFunction,Plated,PTH,ComponentDrill
T2C1.850
%
G90
G05
T1
X131.0Y-88.5
X131.15Y-92.85
X131.696Y-85.278
X133.0Y-79.7
X134.1Y-86.35
X136.9Y-86.3
X137.5Y-88.5
X137.65Y-92.75
X143.9Y-86.35
X144.0Y-88.5
X144.5Y-90.5
X144.6Y-92.75
X146.303Y-86.361
X147.0Y-88.4
X148.184Y-86.837
X148.9Y-79.6
X150.3Y-85.25
X150.3Y-88.75
X151.05Y-92.7
T2
X134.265Y-81.585
X134.265Y-84.125
X136.805Y-81.585
X136.805Y-84.125
X139.345Y-81.585
X139.345Y-84.125
X141.885Y-81.585
X141.885Y-84.125
X144.425Y-81.585
X144.425Y-84.125
X146.965Y-81.585
X146.965Y-84.125
M30
