%TF.GenerationSoftware,KiCad,Pcbnew,8.0.4*%
%TF.CreationDate,2024-08-31T12:18:16-06:00*%
%TF.ProjectId,SNEdge,534e4564-6765-42e6-9b69-6361645f7063,rev?*%
%TF.SameCoordinates,Original*%
%TF.FileFunction,Paste,Top*%
%TF.FilePolarity,Positive*%
%FSLAX46Y46*%
G04 Gerber Fmt 4.6, Leading zero omitted, Abs format (unit mm)*
G04 Created by KiCad (PCBNEW 8.0.4) date 2024-08-31 12:18:16*
%MOMM*%
%LPD*%
G01*
G04 APERTURE LIST*
G04 Aperture macros list*
%AMRoundRect*
0 Rectangle with rounded corners*
0 $1 Rounding radius*
0 $2 $3 $4 $5 $6 $7 $8 $9 X,Y pos of 4 corners*
0 Add a 4 corners polygon primitive as box body*
4,1,4,$2,$3,$4,$5,$6,$7,$8,$9,$2,$3,0*
0 Add four circle primitives for the rounded corners*
1,1,$1+$1,$2,$3*
1,1,$1+$1,$4,$5*
1,1,$1+$1,$6,$7*
1,1,$1+$1,$8,$9*
0 Add four rect primitives between the rounded corners*
20,1,$1+$1,$2,$3,$4,$5,0*
20,1,$1+$1,$4,$5,$6,$7,0*
20,1,$1+$1,$6,$7,$8,$9,0*
20,1,$1+$1,$8,$9,$2,$3,0*%
G04 Aperture macros list end*
%ADD10C,0.000000*%
%ADD11RoundRect,0.250000X0.475000X-0.250000X0.475000X0.250000X-0.475000X0.250000X-0.475000X-0.250000X0*%
%ADD12R,0.300000X0.800000*%
%ADD13R,1.300000X3.049999*%
%ADD14RoundRect,0.250000X-0.450000X0.262500X-0.450000X-0.262500X0.450000X-0.262500X0.450000X0.262500X0*%
%ADD15RoundRect,0.250000X-0.475000X0.250000X-0.475000X-0.250000X0.475000X-0.250000X0.475000X0.250000X0*%
%ADD16RoundRect,0.250000X0.250000X0.475000X-0.250000X0.475000X-0.250000X-0.475000X0.250000X-0.475000X0*%
%ADD17RoundRect,0.250000X0.450000X-0.262500X0.450000X0.262500X-0.450000X0.262500X-0.450000X-0.262500X0*%
%ADD18RoundRect,0.100000X-0.637500X-0.100000X0.637500X-0.100000X0.637500X0.100000X-0.637500X0.100000X0*%
G04 APERTURE END LIST*
D10*
%TO.C,J1*%
G36*
X136150003Y-94900000D02*
G01*
X135050003Y-94900000D01*
X135050003Y-92700000D01*
X136150003Y-92700000D01*
X136150003Y-94900000D01*
G37*
G36*
X145350003Y-94900000D02*
G01*
X144250003Y-94900000D01*
X144250003Y-92700000D01*
X145350003Y-92700000D01*
X145350003Y-94900000D01*
G37*
%TD*%
D11*
%TO.C,C1*%
X129500000Y-107750000D03*
X129500000Y-105850000D03*
%TD*%
%TO.C,C8*%
X146400000Y-104762500D03*
X146400000Y-102862500D03*
%TD*%
D12*
%TO.C,J1*%
X141700000Y-95300000D03*
X141200001Y-95300000D03*
X140699999Y-95300000D03*
X140200000Y-95300000D03*
X139699999Y-95300000D03*
X139200000Y-95300000D03*
X138700001Y-95300000D03*
D13*
X143600000Y-93375000D03*
X136800006Y-93375000D03*
%TD*%
D14*
%TO.C,R3*%
X142300000Y-106300000D03*
X142300000Y-108125000D03*
%TD*%
D11*
%TO.C,C9*%
X146400000Y-108162500D03*
X146400000Y-106262500D03*
%TD*%
D15*
%TO.C,C5*%
X129500000Y-93250000D03*
X129500000Y-95150000D03*
%TD*%
D14*
%TO.C,R9*%
X144400000Y-99500000D03*
X144400000Y-101325000D03*
%TD*%
D11*
%TO.C,C2*%
X127500000Y-107750000D03*
X127500000Y-105850000D03*
%TD*%
D14*
%TO.C,R5*%
X140200000Y-99500000D03*
X140200000Y-101325000D03*
%TD*%
D16*
%TO.C,C7*%
X136050000Y-103500000D03*
X134150000Y-103500000D03*
%TD*%
D14*
%TO.C,R1*%
X142300000Y-102900000D03*
X142300000Y-104725000D03*
%TD*%
D15*
%TO.C,C4*%
X127500000Y-96750000D03*
X127500000Y-98650000D03*
%TD*%
D17*
%TO.C,R4*%
X144400000Y-108125000D03*
X144400000Y-106300000D03*
%TD*%
%TO.C,R8*%
X142300000Y-101325000D03*
X142300000Y-99500000D03*
%TD*%
D15*
%TO.C,C10*%
X146400000Y-99462500D03*
X146400000Y-101362500D03*
%TD*%
D17*
%TO.C,R2*%
X144400000Y-104725000D03*
X144400000Y-102900000D03*
%TD*%
D15*
%TO.C,C6*%
X127500000Y-93250000D03*
X127500000Y-95150000D03*
%TD*%
D17*
%TO.C,R7*%
X140200000Y-108125000D03*
X140200000Y-106300000D03*
%TD*%
%TO.C,R6*%
X140200000Y-104725000D03*
X140200000Y-102900000D03*
%TD*%
D18*
%TO.C,U1*%
X126637500Y-100350000D03*
X126637500Y-101000000D03*
X126637500Y-101650000D03*
X126637500Y-102300000D03*
X126637500Y-102950000D03*
X126637500Y-103600000D03*
X126637500Y-104250000D03*
X132362500Y-104250000D03*
X132362500Y-103600000D03*
X132362500Y-102950000D03*
X132362500Y-102300000D03*
X132362500Y-101650000D03*
X132362500Y-101000000D03*
X132362500Y-100350000D03*
%TD*%
D15*
%TO.C,C3*%
X129500000Y-96750000D03*
X129500000Y-98650000D03*
%TD*%
M02*
