%TF.GenerationSoftware,KiCad,Pcbnew,8.0.4*%
%TF.CreationDate,2024-08-31T12:18:16-06:00*%
%TF.ProjectId,SNEdge,534e4564-6765-42e6-9b69-6361645f7063,rev?*%
%TF.SameCoordinates,Original*%
%TF.FileFunction,Copper,L2,Bot*%
%TF.FilePolarity,Positive*%
%FSLAX46Y46*%
G04 Gerber Fmt 4.6, Leading zero omitted, Abs format (unit mm)*
G04 Created by KiCad (PCBNEW 8.0.4) date 2024-08-31 12:18:16*
%MOMM*%
%LPD*%
G01*
G04 APERTURE LIST*
%TA.AperFunction,ViaPad*%
%ADD10C,0.600000*%
%TD*%
G04 APERTURE END LIST*
D10*
%TO.N,GND*%
X124750000Y-98350000D03*
X117900000Y-100600000D03*
X133950000Y-94150000D03*
X138200000Y-91400000D03*
X132950000Y-95900000D03*
X126500000Y-94150000D03*
X145400000Y-100400000D03*
X153800000Y-102100000D03*
X137450000Y-96100000D03*
X136200000Y-108100000D03*
X151150000Y-105450000D03*
X138900000Y-100450000D03*
X128300000Y-108850000D03*
X127800000Y-103350000D03*
X117900000Y-103550000D03*
X125800000Y-105100000D03*
X126200000Y-99200000D03*
X136300000Y-106500000D03*
X145400000Y-107200000D03*
X153800000Y-108800000D03*
X142950000Y-95900000D03*
X117900000Y-106600000D03*
X135150000Y-103500000D03*
X139250000Y-107200000D03*
X117900000Y-97550000D03*
X130450000Y-108850000D03*
X143350000Y-105550000D03*
X134500000Y-97600000D03*
X132900000Y-99400000D03*
X133100000Y-108750000D03*
X140200000Y-93900000D03*
X133000000Y-105150000D03*
X125050000Y-92500000D03*
X135450000Y-92000000D03*
X145350000Y-102100000D03*
X138250000Y-98800000D03*
X145400000Y-103800000D03*
X126350000Y-97500000D03*
X136050000Y-104900000D03*
X125656215Y-103278317D03*
X137300000Y-103500000D03*
X142200000Y-91400000D03*
X121500000Y-97550000D03*
X121500000Y-94600000D03*
X153800000Y-105450000D03*
X117900000Y-94600000D03*
X134700000Y-100100000D03*
X153800000Y-98800000D03*
X145900000Y-92900000D03*
X125050000Y-108850000D03*
X146950000Y-97250000D03*
X121500000Y-106600000D03*
X151150000Y-98800000D03*
X153950000Y-93600000D03*
X130700000Y-95900000D03*
X127800000Y-104750000D03*
X130850000Y-92500000D03*
X151150000Y-108800000D03*
X121500000Y-100600000D03*
X151150000Y-102100000D03*
X121500000Y-103550000D03*
X145000000Y-92000000D03*
%TD*%
%TA.AperFunction,Conductor*%
%TO.N,GND*%
G36*
X145005512Y-90901121D02*
G01*
X145100073Y-90911775D01*
X145121669Y-90916705D01*
X145206202Y-90946283D01*
X145226168Y-90955899D01*
X145264079Y-90979720D01*
X145301987Y-91003540D01*
X145319319Y-91017361D01*
X145382638Y-91080680D01*
X145396459Y-91098012D01*
X145444098Y-91173828D01*
X145453718Y-91193803D01*
X145483293Y-91278326D01*
X145488225Y-91299938D01*
X145498877Y-91394470D01*
X145499500Y-91405555D01*
X145499500Y-91507323D01*
X145530045Y-91719764D01*
X145530045Y-91719766D01*
X145590514Y-91925705D01*
X145590515Y-91925708D01*
X145590516Y-91925710D01*
X145679679Y-92120950D01*
X145679680Y-92120951D01*
X145679684Y-92120959D01*
X145795713Y-92301505D01*
X145795719Y-92301513D01*
X145936276Y-92463724D01*
X145936283Y-92463730D01*
X145936285Y-92463732D01*
X146098482Y-92604277D01*
X146098494Y-92604286D01*
X146279040Y-92720315D01*
X146279042Y-92720316D01*
X146279050Y-92720321D01*
X146474290Y-92809484D01*
X146680231Y-92869954D01*
X146759900Y-92881408D01*
X146892677Y-92900500D01*
X146892682Y-92900500D01*
X146934108Y-92900500D01*
X153934108Y-92900500D01*
X153994444Y-92900500D01*
X154005512Y-92901121D01*
X154100073Y-92911775D01*
X154121669Y-92916705D01*
X154206202Y-92946283D01*
X154226168Y-92955899D01*
X154264079Y-92979720D01*
X154301987Y-93003540D01*
X154319319Y-93017361D01*
X154382638Y-93080680D01*
X154396459Y-93098012D01*
X154444098Y-93173828D01*
X154453718Y-93193803D01*
X154483293Y-93278326D01*
X154488225Y-93299938D01*
X154498877Y-93394470D01*
X154499500Y-93405555D01*
X154499500Y-108744444D01*
X154498877Y-108755529D01*
X154488225Y-108850061D01*
X154483293Y-108871673D01*
X154453718Y-108956196D01*
X154444098Y-108976171D01*
X154396459Y-109051987D01*
X154382638Y-109069319D01*
X154319319Y-109132638D01*
X154301987Y-109146459D01*
X154226171Y-109194098D01*
X154206196Y-109203718D01*
X154121673Y-109233293D01*
X154100061Y-109238225D01*
X154005529Y-109248877D01*
X153994444Y-109249500D01*
X117805556Y-109249500D01*
X117794471Y-109248877D01*
X117699938Y-109238225D01*
X117678326Y-109233293D01*
X117593803Y-109203718D01*
X117573828Y-109194098D01*
X117498012Y-109146459D01*
X117480680Y-109132638D01*
X117417361Y-109069319D01*
X117403540Y-109051987D01*
X117355901Y-108976171D01*
X117346283Y-108956202D01*
X117316705Y-108871669D01*
X117311775Y-108850073D01*
X117301121Y-108755512D01*
X117300500Y-108744444D01*
X117300500Y-92605555D01*
X117301121Y-92594488D01*
X117311776Y-92499924D01*
X117316704Y-92478332D01*
X117346285Y-92393794D01*
X117355897Y-92373834D01*
X117403541Y-92298010D01*
X117417357Y-92280684D01*
X117480684Y-92217357D01*
X117498012Y-92203540D01*
X117573834Y-92155897D01*
X117593794Y-92146285D01*
X117678332Y-92116704D01*
X117699924Y-92111776D01*
X117794487Y-92101121D01*
X117805556Y-92100500D01*
X134465890Y-92100500D01*
X134465892Y-92100500D01*
X134593186Y-92066392D01*
X134593188Y-92066390D01*
X134593190Y-92066390D01*
X134707309Y-92000503D01*
X134707309Y-92000502D01*
X134707314Y-92000500D01*
X134800500Y-91907314D01*
X134800503Y-91907309D01*
X134866390Y-91793190D01*
X134866390Y-91793188D01*
X134866392Y-91793186D01*
X134900500Y-91665892D01*
X134900500Y-91405555D01*
X134901121Y-91394488D01*
X134911776Y-91299924D01*
X134916704Y-91278332D01*
X134946285Y-91193794D01*
X134955897Y-91173834D01*
X135003541Y-91098010D01*
X135017357Y-91080684D01*
X135080684Y-91017357D01*
X135098012Y-91003540D01*
X135173834Y-90955897D01*
X135193794Y-90946285D01*
X135278332Y-90916704D01*
X135299924Y-90911776D01*
X135394487Y-90901121D01*
X135405556Y-90900500D01*
X135465892Y-90900500D01*
X144934108Y-90900500D01*
X144994444Y-90900500D01*
X145005512Y-90901121D01*
G37*
%TD.AperFunction*%
%TD*%
M02*
