M48
; DRILL file {KiCad 8.0.4} date 2024-08-31T12:18:11-0600
; FORMAT={-:-/ absolute / inch / decimal}
; #@! TF.CreationDate,2024-08-31T12:18:11-06:00
; #@! TF.GenerationSoftware,Kicad,Pcbnew,8.0.4
; #@! TF.FileFunction,Plated,1,2,PTH
FMAT,2
INCH
; #@! TA.AperFunction,Plated,PTH,ViaDrill
T1C0.0118
%
G90
G05
T1
X4.6417Y-3.7244
X4.6417Y-3.8406
X4.6417Y-3.9606
X4.6417Y-4.0768
X4.6417Y-4.1969
X4.7835Y-3.7244
X4.7835Y-3.8406
X4.7835Y-3.9606
X4.7835Y-4.0768
X4.7835Y-4.1969
X4.9114Y-3.872
X4.9232Y-3.6417
X4.9232Y-4.2854
X4.9471Y-4.0661
X4.9528Y-4.1378
X4.9685Y-3.9055
X4.9744Y-3.8386
X4.9803Y-3.7067
X5.0315Y-4.0689
X5.0315Y-4.124
X5.0512Y-4.2854
X5.1358Y-4.2854
X5.1457Y-3.7756
X5.1516Y-3.6417
X5.2323Y-3.9134
X5.2343Y-3.7756
X5.2362Y-4.1398
X5.2402Y-4.2815
X5.2736Y-3.7067
X5.2953Y-3.8425
X5.3031Y-3.9409
X5.3209Y-4.0748
X5.3327Y-3.622
X5.3563Y-4.1299
X5.3622Y-4.2559
X5.3661Y-4.1929
X5.4055Y-4.0748
X5.4114Y-3.7835
X5.4409Y-3.5984
X5.4429Y-3.8898
X5.4685Y-3.9547
X5.4823Y-4.2205
X5.5197Y-3.6969
X5.5984Y-3.5984
X5.628Y-3.7756
X5.6437Y-4.1555
X5.7087Y-3.622
X5.7224Y-4.0197
X5.7244Y-3.9528
X5.7244Y-4.0866
X5.7244Y-4.2205
X5.7441Y-3.6575
X5.7854Y-3.8287
X5.9508Y-3.8898
X5.9508Y-4.0197
X5.9508Y-4.1516
X5.9508Y-4.2835
X6.0551Y-3.8898
X6.0551Y-4.0197
X6.0551Y-4.1516
X6.0551Y-4.2835
X6.061Y-3.685
M30
