%TF.GenerationSoftware,KiCad,Pcbnew,8.0.4*%
%TF.CreationDate,2024-08-31T12:18:16-06:00*%
%TF.ProjectId,SNEdge,534e4564-6765-42e6-9b69-6361645f7063,rev?*%
%TF.SameCoordinates,Original*%
%TF.FileFunction,Soldermask,Top*%
%TF.FilePolarity,Negative*%
%FSLAX46Y46*%
G04 Gerber Fmt 4.6, Leading zero omitted, Abs format (unit mm)*
G04 Created by KiCad (PCBNEW 8.0.4) date 2024-08-31 12:18:16*
%MOMM*%
%LPD*%
G01*
G04 APERTURE LIST*
G04 Aperture macros list*
%AMRoundRect*
0 Rectangle with rounded corners*
0 $1 Rounding radius*
0 $2 $3 $4 $5 $6 $7 $8 $9 X,Y pos of 4 corners*
0 Add a 4 corners polygon primitive as box body*
4,1,4,$2,$3,$4,$5,$6,$7,$8,$9,$2,$3,0*
0 Add four circle primitives for the rounded corners*
1,1,$1+$1,$2,$3*
1,1,$1+$1,$4,$5*
1,1,$1+$1,$6,$7*
1,1,$1+$1,$8,$9*
0 Add four rect primitives between the rounded corners*
20,1,$1+$1,$2,$3,$4,$5,0*
20,1,$1+$1,$4,$5,$6,$7,0*
20,1,$1+$1,$6,$7,$8,$9,0*
20,1,$1+$1,$8,$9,$2,$3,0*%
%AMFreePoly0*
4,1,19,0.500000,-0.750000,0.000000,-0.750000,0.000000,-0.744911,-0.071157,-0.744911,-0.207708,-0.704816,-0.327430,-0.627875,-0.420627,-0.520320,-0.479746,-0.390866,-0.500000,-0.250000,-0.500000,0.250000,-0.479746,0.390866,-0.420627,0.520320,-0.327430,0.627875,-0.207708,0.704816,-0.071157,0.744911,0.000000,0.744911,0.000000,0.750000,0.500000,0.750000,0.500000,-0.750000,0.500000,-0.750000,
$1*%
%AMFreePoly1*
4,1,19,0.000000,0.744911,0.071157,0.744911,0.207708,0.704816,0.327430,0.627875,0.420627,0.520320,0.479746,0.390866,0.500000,0.250000,0.500000,-0.250000,0.479746,-0.390866,0.420627,-0.520320,0.327430,-0.627875,0.207708,-0.704816,0.071157,-0.744911,0.000000,-0.744911,0.000000,-0.750000,-0.500000,-0.750000,-0.500000,0.750000,0.000000,0.750000,0.000000,0.744911,0.000000,0.744911,
$1*%
G04 Aperture macros list end*
%ADD10C,0.100000*%
%ADD11C,0.300000*%
%ADD12C,0.000000*%
%ADD13FreePoly0,270.000000*%
%ADD14FreePoly1,270.000000*%
%ADD15RoundRect,0.250000X0.475000X-0.250000X0.475000X0.250000X-0.475000X0.250000X-0.475000X-0.250000X0*%
%ADD16R,0.300000X0.800000*%
%ADD17R,1.300000X3.049999*%
%ADD18RoundRect,0.250000X-0.450000X0.262500X-0.450000X-0.262500X0.450000X-0.262500X0.450000X0.262500X0*%
%ADD19R,1.000000X1.000000*%
%ADD20RoundRect,0.250000X-0.475000X0.250000X-0.475000X-0.250000X0.475000X-0.250000X0.475000X0.250000X0*%
%ADD21R,2.000000X2.000000*%
%ADD22RoundRect,0.250000X0.250000X0.475000X-0.250000X0.475000X-0.250000X-0.475000X0.250000X-0.475000X0*%
%ADD23RoundRect,0.250000X0.450000X-0.262500X0.450000X0.262500X-0.450000X0.262500X-0.450000X-0.262500X0*%
%ADD24FreePoly0,90.000000*%
%ADD25FreePoly1,90.000000*%
%ADD26RoundRect,0.100000X-0.637500X-0.100000X0.637500X-0.100000X0.637500X0.100000X-0.637500X0.100000X0*%
G04 APERTURE END LIST*
G36*
X131050000Y-94050000D02*
G01*
X132550000Y-94050000D01*
X132550000Y-94350000D01*
X131050000Y-94350000D01*
X131050000Y-94050000D01*
G37*
G36*
X131050000Y-97550000D02*
G01*
X132550000Y-97550000D01*
X132550000Y-97850000D01*
X131050000Y-97850000D01*
X131050000Y-97550000D01*
G37*
D10*
X145850000Y-93200000D02*
X154344019Y-93200000D01*
X154344019Y-95894019D01*
X145850000Y-95894019D01*
X145850000Y-93200000D01*
G36*
X131050000Y-106650000D02*
G01*
X132550000Y-106650000D01*
X132550000Y-106950000D01*
X131050000Y-106950000D01*
X131050000Y-106650000D01*
G37*
D11*
X146157143Y-95029400D02*
X146371429Y-95100828D01*
X146371429Y-95100828D02*
X146728571Y-95100828D01*
X146728571Y-95100828D02*
X146871429Y-95029400D01*
X146871429Y-95029400D02*
X146942857Y-94957971D01*
X146942857Y-94957971D02*
X147014286Y-94815114D01*
X147014286Y-94815114D02*
X147014286Y-94672257D01*
X147014286Y-94672257D02*
X146942857Y-94529400D01*
X146942857Y-94529400D02*
X146871429Y-94457971D01*
X146871429Y-94457971D02*
X146728571Y-94386542D01*
X146728571Y-94386542D02*
X146442857Y-94315114D01*
X146442857Y-94315114D02*
X146300000Y-94243685D01*
X146300000Y-94243685D02*
X146228571Y-94172257D01*
X146228571Y-94172257D02*
X146157143Y-94029400D01*
X146157143Y-94029400D02*
X146157143Y-93886542D01*
X146157143Y-93886542D02*
X146228571Y-93743685D01*
X146228571Y-93743685D02*
X146300000Y-93672257D01*
X146300000Y-93672257D02*
X146442857Y-93600828D01*
X146442857Y-93600828D02*
X146800000Y-93600828D01*
X146800000Y-93600828D02*
X147014286Y-93672257D01*
X147657142Y-95100828D02*
X147657142Y-93600828D01*
X147657142Y-93600828D02*
X148514285Y-95100828D01*
X148514285Y-95100828D02*
X148514285Y-93600828D01*
X149228571Y-94315114D02*
X149728571Y-94315114D01*
X149942857Y-95100828D02*
X149228571Y-95100828D01*
X149228571Y-95100828D02*
X149228571Y-93600828D01*
X149228571Y-93600828D02*
X149942857Y-93600828D01*
X151228572Y-95100828D02*
X151228572Y-93600828D01*
X151228572Y-95029400D02*
X151085714Y-95100828D01*
X151085714Y-95100828D02*
X150800000Y-95100828D01*
X150800000Y-95100828D02*
X150657143Y-95029400D01*
X150657143Y-95029400D02*
X150585714Y-94957971D01*
X150585714Y-94957971D02*
X150514286Y-94815114D01*
X150514286Y-94815114D02*
X150514286Y-94386542D01*
X150514286Y-94386542D02*
X150585714Y-94243685D01*
X150585714Y-94243685D02*
X150657143Y-94172257D01*
X150657143Y-94172257D02*
X150800000Y-94100828D01*
X150800000Y-94100828D02*
X151085714Y-94100828D01*
X151085714Y-94100828D02*
X151228572Y-94172257D01*
X152585715Y-94100828D02*
X152585715Y-95315114D01*
X152585715Y-95315114D02*
X152514286Y-95457971D01*
X152514286Y-95457971D02*
X152442857Y-95529400D01*
X152442857Y-95529400D02*
X152300000Y-95600828D01*
X152300000Y-95600828D02*
X152085715Y-95600828D01*
X152085715Y-95600828D02*
X151942857Y-95529400D01*
X152585715Y-95029400D02*
X152442857Y-95100828D01*
X152442857Y-95100828D02*
X152157143Y-95100828D01*
X152157143Y-95100828D02*
X152014286Y-95029400D01*
X152014286Y-95029400D02*
X151942857Y-94957971D01*
X151942857Y-94957971D02*
X151871429Y-94815114D01*
X151871429Y-94815114D02*
X151871429Y-94386542D01*
X151871429Y-94386542D02*
X151942857Y-94243685D01*
X151942857Y-94243685D02*
X152014286Y-94172257D01*
X152014286Y-94172257D02*
X152157143Y-94100828D01*
X152157143Y-94100828D02*
X152442857Y-94100828D01*
X152442857Y-94100828D02*
X152585715Y-94172257D01*
X153871429Y-95029400D02*
X153728572Y-95100828D01*
X153728572Y-95100828D02*
X153442858Y-95100828D01*
X153442858Y-95100828D02*
X153300000Y-95029400D01*
X153300000Y-95029400D02*
X153228572Y-94886542D01*
X153228572Y-94886542D02*
X153228572Y-94315114D01*
X153228572Y-94315114D02*
X153300000Y-94172257D01*
X153300000Y-94172257D02*
X153442858Y-94100828D01*
X153442858Y-94100828D02*
X153728572Y-94100828D01*
X153728572Y-94100828D02*
X153871429Y-94172257D01*
X153871429Y-94172257D02*
X153942858Y-94315114D01*
X153942858Y-94315114D02*
X153942858Y-94457971D01*
X153942858Y-94457971D02*
X153228572Y-94600828D01*
D12*
%TO.C,J1*%
G36*
X136150003Y-94900000D02*
G01*
X135050003Y-94900000D01*
X135050003Y-92700000D01*
X136150003Y-92700000D01*
X136150003Y-94900000D01*
G37*
G36*
X145350003Y-94900000D02*
G01*
X144250003Y-94900000D01*
X144250003Y-92700000D01*
X145350003Y-92700000D01*
X145350003Y-94900000D01*
G37*
%TD*%
D13*
%TO.C,JP2*%
X131800000Y-97050000D03*
D14*
X131800000Y-98350000D03*
%TD*%
D15*
%TO.C,C1*%
X129500000Y-107750000D03*
X129500000Y-105850000D03*
%TD*%
%TO.C,C8*%
X146400000Y-104762500D03*
X146400000Y-102862500D03*
%TD*%
D16*
%TO.C,J1*%
X141700000Y-95300000D03*
X141200001Y-95300000D03*
X140699999Y-95300000D03*
X140200000Y-95300000D03*
X139699999Y-95300000D03*
X139200000Y-95300000D03*
X138700001Y-95300000D03*
D17*
X143600000Y-93375000D03*
X136800006Y-93375000D03*
%TD*%
D18*
%TO.C,R3*%
X142300000Y-106300000D03*
X142300000Y-108125000D03*
%TD*%
D15*
%TO.C,C9*%
X146400000Y-108162500D03*
X146400000Y-106262500D03*
%TD*%
D19*
%TO.C,TP9*%
X138200003Y-97700000D03*
%TD*%
D20*
%TO.C,C5*%
X129500000Y-93250000D03*
X129500000Y-95150000D03*
%TD*%
D18*
%TO.C,R9*%
X144400000Y-99500000D03*
X144400000Y-101325000D03*
%TD*%
D21*
%TO.C,TP7*%
X123200000Y-105100000D03*
%TD*%
D15*
%TO.C,C2*%
X127500000Y-107750000D03*
X127500000Y-105850000D03*
%TD*%
D18*
%TO.C,R5*%
X140200000Y-99500000D03*
X140200000Y-101325000D03*
%TD*%
D21*
%TO.C,TP1*%
X134700000Y-108100000D03*
%TD*%
D19*
%TO.C,TP10*%
X140200003Y-97700000D03*
%TD*%
D21*
%TO.C,TP2*%
X137700000Y-108100000D03*
%TD*%
D22*
%TO.C,C7*%
X136050000Y-103500000D03*
X134150000Y-103500000D03*
%TD*%
D18*
%TO.C,R1*%
X142300000Y-102900000D03*
X142300000Y-104725000D03*
%TD*%
D20*
%TO.C,C4*%
X127500000Y-96750000D03*
X127500000Y-98650000D03*
%TD*%
D23*
%TO.C,R4*%
X144400000Y-108125000D03*
X144400000Y-106300000D03*
%TD*%
%TO.C,R8*%
X142300000Y-101325000D03*
X142300000Y-99500000D03*
%TD*%
D20*
%TO.C,C10*%
X146400000Y-99462500D03*
X146400000Y-101362500D03*
%TD*%
D19*
%TO.C,TP11*%
X142200003Y-97700000D03*
%TD*%
%TO.C,TP16*%
X136200000Y-97700000D03*
%TD*%
D21*
%TO.C,TP6*%
X123200000Y-99100000D03*
%TD*%
D24*
%TO.C,JP1*%
X131800000Y-107450000D03*
D25*
X131800000Y-106150000D03*
%TD*%
D23*
%TO.C,R2*%
X144400000Y-104725000D03*
X144400000Y-102900000D03*
%TD*%
D20*
%TO.C,C6*%
X127500000Y-93250000D03*
X127500000Y-95150000D03*
%TD*%
D21*
%TO.C,TP8*%
X123200000Y-108100000D03*
%TD*%
%TO.C,TP14*%
X148900000Y-100412500D03*
%TD*%
%TO.C,TP15*%
X148900000Y-97400000D03*
%TD*%
%TO.C,TP12*%
X148900000Y-103812500D03*
%TD*%
D13*
%TO.C,JP3*%
X131800000Y-93550000D03*
D14*
X131800000Y-94850000D03*
%TD*%
D23*
%TO.C,R7*%
X140200000Y-108125000D03*
X140200000Y-106300000D03*
%TD*%
%TO.C,R6*%
X140200000Y-104725000D03*
X140200000Y-102900000D03*
%TD*%
D26*
%TO.C,U1*%
X126637500Y-100350000D03*
X126637500Y-101000000D03*
X126637500Y-101650000D03*
X126637500Y-102300000D03*
X126637500Y-102950000D03*
X126637500Y-103600000D03*
X126637500Y-104250000D03*
X132362500Y-104250000D03*
X132362500Y-103600000D03*
X132362500Y-102950000D03*
X132362500Y-102300000D03*
X132362500Y-101650000D03*
X132362500Y-101000000D03*
X132362500Y-100350000D03*
%TD*%
D21*
%TO.C,TP13*%
X148900000Y-107212500D03*
%TD*%
%TO.C,TP3*%
X123200000Y-102100000D03*
%TD*%
%TO.C,TP5*%
X123200000Y-93100000D03*
%TD*%
D20*
%TO.C,C3*%
X129500000Y-96750000D03*
X129500000Y-98650000D03*
%TD*%
D21*
%TO.C,TP4*%
X123200000Y-96100000D03*
%TD*%
M02*
