%TF.GenerationSoftware,KiCad,Pcbnew,10.0.3*%
%TF.CreationDate,2026-06-06T21:49:40-06:00*%
%TF.ProjectId,SNEdge,534e4564-6765-42e6-9b69-6361645f7063,rev?*%
%TF.SameCoordinates,Original*%
%TF.FileFunction,Legend,Top*%
%TF.FilePolarity,Positive*%
%FSLAX46Y46*%
G04 Gerber Fmt 4.6, Leading zero omitted, Abs format (unit mm)*
G04 Created by KiCad (PCBNEW 10.0.3) date 2026-06-06 21:49:40*
%MOMM*%
%LPD*%
G01*
G04 APERTURE LIST*
%ADD10C,0.000000*%
%ADD11C,0.200000*%
%ADD12C,0.150000*%
%ADD13C,0.300000*%
%ADD14C,0.175000*%
%ADD15C,0.120000*%
%ADD16C,0.152400*%
G04 APERTURE END LIST*
D10*
G36*
X171625000Y-99015000D02*
G01*
X171625000Y-99745000D01*
X171615000Y-99755000D01*
X171605000Y-99755000D01*
X170985000Y-99135000D01*
X171345000Y-99135000D01*
X171385000Y-99095000D01*
X171385000Y-98775000D01*
X171625000Y-99015000D01*
G37*
D11*
X143268632Y-105562632D02*
X149075000Y-105562632D01*
X149075000Y-106025000D01*
X151425000Y-106025000D01*
X151425000Y-108261060D01*
X151363267Y-108322793D01*
X148447515Y-108322793D01*
X148450000Y-107875000D01*
X143275000Y-107875000D01*
X143268632Y-107868632D01*
X143268632Y-105562632D01*
D12*
X148515000Y-96745000D02*
X148855000Y-96405000D01*
X148515000Y-98325000D02*
X148515000Y-96745000D01*
X152225000Y-94775000D02*
X151925000Y-94475000D01*
X152225000Y-98275000D02*
X152225000Y-94775000D01*
X155915000Y-96585000D02*
X155685000Y-96355000D01*
X155915000Y-98225000D02*
X155915000Y-96585000D01*
D11*
X151953571Y-106262455D02*
X152353571Y-107462455D01*
X152353571Y-107462455D02*
X152753571Y-106262455D01*
X153096428Y-106376741D02*
X153153571Y-106319598D01*
X153153571Y-106319598D02*
X153267857Y-106262455D01*
X153267857Y-106262455D02*
X153553571Y-106262455D01*
X153553571Y-106262455D02*
X153667857Y-106319598D01*
X153667857Y-106319598D02*
X153724999Y-106376741D01*
X153724999Y-106376741D02*
X153782142Y-106491027D01*
X153782142Y-106491027D02*
X153782142Y-106605313D01*
X153782142Y-106605313D02*
X153724999Y-106776741D01*
X153724999Y-106776741D02*
X153039285Y-107462455D01*
X153039285Y-107462455D02*
X153782142Y-107462455D01*
D13*
X143706978Y-107354787D02*
X143906978Y-107421453D01*
X143906978Y-107421453D02*
X144240312Y-107421453D01*
X144240312Y-107421453D02*
X144373645Y-107354787D01*
X144373645Y-107354787D02*
X144440312Y-107288120D01*
X144440312Y-107288120D02*
X144506978Y-107154787D01*
X144506978Y-107154787D02*
X144506978Y-107021453D01*
X144506978Y-107021453D02*
X144440312Y-106888120D01*
X144440312Y-106888120D02*
X144373645Y-106821453D01*
X144373645Y-106821453D02*
X144240312Y-106754787D01*
X144240312Y-106754787D02*
X143973645Y-106688120D01*
X143973645Y-106688120D02*
X143840312Y-106621453D01*
X143840312Y-106621453D02*
X143773645Y-106554787D01*
X143773645Y-106554787D02*
X143706978Y-106421453D01*
X143706978Y-106421453D02*
X143706978Y-106288120D01*
X143706978Y-106288120D02*
X143773645Y-106154787D01*
X143773645Y-106154787D02*
X143840312Y-106088120D01*
X143840312Y-106088120D02*
X143973645Y-106021453D01*
X143973645Y-106021453D02*
X144306978Y-106021453D01*
X144306978Y-106021453D02*
X144506978Y-106088120D01*
X145106978Y-107421453D02*
X145106978Y-106021453D01*
X145106978Y-106021453D02*
X145906978Y-107421453D01*
X145906978Y-107421453D02*
X145906978Y-106021453D01*
X146573645Y-106688120D02*
X147040312Y-106688120D01*
X147240312Y-107421453D02*
X146573645Y-107421453D01*
X146573645Y-107421453D02*
X146573645Y-106021453D01*
X146573645Y-106021453D02*
X147240312Y-106021453D01*
X148440312Y-107421453D02*
X148440312Y-106021453D01*
X148440312Y-107354787D02*
X148306979Y-107421453D01*
X148306979Y-107421453D02*
X148040312Y-107421453D01*
X148040312Y-107421453D02*
X147906979Y-107354787D01*
X147906979Y-107354787D02*
X147840312Y-107288120D01*
X147840312Y-107288120D02*
X147773645Y-107154787D01*
X147773645Y-107154787D02*
X147773645Y-106754787D01*
X147773645Y-106754787D02*
X147840312Y-106621453D01*
X147840312Y-106621453D02*
X147906979Y-106554787D01*
X147906979Y-106554787D02*
X148040312Y-106488120D01*
X148040312Y-106488120D02*
X148306979Y-106488120D01*
X148306979Y-106488120D02*
X148440312Y-106554787D01*
X149706979Y-106488120D02*
X149706979Y-107621453D01*
X149706979Y-107621453D02*
X149640312Y-107754787D01*
X149640312Y-107754787D02*
X149573646Y-107821453D01*
X149573646Y-107821453D02*
X149440312Y-107888120D01*
X149440312Y-107888120D02*
X149240312Y-107888120D01*
X149240312Y-107888120D02*
X149106979Y-107821453D01*
X149706979Y-107354787D02*
X149573646Y-107421453D01*
X149573646Y-107421453D02*
X149306979Y-107421453D01*
X149306979Y-107421453D02*
X149173646Y-107354787D01*
X149173646Y-107354787D02*
X149106979Y-107288120D01*
X149106979Y-107288120D02*
X149040312Y-107154787D01*
X149040312Y-107154787D02*
X149040312Y-106754787D01*
X149040312Y-106754787D02*
X149106979Y-106621453D01*
X149106979Y-106621453D02*
X149173646Y-106554787D01*
X149173646Y-106554787D02*
X149306979Y-106488120D01*
X149306979Y-106488120D02*
X149573646Y-106488120D01*
X149573646Y-106488120D02*
X149706979Y-106554787D01*
X150906979Y-107354787D02*
X150773646Y-107421453D01*
X150773646Y-107421453D02*
X150506979Y-107421453D01*
X150506979Y-107421453D02*
X150373646Y-107354787D01*
X150373646Y-107354787D02*
X150306979Y-107221453D01*
X150306979Y-107221453D02*
X150306979Y-106688120D01*
X150306979Y-106688120D02*
X150373646Y-106554787D01*
X150373646Y-106554787D02*
X150506979Y-106488120D01*
X150506979Y-106488120D02*
X150773646Y-106488120D01*
X150773646Y-106488120D02*
X150906979Y-106554787D01*
X150906979Y-106554787D02*
X150973646Y-106688120D01*
X150973646Y-106688120D02*
X150973646Y-106821453D01*
X150973646Y-106821453D02*
X150306979Y-106954787D01*
D14*
X153968333Y-99239733D02*
X153735000Y-98906400D01*
X153568333Y-99239733D02*
X153568333Y-98539733D01*
X153568333Y-98539733D02*
X153835000Y-98539733D01*
X153835000Y-98539733D02*
X153901667Y-98573066D01*
X153901667Y-98573066D02*
X153935000Y-98606400D01*
X153935000Y-98606400D02*
X153968333Y-98673066D01*
X153968333Y-98673066D02*
X153968333Y-98773066D01*
X153968333Y-98773066D02*
X153935000Y-98839733D01*
X153935000Y-98839733D02*
X153901667Y-98873066D01*
X153901667Y-98873066D02*
X153835000Y-98906400D01*
X153835000Y-98906400D02*
X153568333Y-98906400D01*
X154568333Y-98773066D02*
X154568333Y-99239733D01*
X154401667Y-98506400D02*
X154235000Y-99006400D01*
X154235000Y-99006400D02*
X154668333Y-99006400D01*
X150209431Y-99325379D02*
X149976098Y-98992046D01*
X149809431Y-99325379D02*
X149809431Y-98625379D01*
X149809431Y-98625379D02*
X150076098Y-98625379D01*
X150076098Y-98625379D02*
X150142765Y-98658712D01*
X150142765Y-98658712D02*
X150176098Y-98692046D01*
X150176098Y-98692046D02*
X150209431Y-98758712D01*
X150209431Y-98758712D02*
X150209431Y-98858712D01*
X150209431Y-98858712D02*
X150176098Y-98925379D01*
X150176098Y-98925379D02*
X150142765Y-98958712D01*
X150142765Y-98958712D02*
X150076098Y-98992046D01*
X150076098Y-98992046D02*
X149809431Y-98992046D01*
X150842765Y-98625379D02*
X150509431Y-98625379D01*
X150509431Y-98625379D02*
X150476098Y-98958712D01*
X150476098Y-98958712D02*
X150509431Y-98925379D01*
X150509431Y-98925379D02*
X150576098Y-98892046D01*
X150576098Y-98892046D02*
X150742765Y-98892046D01*
X150742765Y-98892046D02*
X150809431Y-98925379D01*
X150809431Y-98925379D02*
X150842765Y-98958712D01*
X150842765Y-98958712D02*
X150876098Y-99025379D01*
X150876098Y-99025379D02*
X150876098Y-99192046D01*
X150876098Y-99192046D02*
X150842765Y-99258712D01*
X150842765Y-99258712D02*
X150809431Y-99292046D01*
X150809431Y-99292046D02*
X150742765Y-99325379D01*
X150742765Y-99325379D02*
X150576098Y-99325379D01*
X150576098Y-99325379D02*
X150509431Y-99292046D01*
X150509431Y-99292046D02*
X150476098Y-99258712D01*
D12*
X134591876Y-93367929D02*
X134358543Y-93034596D01*
X134191876Y-93367929D02*
X134191876Y-92667929D01*
X134191876Y-92667929D02*
X134458543Y-92667929D01*
X134458543Y-92667929D02*
X134525210Y-92701262D01*
X134525210Y-92701262D02*
X134558543Y-92734596D01*
X134558543Y-92734596D02*
X134591876Y-92801262D01*
X134591876Y-92801262D02*
X134591876Y-92901262D01*
X134591876Y-92901262D02*
X134558543Y-92967929D01*
X134558543Y-92967929D02*
X134525210Y-93001262D01*
X134525210Y-93001262D02*
X134458543Y-93034596D01*
X134458543Y-93034596D02*
X134191876Y-93034596D01*
X134725210Y-93434596D02*
X135258543Y-93434596D01*
X135425209Y-93367929D02*
X135425209Y-92667929D01*
X135758542Y-93367929D02*
X135758542Y-92667929D01*
X135758542Y-92667929D02*
X136158542Y-93367929D01*
X136158542Y-93367929D02*
X136158542Y-92667929D01*
D14*
X143848333Y-94773066D02*
X143815000Y-94806400D01*
X143815000Y-94806400D02*
X143715000Y-94839733D01*
X143715000Y-94839733D02*
X143648333Y-94839733D01*
X143648333Y-94839733D02*
X143548333Y-94806400D01*
X143548333Y-94806400D02*
X143481667Y-94739733D01*
X143481667Y-94739733D02*
X143448333Y-94673066D01*
X143448333Y-94673066D02*
X143415000Y-94539733D01*
X143415000Y-94539733D02*
X143415000Y-94439733D01*
X143415000Y-94439733D02*
X143448333Y-94306400D01*
X143448333Y-94306400D02*
X143481667Y-94239733D01*
X143481667Y-94239733D02*
X143548333Y-94173066D01*
X143548333Y-94173066D02*
X143648333Y-94139733D01*
X143648333Y-94139733D02*
X143715000Y-94139733D01*
X143715000Y-94139733D02*
X143815000Y-94173066D01*
X143815000Y-94173066D02*
X143848333Y-94206400D01*
X144248333Y-94439733D02*
X144181667Y-94406400D01*
X144181667Y-94406400D02*
X144148333Y-94373066D01*
X144148333Y-94373066D02*
X144115000Y-94306400D01*
X144115000Y-94306400D02*
X144115000Y-94273066D01*
X144115000Y-94273066D02*
X144148333Y-94206400D01*
X144148333Y-94206400D02*
X144181667Y-94173066D01*
X144181667Y-94173066D02*
X144248333Y-94139733D01*
X144248333Y-94139733D02*
X144381667Y-94139733D01*
X144381667Y-94139733D02*
X144448333Y-94173066D01*
X144448333Y-94173066D02*
X144481667Y-94206400D01*
X144481667Y-94206400D02*
X144515000Y-94273066D01*
X144515000Y-94273066D02*
X144515000Y-94306400D01*
X144515000Y-94306400D02*
X144481667Y-94373066D01*
X144481667Y-94373066D02*
X144448333Y-94406400D01*
X144448333Y-94406400D02*
X144381667Y-94439733D01*
X144381667Y-94439733D02*
X144248333Y-94439733D01*
X144248333Y-94439733D02*
X144181667Y-94473066D01*
X144181667Y-94473066D02*
X144148333Y-94506400D01*
X144148333Y-94506400D02*
X144115000Y-94573066D01*
X144115000Y-94573066D02*
X144115000Y-94706400D01*
X144115000Y-94706400D02*
X144148333Y-94773066D01*
X144148333Y-94773066D02*
X144181667Y-94806400D01*
X144181667Y-94806400D02*
X144248333Y-94839733D01*
X144248333Y-94839733D02*
X144381667Y-94839733D01*
X144381667Y-94839733D02*
X144448333Y-94806400D01*
X144448333Y-94806400D02*
X144481667Y-94773066D01*
X144481667Y-94773066D02*
X144515000Y-94706400D01*
X144515000Y-94706400D02*
X144515000Y-94573066D01*
X144515000Y-94573066D02*
X144481667Y-94506400D01*
X144481667Y-94506400D02*
X144448333Y-94473066D01*
X144448333Y-94473066D02*
X144381667Y-94439733D01*
D12*
X169325000Y-96087628D02*
X169296428Y-96116200D01*
X169296428Y-96116200D02*
X169210714Y-96144771D01*
X169210714Y-96144771D02*
X169153571Y-96144771D01*
X169153571Y-96144771D02*
X169067857Y-96116200D01*
X169067857Y-96116200D02*
X169010714Y-96059057D01*
X169010714Y-96059057D02*
X168982143Y-96001914D01*
X168982143Y-96001914D02*
X168953571Y-95887628D01*
X168953571Y-95887628D02*
X168953571Y-95801914D01*
X168953571Y-95801914D02*
X168982143Y-95687628D01*
X168982143Y-95687628D02*
X169010714Y-95630485D01*
X169010714Y-95630485D02*
X169067857Y-95573342D01*
X169067857Y-95573342D02*
X169153571Y-95544771D01*
X169153571Y-95544771D02*
X169210714Y-95544771D01*
X169210714Y-95544771D02*
X169296428Y-95573342D01*
X169296428Y-95573342D02*
X169325000Y-95601914D01*
X169896428Y-96144771D02*
X169553571Y-96144771D01*
X169725000Y-96144771D02*
X169725000Y-95544771D01*
X169725000Y-95544771D02*
X169667857Y-95630485D01*
X169667857Y-95630485D02*
X169610714Y-95687628D01*
X169610714Y-95687628D02*
X169553571Y-95716200D01*
D14*
X133058333Y-96935566D02*
X133025000Y-96968900D01*
X133025000Y-96968900D02*
X132925000Y-97002233D01*
X132925000Y-97002233D02*
X132858333Y-97002233D01*
X132858333Y-97002233D02*
X132758333Y-96968900D01*
X132758333Y-96968900D02*
X132691667Y-96902233D01*
X132691667Y-96902233D02*
X132658333Y-96835566D01*
X132658333Y-96835566D02*
X132625000Y-96702233D01*
X132625000Y-96702233D02*
X132625000Y-96602233D01*
X132625000Y-96602233D02*
X132658333Y-96468900D01*
X132658333Y-96468900D02*
X132691667Y-96402233D01*
X132691667Y-96402233D02*
X132758333Y-96335566D01*
X132758333Y-96335566D02*
X132858333Y-96302233D01*
X132858333Y-96302233D02*
X132925000Y-96302233D01*
X132925000Y-96302233D02*
X133025000Y-96335566D01*
X133025000Y-96335566D02*
X133058333Y-96368900D01*
X133291667Y-96302233D02*
X133725000Y-96302233D01*
X133725000Y-96302233D02*
X133491667Y-96568900D01*
X133491667Y-96568900D02*
X133591667Y-96568900D01*
X133591667Y-96568900D02*
X133658333Y-96602233D01*
X133658333Y-96602233D02*
X133691667Y-96635566D01*
X133691667Y-96635566D02*
X133725000Y-96702233D01*
X133725000Y-96702233D02*
X133725000Y-96868900D01*
X133725000Y-96868900D02*
X133691667Y-96935566D01*
X133691667Y-96935566D02*
X133658333Y-96968900D01*
X133658333Y-96968900D02*
X133591667Y-97002233D01*
X133591667Y-97002233D02*
X133391667Y-97002233D01*
X133391667Y-97002233D02*
X133325000Y-96968900D01*
X133325000Y-96968900D02*
X133291667Y-96935566D01*
D12*
X137258333Y-95441033D02*
X137025000Y-95107700D01*
X136858333Y-95441033D02*
X136858333Y-94741033D01*
X136858333Y-94741033D02*
X137125000Y-94741033D01*
X137125000Y-94741033D02*
X137191667Y-94774366D01*
X137191667Y-94774366D02*
X137225000Y-94807700D01*
X137225000Y-94807700D02*
X137258333Y-94874366D01*
X137258333Y-94874366D02*
X137258333Y-94974366D01*
X137258333Y-94974366D02*
X137225000Y-95041033D01*
X137225000Y-95041033D02*
X137191667Y-95074366D01*
X137191667Y-95074366D02*
X137125000Y-95107700D01*
X137125000Y-95107700D02*
X136858333Y-95107700D01*
X137525000Y-94807700D02*
X137558333Y-94774366D01*
X137558333Y-94774366D02*
X137625000Y-94741033D01*
X137625000Y-94741033D02*
X137791667Y-94741033D01*
X137791667Y-94741033D02*
X137858333Y-94774366D01*
X137858333Y-94774366D02*
X137891667Y-94807700D01*
X137891667Y-94807700D02*
X137925000Y-94874366D01*
X137925000Y-94874366D02*
X137925000Y-94941033D01*
X137925000Y-94941033D02*
X137891667Y-95041033D01*
X137891667Y-95041033D02*
X137491667Y-95441033D01*
X137491667Y-95441033D02*
X137925000Y-95441033D01*
D14*
X133708333Y-105723066D02*
X133675000Y-105756400D01*
X133675000Y-105756400D02*
X133575000Y-105789733D01*
X133575000Y-105789733D02*
X133508333Y-105789733D01*
X133508333Y-105789733D02*
X133408333Y-105756400D01*
X133408333Y-105756400D02*
X133341667Y-105689733D01*
X133341667Y-105689733D02*
X133308333Y-105623066D01*
X133308333Y-105623066D02*
X133275000Y-105489733D01*
X133275000Y-105489733D02*
X133275000Y-105389733D01*
X133275000Y-105389733D02*
X133308333Y-105256400D01*
X133308333Y-105256400D02*
X133341667Y-105189733D01*
X133341667Y-105189733D02*
X133408333Y-105123066D01*
X133408333Y-105123066D02*
X133508333Y-105089733D01*
X133508333Y-105089733D02*
X133575000Y-105089733D01*
X133575000Y-105089733D02*
X133675000Y-105123066D01*
X133675000Y-105123066D02*
X133708333Y-105156400D01*
X133975000Y-105156400D02*
X134008333Y-105123066D01*
X134008333Y-105123066D02*
X134075000Y-105089733D01*
X134075000Y-105089733D02*
X134241667Y-105089733D01*
X134241667Y-105089733D02*
X134308333Y-105123066D01*
X134308333Y-105123066D02*
X134341667Y-105156400D01*
X134341667Y-105156400D02*
X134375000Y-105223066D01*
X134375000Y-105223066D02*
X134375000Y-105289733D01*
X134375000Y-105289733D02*
X134341667Y-105389733D01*
X134341667Y-105389733D02*
X133941667Y-105789733D01*
X133941667Y-105789733D02*
X134375000Y-105789733D01*
D12*
X138825210Y-93001262D02*
X138925210Y-93034596D01*
X138925210Y-93034596D02*
X138958543Y-93067929D01*
X138958543Y-93067929D02*
X138991876Y-93134596D01*
X138991876Y-93134596D02*
X138991876Y-93234596D01*
X138991876Y-93234596D02*
X138958543Y-93301262D01*
X138958543Y-93301262D02*
X138925210Y-93334596D01*
X138925210Y-93334596D02*
X138858543Y-93367929D01*
X138858543Y-93367929D02*
X138591876Y-93367929D01*
X138591876Y-93367929D02*
X138591876Y-92667929D01*
X138591876Y-92667929D02*
X138825210Y-92667929D01*
X138825210Y-92667929D02*
X138891876Y-92701262D01*
X138891876Y-92701262D02*
X138925210Y-92734596D01*
X138925210Y-92734596D02*
X138958543Y-92801262D01*
X138958543Y-92801262D02*
X138958543Y-92867929D01*
X138958543Y-92867929D02*
X138925210Y-92934596D01*
X138925210Y-92934596D02*
X138891876Y-92967929D01*
X138891876Y-92967929D02*
X138825210Y-93001262D01*
X138825210Y-93001262D02*
X138591876Y-93001262D01*
X139125210Y-93434596D02*
X139658543Y-93434596D01*
X139825209Y-93367929D02*
X139825209Y-92667929D01*
X140158542Y-93367929D02*
X140158542Y-92667929D01*
X140158542Y-92667929D02*
X140558542Y-93367929D01*
X140558542Y-93367929D02*
X140558542Y-92667929D01*
X132858333Y-95441033D02*
X132625000Y-95107700D01*
X132458333Y-95441033D02*
X132458333Y-94741033D01*
X132458333Y-94741033D02*
X132725000Y-94741033D01*
X132725000Y-94741033D02*
X132791667Y-94774366D01*
X132791667Y-94774366D02*
X132825000Y-94807700D01*
X132825000Y-94807700D02*
X132858333Y-94874366D01*
X132858333Y-94874366D02*
X132858333Y-94974366D01*
X132858333Y-94974366D02*
X132825000Y-95041033D01*
X132825000Y-95041033D02*
X132791667Y-95074366D01*
X132791667Y-95074366D02*
X132725000Y-95107700D01*
X132725000Y-95107700D02*
X132458333Y-95107700D01*
X133525000Y-95441033D02*
X133125000Y-95441033D01*
X133325000Y-95441033D02*
X133325000Y-94741033D01*
X133325000Y-94741033D02*
X133258333Y-94841033D01*
X133258333Y-94841033D02*
X133191667Y-94907700D01*
X133191667Y-94907700D02*
X133125000Y-94941033D01*
X169451666Y-98291033D02*
X169685000Y-98991033D01*
X169685000Y-98991033D02*
X169918333Y-98291033D01*
X170551666Y-98924366D02*
X170518333Y-98957700D01*
X170518333Y-98957700D02*
X170418333Y-98991033D01*
X170418333Y-98991033D02*
X170351666Y-98991033D01*
X170351666Y-98991033D02*
X170251666Y-98957700D01*
X170251666Y-98957700D02*
X170185000Y-98891033D01*
X170185000Y-98891033D02*
X170151666Y-98824366D01*
X170151666Y-98824366D02*
X170118333Y-98691033D01*
X170118333Y-98691033D02*
X170118333Y-98591033D01*
X170118333Y-98591033D02*
X170151666Y-98457700D01*
X170151666Y-98457700D02*
X170185000Y-98391033D01*
X170185000Y-98391033D02*
X170251666Y-98324366D01*
X170251666Y-98324366D02*
X170351666Y-98291033D01*
X170351666Y-98291033D02*
X170418333Y-98291033D01*
X170418333Y-98291033D02*
X170518333Y-98324366D01*
X170518333Y-98324366D02*
X170551666Y-98357700D01*
X171251666Y-98924366D02*
X171218333Y-98957700D01*
X171218333Y-98957700D02*
X171118333Y-98991033D01*
X171118333Y-98991033D02*
X171051666Y-98991033D01*
X171051666Y-98991033D02*
X170951666Y-98957700D01*
X170951666Y-98957700D02*
X170885000Y-98891033D01*
X170885000Y-98891033D02*
X170851666Y-98824366D01*
X170851666Y-98824366D02*
X170818333Y-98691033D01*
X170818333Y-98691033D02*
X170818333Y-98591033D01*
X170818333Y-98591033D02*
X170851666Y-98457700D01*
X170851666Y-98457700D02*
X170885000Y-98391033D01*
X170885000Y-98391033D02*
X170951666Y-98324366D01*
X170951666Y-98324366D02*
X171051666Y-98291033D01*
X171051666Y-98291033D02*
X171118333Y-98291033D01*
X171118333Y-98291033D02*
X171218333Y-98324366D01*
X171218333Y-98324366D02*
X171251666Y-98357700D01*
X171966667Y-95749366D02*
X171900000Y-95716033D01*
X171900000Y-95716033D02*
X171800000Y-95716033D01*
X171800000Y-95716033D02*
X171700000Y-95749366D01*
X171700000Y-95749366D02*
X171633334Y-95816033D01*
X171633334Y-95816033D02*
X171600000Y-95882700D01*
X171600000Y-95882700D02*
X171566667Y-96016033D01*
X171566667Y-96016033D02*
X171566667Y-96116033D01*
X171566667Y-96116033D02*
X171600000Y-96249366D01*
X171600000Y-96249366D02*
X171633334Y-96316033D01*
X171633334Y-96316033D02*
X171700000Y-96382700D01*
X171700000Y-96382700D02*
X171800000Y-96416033D01*
X171800000Y-96416033D02*
X171866667Y-96416033D01*
X171866667Y-96416033D02*
X171966667Y-96382700D01*
X171966667Y-96382700D02*
X172000000Y-96349366D01*
X172000000Y-96349366D02*
X172000000Y-96116033D01*
X172000000Y-96116033D02*
X171866667Y-96116033D01*
X172300000Y-96416033D02*
X172300000Y-95716033D01*
X172300000Y-95716033D02*
X172700000Y-96416033D01*
X172700000Y-96416033D02*
X172700000Y-95716033D01*
X173033333Y-96416033D02*
X173033333Y-95716033D01*
X173033333Y-95716033D02*
X173200000Y-95716033D01*
X173200000Y-95716033D02*
X173300000Y-95749366D01*
X173300000Y-95749366D02*
X173366667Y-95816033D01*
X173366667Y-95816033D02*
X173400000Y-95882700D01*
X173400000Y-95882700D02*
X173433333Y-96016033D01*
X173433333Y-96016033D02*
X173433333Y-96116033D01*
X173433333Y-96116033D02*
X173400000Y-96249366D01*
X173400000Y-96249366D02*
X173366667Y-96316033D01*
X173366667Y-96316033D02*
X173300000Y-96382700D01*
X173300000Y-96382700D02*
X173200000Y-96416033D01*
X173200000Y-96416033D02*
X173033333Y-96416033D01*
X151717659Y-92070037D02*
X151750993Y-91970037D01*
X151750993Y-91970037D02*
X151784326Y-91936703D01*
X151784326Y-91936703D02*
X151850993Y-91903370D01*
X151850993Y-91903370D02*
X151950993Y-91903370D01*
X151950993Y-91903370D02*
X152017659Y-91936703D01*
X152017659Y-91936703D02*
X152050993Y-91970037D01*
X152050993Y-91970037D02*
X152084326Y-92036703D01*
X152084326Y-92036703D02*
X152084326Y-92303370D01*
X152084326Y-92303370D02*
X151384326Y-92303370D01*
X151384326Y-92303370D02*
X151384326Y-92070037D01*
X151384326Y-92070037D02*
X151417659Y-92003370D01*
X151417659Y-92003370D02*
X151450993Y-91970037D01*
X151450993Y-91970037D02*
X151517659Y-91936703D01*
X151517659Y-91936703D02*
X151584326Y-91936703D01*
X151584326Y-91936703D02*
X151650993Y-91970037D01*
X151650993Y-91970037D02*
X151684326Y-92003370D01*
X151684326Y-92003370D02*
X151717659Y-92070037D01*
X151717659Y-92070037D02*
X151717659Y-92303370D01*
X152150993Y-91770037D02*
X152150993Y-91236703D01*
X151717659Y-91070037D02*
X151717659Y-90836704D01*
X152084326Y-90736704D02*
X152084326Y-91070037D01*
X152084326Y-91070037D02*
X151384326Y-91070037D01*
X151384326Y-91070037D02*
X151384326Y-90736704D01*
D14*
X142958333Y-101913066D02*
X142925000Y-101946400D01*
X142925000Y-101946400D02*
X142825000Y-101979733D01*
X142825000Y-101979733D02*
X142758333Y-101979733D01*
X142758333Y-101979733D02*
X142658333Y-101946400D01*
X142658333Y-101946400D02*
X142591667Y-101879733D01*
X142591667Y-101879733D02*
X142558333Y-101813066D01*
X142558333Y-101813066D02*
X142525000Y-101679733D01*
X142525000Y-101679733D02*
X142525000Y-101579733D01*
X142525000Y-101579733D02*
X142558333Y-101446400D01*
X142558333Y-101446400D02*
X142591667Y-101379733D01*
X142591667Y-101379733D02*
X142658333Y-101313066D01*
X142658333Y-101313066D02*
X142758333Y-101279733D01*
X142758333Y-101279733D02*
X142825000Y-101279733D01*
X142825000Y-101279733D02*
X142925000Y-101313066D01*
X142925000Y-101313066D02*
X142958333Y-101346400D01*
X143591667Y-101279733D02*
X143258333Y-101279733D01*
X143258333Y-101279733D02*
X143225000Y-101613066D01*
X143225000Y-101613066D02*
X143258333Y-101579733D01*
X143258333Y-101579733D02*
X143325000Y-101546400D01*
X143325000Y-101546400D02*
X143491667Y-101546400D01*
X143491667Y-101546400D02*
X143558333Y-101579733D01*
X143558333Y-101579733D02*
X143591667Y-101613066D01*
X143591667Y-101613066D02*
X143625000Y-101679733D01*
X143625000Y-101679733D02*
X143625000Y-101846400D01*
X143625000Y-101846400D02*
X143591667Y-101913066D01*
X143591667Y-101913066D02*
X143558333Y-101946400D01*
X143558333Y-101946400D02*
X143491667Y-101979733D01*
X143491667Y-101979733D02*
X143325000Y-101979733D01*
X143325000Y-101979733D02*
X143258333Y-101946400D01*
X143258333Y-101946400D02*
X143225000Y-101913066D01*
D12*
X155889009Y-91958751D02*
X155555676Y-92192084D01*
X155889009Y-92358751D02*
X155189009Y-92358751D01*
X155189009Y-92358751D02*
X155189009Y-92092084D01*
X155189009Y-92092084D02*
X155222342Y-92025418D01*
X155222342Y-92025418D02*
X155255676Y-91992084D01*
X155255676Y-91992084D02*
X155322342Y-91958751D01*
X155322342Y-91958751D02*
X155422342Y-91958751D01*
X155422342Y-91958751D02*
X155489009Y-91992084D01*
X155489009Y-91992084D02*
X155522342Y-92025418D01*
X155522342Y-92025418D02*
X155555676Y-92092084D01*
X155555676Y-92092084D02*
X155555676Y-92358751D01*
X155955676Y-91825418D02*
X155955676Y-91292084D01*
X155522342Y-91125418D02*
X155522342Y-90892085D01*
X155889009Y-90792085D02*
X155889009Y-91125418D01*
X155889009Y-91125418D02*
X155189009Y-91125418D01*
X155189009Y-91125418D02*
X155189009Y-90792085D01*
D14*
X155568333Y-99269733D02*
X155335000Y-98936400D01*
X155168333Y-99269733D02*
X155168333Y-98569733D01*
X155168333Y-98569733D02*
X155435000Y-98569733D01*
X155435000Y-98569733D02*
X155501667Y-98603066D01*
X155501667Y-98603066D02*
X155535000Y-98636400D01*
X155535000Y-98636400D02*
X155568333Y-98703066D01*
X155568333Y-98703066D02*
X155568333Y-98803066D01*
X155568333Y-98803066D02*
X155535000Y-98869733D01*
X155535000Y-98869733D02*
X155501667Y-98903066D01*
X155501667Y-98903066D02*
X155435000Y-98936400D01*
X155435000Y-98936400D02*
X155168333Y-98936400D01*
X155801667Y-98569733D02*
X156268333Y-98569733D01*
X156268333Y-98569733D02*
X155968333Y-99269733D01*
X160641666Y-100279733D02*
X160641666Y-100779733D01*
X160641666Y-100779733D02*
X160608333Y-100879733D01*
X160608333Y-100879733D02*
X160541666Y-100946400D01*
X160541666Y-100946400D02*
X160441666Y-100979733D01*
X160441666Y-100979733D02*
X160375000Y-100979733D01*
X161341666Y-100979733D02*
X160941666Y-100979733D01*
X161141666Y-100979733D02*
X161141666Y-100279733D01*
X161141666Y-100279733D02*
X161074999Y-100379733D01*
X161074999Y-100379733D02*
X161008333Y-100446400D01*
X161008333Y-100446400D02*
X160941666Y-100479733D01*
X147024999Y-101014733D02*
X146791666Y-100681400D01*
X146624999Y-101014733D02*
X146624999Y-100314733D01*
X146624999Y-100314733D02*
X146891666Y-100314733D01*
X146891666Y-100314733D02*
X146958333Y-100348066D01*
X146958333Y-100348066D02*
X146991666Y-100381400D01*
X146991666Y-100381400D02*
X147024999Y-100448066D01*
X147024999Y-100448066D02*
X147024999Y-100548066D01*
X147024999Y-100548066D02*
X146991666Y-100614733D01*
X146991666Y-100614733D02*
X146958333Y-100648066D01*
X146958333Y-100648066D02*
X146891666Y-100681400D01*
X146891666Y-100681400D02*
X146624999Y-100681400D01*
X147691666Y-101014733D02*
X147291666Y-101014733D01*
X147491666Y-101014733D02*
X147491666Y-100314733D01*
X147491666Y-100314733D02*
X147424999Y-100414733D01*
X147424999Y-100414733D02*
X147358333Y-100481400D01*
X147358333Y-100481400D02*
X147291666Y-100514733D01*
X148358333Y-101014733D02*
X147958333Y-101014733D01*
X148158333Y-101014733D02*
X148158333Y-100314733D01*
X148158333Y-100314733D02*
X148091666Y-100414733D01*
X148091666Y-100414733D02*
X148025000Y-100481400D01*
X148025000Y-100481400D02*
X147958333Y-100514733D01*
X137574999Y-104889733D02*
X137341666Y-104556400D01*
X137174999Y-104889733D02*
X137174999Y-104189733D01*
X137174999Y-104189733D02*
X137441666Y-104189733D01*
X137441666Y-104189733D02*
X137508333Y-104223066D01*
X137508333Y-104223066D02*
X137541666Y-104256400D01*
X137541666Y-104256400D02*
X137574999Y-104323066D01*
X137574999Y-104323066D02*
X137574999Y-104423066D01*
X137574999Y-104423066D02*
X137541666Y-104489733D01*
X137541666Y-104489733D02*
X137508333Y-104523066D01*
X137508333Y-104523066D02*
X137441666Y-104556400D01*
X137441666Y-104556400D02*
X137174999Y-104556400D01*
X138241666Y-104889733D02*
X137841666Y-104889733D01*
X138041666Y-104889733D02*
X138041666Y-104189733D01*
X138041666Y-104189733D02*
X137974999Y-104289733D01*
X137974999Y-104289733D02*
X137908333Y-104356400D01*
X137908333Y-104356400D02*
X137841666Y-104389733D01*
X138675000Y-104189733D02*
X138741666Y-104189733D01*
X138741666Y-104189733D02*
X138808333Y-104223066D01*
X138808333Y-104223066D02*
X138841666Y-104256400D01*
X138841666Y-104256400D02*
X138875000Y-104323066D01*
X138875000Y-104323066D02*
X138908333Y-104456400D01*
X138908333Y-104456400D02*
X138908333Y-104623066D01*
X138908333Y-104623066D02*
X138875000Y-104756400D01*
X138875000Y-104756400D02*
X138841666Y-104823066D01*
X138841666Y-104823066D02*
X138808333Y-104856400D01*
X138808333Y-104856400D02*
X138741666Y-104889733D01*
X138741666Y-104889733D02*
X138675000Y-104889733D01*
X138675000Y-104889733D02*
X138608333Y-104856400D01*
X138608333Y-104856400D02*
X138575000Y-104823066D01*
X138575000Y-104823066D02*
X138541666Y-104756400D01*
X138541666Y-104756400D02*
X138508333Y-104623066D01*
X138508333Y-104623066D02*
X138508333Y-104456400D01*
X138508333Y-104456400D02*
X138541666Y-104323066D01*
X138541666Y-104323066D02*
X138575000Y-104256400D01*
X138575000Y-104256400D02*
X138608333Y-104223066D01*
X138608333Y-104223066D02*
X138675000Y-104189733D01*
X146008333Y-99289733D02*
X145775000Y-98956400D01*
X145608333Y-99289733D02*
X145608333Y-98589733D01*
X145608333Y-98589733D02*
X145875000Y-98589733D01*
X145875000Y-98589733D02*
X145941667Y-98623066D01*
X145941667Y-98623066D02*
X145975000Y-98656400D01*
X145975000Y-98656400D02*
X146008333Y-98723066D01*
X146008333Y-98723066D02*
X146008333Y-98823066D01*
X146008333Y-98823066D02*
X145975000Y-98889733D01*
X145975000Y-98889733D02*
X145941667Y-98923066D01*
X145941667Y-98923066D02*
X145875000Y-98956400D01*
X145875000Y-98956400D02*
X145608333Y-98956400D01*
X146608333Y-98589733D02*
X146475000Y-98589733D01*
X146475000Y-98589733D02*
X146408333Y-98623066D01*
X146408333Y-98623066D02*
X146375000Y-98656400D01*
X146375000Y-98656400D02*
X146308333Y-98756400D01*
X146308333Y-98756400D02*
X146275000Y-98889733D01*
X146275000Y-98889733D02*
X146275000Y-99156400D01*
X146275000Y-99156400D02*
X146308333Y-99223066D01*
X146308333Y-99223066D02*
X146341667Y-99256400D01*
X146341667Y-99256400D02*
X146408333Y-99289733D01*
X146408333Y-99289733D02*
X146541667Y-99289733D01*
X146541667Y-99289733D02*
X146608333Y-99256400D01*
X146608333Y-99256400D02*
X146641667Y-99223066D01*
X146641667Y-99223066D02*
X146675000Y-99156400D01*
X146675000Y-99156400D02*
X146675000Y-98989733D01*
X146675000Y-98989733D02*
X146641667Y-98923066D01*
X146641667Y-98923066D02*
X146608333Y-98889733D01*
X146608333Y-98889733D02*
X146541667Y-98856400D01*
X146541667Y-98856400D02*
X146408333Y-98856400D01*
X146408333Y-98856400D02*
X146341667Y-98889733D01*
X146341667Y-98889733D02*
X146308333Y-98923066D01*
X146308333Y-98923066D02*
X146275000Y-98989733D01*
D12*
X143072253Y-92721200D02*
X143005586Y-92687867D01*
X143005586Y-92687867D02*
X142905586Y-92687867D01*
X142905586Y-92687867D02*
X142805586Y-92721200D01*
X142805586Y-92721200D02*
X142738920Y-92787867D01*
X142738920Y-92787867D02*
X142705586Y-92854534D01*
X142705586Y-92854534D02*
X142672253Y-92987867D01*
X142672253Y-92987867D02*
X142672253Y-93087867D01*
X142672253Y-93087867D02*
X142705586Y-93221200D01*
X142705586Y-93221200D02*
X142738920Y-93287867D01*
X142738920Y-93287867D02*
X142805586Y-93354534D01*
X142805586Y-93354534D02*
X142905586Y-93387867D01*
X142905586Y-93387867D02*
X142972253Y-93387867D01*
X142972253Y-93387867D02*
X143072253Y-93354534D01*
X143072253Y-93354534D02*
X143105586Y-93321200D01*
X143105586Y-93321200D02*
X143105586Y-93087867D01*
X143105586Y-93087867D02*
X142972253Y-93087867D01*
X143238920Y-93454534D02*
X143772253Y-93454534D01*
X143938919Y-93387867D02*
X143938919Y-92687867D01*
X144272252Y-93387867D02*
X144272252Y-92687867D01*
X144272252Y-92687867D02*
X144672252Y-93387867D01*
X144672252Y-93387867D02*
X144672252Y-92687867D01*
D14*
X141024999Y-104269504D02*
X140791666Y-103936171D01*
X140624999Y-104269504D02*
X140624999Y-103569504D01*
X140624999Y-103569504D02*
X140891666Y-103569504D01*
X140891666Y-103569504D02*
X140958333Y-103602837D01*
X140958333Y-103602837D02*
X140991666Y-103636171D01*
X140991666Y-103636171D02*
X141024999Y-103702837D01*
X141024999Y-103702837D02*
X141024999Y-103802837D01*
X141024999Y-103802837D02*
X140991666Y-103869504D01*
X140991666Y-103869504D02*
X140958333Y-103902837D01*
X140958333Y-103902837D02*
X140891666Y-103936171D01*
X140891666Y-103936171D02*
X140624999Y-103936171D01*
X141691666Y-104269504D02*
X141291666Y-104269504D01*
X141491666Y-104269504D02*
X141491666Y-103569504D01*
X141491666Y-103569504D02*
X141424999Y-103669504D01*
X141424999Y-103669504D02*
X141358333Y-103736171D01*
X141358333Y-103736171D02*
X141291666Y-103769504D01*
X142325000Y-103569504D02*
X141991666Y-103569504D01*
X141991666Y-103569504D02*
X141958333Y-103902837D01*
X141958333Y-103902837D02*
X141991666Y-103869504D01*
X141991666Y-103869504D02*
X142058333Y-103836171D01*
X142058333Y-103836171D02*
X142225000Y-103836171D01*
X142225000Y-103836171D02*
X142291666Y-103869504D01*
X142291666Y-103869504D02*
X142325000Y-103902837D01*
X142325000Y-103902837D02*
X142358333Y-103969504D01*
X142358333Y-103969504D02*
X142358333Y-104136171D01*
X142358333Y-104136171D02*
X142325000Y-104202837D01*
X142325000Y-104202837D02*
X142291666Y-104236171D01*
X142291666Y-104236171D02*
X142225000Y-104269504D01*
X142225000Y-104269504D02*
X142058333Y-104269504D01*
X142058333Y-104269504D02*
X141991666Y-104236171D01*
X141991666Y-104236171D02*
X141958333Y-104202837D01*
X144008333Y-96389733D02*
X143775000Y-96056400D01*
X143608333Y-96389733D02*
X143608333Y-95689733D01*
X143608333Y-95689733D02*
X143875000Y-95689733D01*
X143875000Y-95689733D02*
X143941667Y-95723066D01*
X143941667Y-95723066D02*
X143975000Y-95756400D01*
X143975000Y-95756400D02*
X144008333Y-95823066D01*
X144008333Y-95823066D02*
X144008333Y-95923066D01*
X144008333Y-95923066D02*
X143975000Y-95989733D01*
X143975000Y-95989733D02*
X143941667Y-96023066D01*
X143941667Y-96023066D02*
X143875000Y-96056400D01*
X143875000Y-96056400D02*
X143608333Y-96056400D01*
X144341667Y-96389733D02*
X144475000Y-96389733D01*
X144475000Y-96389733D02*
X144541667Y-96356400D01*
X144541667Y-96356400D02*
X144575000Y-96323066D01*
X144575000Y-96323066D02*
X144641667Y-96223066D01*
X144641667Y-96223066D02*
X144675000Y-96089733D01*
X144675000Y-96089733D02*
X144675000Y-95823066D01*
X144675000Y-95823066D02*
X144641667Y-95756400D01*
X144641667Y-95756400D02*
X144608333Y-95723066D01*
X144608333Y-95723066D02*
X144541667Y-95689733D01*
X144541667Y-95689733D02*
X144408333Y-95689733D01*
X144408333Y-95689733D02*
X144341667Y-95723066D01*
X144341667Y-95723066D02*
X144308333Y-95756400D01*
X144308333Y-95756400D02*
X144275000Y-95823066D01*
X144275000Y-95823066D02*
X144275000Y-95989733D01*
X144275000Y-95989733D02*
X144308333Y-96056400D01*
X144308333Y-96056400D02*
X144341667Y-96089733D01*
X144341667Y-96089733D02*
X144408333Y-96123066D01*
X144408333Y-96123066D02*
X144541667Y-96123066D01*
X144541667Y-96123066D02*
X144608333Y-96089733D01*
X144608333Y-96089733D02*
X144641667Y-96056400D01*
X144641667Y-96056400D02*
X144675000Y-95989733D01*
D12*
X141658333Y-95441033D02*
X141425000Y-95107700D01*
X141258333Y-95441033D02*
X141258333Y-94741033D01*
X141258333Y-94741033D02*
X141525000Y-94741033D01*
X141525000Y-94741033D02*
X141591667Y-94774366D01*
X141591667Y-94774366D02*
X141625000Y-94807700D01*
X141625000Y-94807700D02*
X141658333Y-94874366D01*
X141658333Y-94874366D02*
X141658333Y-94974366D01*
X141658333Y-94974366D02*
X141625000Y-95041033D01*
X141625000Y-95041033D02*
X141591667Y-95074366D01*
X141591667Y-95074366D02*
X141525000Y-95107700D01*
X141525000Y-95107700D02*
X141258333Y-95107700D01*
X141891667Y-94741033D02*
X142325000Y-94741033D01*
X142325000Y-94741033D02*
X142091667Y-95007700D01*
X142091667Y-95007700D02*
X142191667Y-95007700D01*
X142191667Y-95007700D02*
X142258333Y-95041033D01*
X142258333Y-95041033D02*
X142291667Y-95074366D01*
X142291667Y-95074366D02*
X142325000Y-95141033D01*
X142325000Y-95141033D02*
X142325000Y-95307700D01*
X142325000Y-95307700D02*
X142291667Y-95374366D01*
X142291667Y-95374366D02*
X142258333Y-95407700D01*
X142258333Y-95407700D02*
X142191667Y-95441033D01*
X142191667Y-95441033D02*
X141991667Y-95441033D01*
X141991667Y-95441033D02*
X141925000Y-95407700D01*
X141925000Y-95407700D02*
X141891667Y-95374366D01*
D14*
X152068333Y-99173066D02*
X152035000Y-99206400D01*
X152035000Y-99206400D02*
X151935000Y-99239733D01*
X151935000Y-99239733D02*
X151868333Y-99239733D01*
X151868333Y-99239733D02*
X151768333Y-99206400D01*
X151768333Y-99206400D02*
X151701667Y-99139733D01*
X151701667Y-99139733D02*
X151668333Y-99073066D01*
X151668333Y-99073066D02*
X151635000Y-98939733D01*
X151635000Y-98939733D02*
X151635000Y-98839733D01*
X151635000Y-98839733D02*
X151668333Y-98706400D01*
X151668333Y-98706400D02*
X151701667Y-98639733D01*
X151701667Y-98639733D02*
X151768333Y-98573066D01*
X151768333Y-98573066D02*
X151868333Y-98539733D01*
X151868333Y-98539733D02*
X151935000Y-98539733D01*
X151935000Y-98539733D02*
X152035000Y-98573066D01*
X152035000Y-98573066D02*
X152068333Y-98606400D01*
X152301667Y-98539733D02*
X152768333Y-98539733D01*
X152768333Y-98539733D02*
X152468333Y-99239733D01*
X152424999Y-104987624D02*
X152191666Y-104654291D01*
X152024999Y-104987624D02*
X152024999Y-104287624D01*
X152024999Y-104287624D02*
X152291666Y-104287624D01*
X152291666Y-104287624D02*
X152358333Y-104320957D01*
X152358333Y-104320957D02*
X152391666Y-104354291D01*
X152391666Y-104354291D02*
X152424999Y-104420957D01*
X152424999Y-104420957D02*
X152424999Y-104520957D01*
X152424999Y-104520957D02*
X152391666Y-104587624D01*
X152391666Y-104587624D02*
X152358333Y-104620957D01*
X152358333Y-104620957D02*
X152291666Y-104654291D01*
X152291666Y-104654291D02*
X152024999Y-104654291D01*
X153091666Y-104987624D02*
X152691666Y-104987624D01*
X152891666Y-104987624D02*
X152891666Y-104287624D01*
X152891666Y-104287624D02*
X152824999Y-104387624D01*
X152824999Y-104387624D02*
X152758333Y-104454291D01*
X152758333Y-104454291D02*
X152691666Y-104487624D01*
X153325000Y-104287624D02*
X153758333Y-104287624D01*
X153758333Y-104287624D02*
X153525000Y-104554291D01*
X153525000Y-104554291D02*
X153625000Y-104554291D01*
X153625000Y-104554291D02*
X153691666Y-104587624D01*
X153691666Y-104587624D02*
X153725000Y-104620957D01*
X153725000Y-104620957D02*
X153758333Y-104687624D01*
X153758333Y-104687624D02*
X153758333Y-104854291D01*
X153758333Y-104854291D02*
X153725000Y-104920957D01*
X153725000Y-104920957D02*
X153691666Y-104954291D01*
X153691666Y-104954291D02*
X153625000Y-104987624D01*
X153625000Y-104987624D02*
X153425000Y-104987624D01*
X153425000Y-104987624D02*
X153358333Y-104954291D01*
X153358333Y-104954291D02*
X153325000Y-104920957D01*
D12*
X147601899Y-91936703D02*
X147568566Y-92003370D01*
X147568566Y-92003370D02*
X147568566Y-92103370D01*
X147568566Y-92103370D02*
X147601899Y-92203370D01*
X147601899Y-92203370D02*
X147668566Y-92270037D01*
X147668566Y-92270037D02*
X147735233Y-92303370D01*
X147735233Y-92303370D02*
X147868566Y-92336703D01*
X147868566Y-92336703D02*
X147968566Y-92336703D01*
X147968566Y-92336703D02*
X148101899Y-92303370D01*
X148101899Y-92303370D02*
X148168566Y-92270037D01*
X148168566Y-92270037D02*
X148235233Y-92203370D01*
X148235233Y-92203370D02*
X148268566Y-92103370D01*
X148268566Y-92103370D02*
X148268566Y-92036703D01*
X148268566Y-92036703D02*
X148235233Y-91936703D01*
X148235233Y-91936703D02*
X148201899Y-91903370D01*
X148201899Y-91903370D02*
X147968566Y-91903370D01*
X147968566Y-91903370D02*
X147968566Y-92036703D01*
X148335233Y-91770037D02*
X148335233Y-91236703D01*
X147901899Y-91070037D02*
X147901899Y-90836704D01*
X148268566Y-90736704D02*
X148268566Y-91070037D01*
X148268566Y-91070037D02*
X147568566Y-91070037D01*
X147568566Y-91070037D02*
X147568566Y-90736704D01*
X166637922Y-100612681D02*
X167352207Y-100612681D01*
X167352207Y-100612681D02*
X167495064Y-100660300D01*
X167495064Y-100660300D02*
X167590303Y-100755538D01*
X167590303Y-100755538D02*
X167637922Y-100898395D01*
X167637922Y-100898395D02*
X167637922Y-100993633D01*
X167637922Y-100136490D02*
X166637922Y-100136490D01*
X166637922Y-100136490D02*
X166637922Y-99755538D01*
X166637922Y-99755538D02*
X166685541Y-99660300D01*
X166685541Y-99660300D02*
X166733160Y-99612681D01*
X166733160Y-99612681D02*
X166828398Y-99565062D01*
X166828398Y-99565062D02*
X166971255Y-99565062D01*
X166971255Y-99565062D02*
X167066493Y-99612681D01*
X167066493Y-99612681D02*
X167114112Y-99660300D01*
X167114112Y-99660300D02*
X167161731Y-99755538D01*
X167161731Y-99755538D02*
X167161731Y-100136490D01*
X167637922Y-98612681D02*
X167637922Y-99184109D01*
X167637922Y-98898395D02*
X166637922Y-98898395D01*
X166637922Y-98898395D02*
X166780779Y-98993633D01*
X166780779Y-98993633D02*
X166876017Y-99088871D01*
X166876017Y-99088871D02*
X166923636Y-99184109D01*
X159481667Y-93834366D02*
X159581667Y-93867700D01*
X159581667Y-93867700D02*
X159615000Y-93901033D01*
X159615000Y-93901033D02*
X159648333Y-93967700D01*
X159648333Y-93967700D02*
X159648333Y-94067700D01*
X159648333Y-94067700D02*
X159615000Y-94134366D01*
X159615000Y-94134366D02*
X159581667Y-94167700D01*
X159581667Y-94167700D02*
X159515000Y-94201033D01*
X159515000Y-94201033D02*
X159248333Y-94201033D01*
X159248333Y-94201033D02*
X159248333Y-93501033D01*
X159248333Y-93501033D02*
X159481667Y-93501033D01*
X159481667Y-93501033D02*
X159548333Y-93534366D01*
X159548333Y-93534366D02*
X159581667Y-93567700D01*
X159581667Y-93567700D02*
X159615000Y-93634366D01*
X159615000Y-93634366D02*
X159615000Y-93701033D01*
X159615000Y-93701033D02*
X159581667Y-93767700D01*
X159581667Y-93767700D02*
X159548333Y-93801033D01*
X159548333Y-93801033D02*
X159481667Y-93834366D01*
X159481667Y-93834366D02*
X159248333Y-93834366D01*
X159781667Y-94267700D02*
X160315000Y-94267700D01*
X160615000Y-93501033D02*
X160748333Y-93501033D01*
X160748333Y-93501033D02*
X160815000Y-93534366D01*
X160815000Y-93534366D02*
X160881666Y-93601033D01*
X160881666Y-93601033D02*
X160915000Y-93734366D01*
X160915000Y-93734366D02*
X160915000Y-93967700D01*
X160915000Y-93967700D02*
X160881666Y-94101033D01*
X160881666Y-94101033D02*
X160815000Y-94167700D01*
X160815000Y-94167700D02*
X160748333Y-94201033D01*
X160748333Y-94201033D02*
X160615000Y-94201033D01*
X160615000Y-94201033D02*
X160548333Y-94167700D01*
X160548333Y-94167700D02*
X160481666Y-94101033D01*
X160481666Y-94101033D02*
X160448333Y-93967700D01*
X160448333Y-93967700D02*
X160448333Y-93734366D01*
X160448333Y-93734366D02*
X160481666Y-93601033D01*
X160481666Y-93601033D02*
X160548333Y-93534366D01*
X160548333Y-93534366D02*
X160615000Y-93501033D01*
D14*
X156268333Y-94413066D02*
X156235000Y-94446400D01*
X156235000Y-94446400D02*
X156135000Y-94479733D01*
X156135000Y-94479733D02*
X156068333Y-94479733D01*
X156068333Y-94479733D02*
X155968333Y-94446400D01*
X155968333Y-94446400D02*
X155901667Y-94379733D01*
X155901667Y-94379733D02*
X155868333Y-94313066D01*
X155868333Y-94313066D02*
X155835000Y-94179733D01*
X155835000Y-94179733D02*
X155835000Y-94079733D01*
X155835000Y-94079733D02*
X155868333Y-93946400D01*
X155868333Y-93946400D02*
X155901667Y-93879733D01*
X155901667Y-93879733D02*
X155968333Y-93813066D01*
X155968333Y-93813066D02*
X156068333Y-93779733D01*
X156068333Y-93779733D02*
X156135000Y-93779733D01*
X156135000Y-93779733D02*
X156235000Y-93813066D01*
X156235000Y-93813066D02*
X156268333Y-93846400D01*
X156868333Y-93779733D02*
X156735000Y-93779733D01*
X156735000Y-93779733D02*
X156668333Y-93813066D01*
X156668333Y-93813066D02*
X156635000Y-93846400D01*
X156635000Y-93846400D02*
X156568333Y-93946400D01*
X156568333Y-93946400D02*
X156535000Y-94079733D01*
X156535000Y-94079733D02*
X156535000Y-94346400D01*
X156535000Y-94346400D02*
X156568333Y-94413066D01*
X156568333Y-94413066D02*
X156601667Y-94446400D01*
X156601667Y-94446400D02*
X156668333Y-94479733D01*
X156668333Y-94479733D02*
X156801667Y-94479733D01*
X156801667Y-94479733D02*
X156868333Y-94446400D01*
X156868333Y-94446400D02*
X156901667Y-94413066D01*
X156901667Y-94413066D02*
X156935000Y-94346400D01*
X156935000Y-94346400D02*
X156935000Y-94179733D01*
X156935000Y-94179733D02*
X156901667Y-94113066D01*
X156901667Y-94113066D02*
X156868333Y-94079733D01*
X156868333Y-94079733D02*
X156801667Y-94046400D01*
X156801667Y-94046400D02*
X156668333Y-94046400D01*
X156668333Y-94046400D02*
X156601667Y-94079733D01*
X156601667Y-94079733D02*
X156568333Y-94113066D01*
X156568333Y-94113066D02*
X156535000Y-94179733D01*
X140898333Y-101983066D02*
X140865000Y-102016400D01*
X140865000Y-102016400D02*
X140765000Y-102049733D01*
X140765000Y-102049733D02*
X140698333Y-102049733D01*
X140698333Y-102049733D02*
X140598333Y-102016400D01*
X140598333Y-102016400D02*
X140531667Y-101949733D01*
X140531667Y-101949733D02*
X140498333Y-101883066D01*
X140498333Y-101883066D02*
X140465000Y-101749733D01*
X140465000Y-101749733D02*
X140465000Y-101649733D01*
X140465000Y-101649733D02*
X140498333Y-101516400D01*
X140498333Y-101516400D02*
X140531667Y-101449733D01*
X140531667Y-101449733D02*
X140598333Y-101383066D01*
X140598333Y-101383066D02*
X140698333Y-101349733D01*
X140698333Y-101349733D02*
X140765000Y-101349733D01*
X140765000Y-101349733D02*
X140865000Y-101383066D01*
X140865000Y-101383066D02*
X140898333Y-101416400D01*
X141498333Y-101583066D02*
X141498333Y-102049733D01*
X141331667Y-101316400D02*
X141165000Y-101816400D01*
X141165000Y-101816400D02*
X141598333Y-101816400D01*
X144674999Y-101939733D02*
X144441666Y-101606400D01*
X144274999Y-101939733D02*
X144274999Y-101239733D01*
X144274999Y-101239733D02*
X144541666Y-101239733D01*
X144541666Y-101239733D02*
X144608333Y-101273066D01*
X144608333Y-101273066D02*
X144641666Y-101306400D01*
X144641666Y-101306400D02*
X144674999Y-101373066D01*
X144674999Y-101373066D02*
X144674999Y-101473066D01*
X144674999Y-101473066D02*
X144641666Y-101539733D01*
X144641666Y-101539733D02*
X144608333Y-101573066D01*
X144608333Y-101573066D02*
X144541666Y-101606400D01*
X144541666Y-101606400D02*
X144274999Y-101606400D01*
X145341666Y-101939733D02*
X144941666Y-101939733D01*
X145141666Y-101939733D02*
X145141666Y-101239733D01*
X145141666Y-101239733D02*
X145074999Y-101339733D01*
X145074999Y-101339733D02*
X145008333Y-101406400D01*
X145008333Y-101406400D02*
X144941666Y-101439733D01*
X145608333Y-101306400D02*
X145641666Y-101273066D01*
X145641666Y-101273066D02*
X145708333Y-101239733D01*
X145708333Y-101239733D02*
X145875000Y-101239733D01*
X145875000Y-101239733D02*
X145941666Y-101273066D01*
X145941666Y-101273066D02*
X145975000Y-101306400D01*
X145975000Y-101306400D02*
X146008333Y-101373066D01*
X146008333Y-101373066D02*
X146008333Y-101439733D01*
X146008333Y-101439733D02*
X145975000Y-101539733D01*
X145975000Y-101539733D02*
X145575000Y-101939733D01*
X145575000Y-101939733D02*
X146008333Y-101939733D01*
X146999999Y-102789733D02*
X146766666Y-102456400D01*
X146599999Y-102789733D02*
X146599999Y-102089733D01*
X146599999Y-102089733D02*
X146866666Y-102089733D01*
X146866666Y-102089733D02*
X146933333Y-102123066D01*
X146933333Y-102123066D02*
X146966666Y-102156400D01*
X146966666Y-102156400D02*
X146999999Y-102223066D01*
X146999999Y-102223066D02*
X146999999Y-102323066D01*
X146999999Y-102323066D02*
X146966666Y-102389733D01*
X146966666Y-102389733D02*
X146933333Y-102423066D01*
X146933333Y-102423066D02*
X146866666Y-102456400D01*
X146866666Y-102456400D02*
X146599999Y-102456400D01*
X147666666Y-102789733D02*
X147266666Y-102789733D01*
X147466666Y-102789733D02*
X147466666Y-102089733D01*
X147466666Y-102089733D02*
X147399999Y-102189733D01*
X147399999Y-102189733D02*
X147333333Y-102256400D01*
X147333333Y-102256400D02*
X147266666Y-102289733D01*
X148266666Y-102323066D02*
X148266666Y-102789733D01*
X148100000Y-102056400D02*
X147933333Y-102556400D01*
X147933333Y-102556400D02*
X148366666Y-102556400D01*
X133341340Y-101739733D02*
X133341340Y-102306400D01*
X133341340Y-102306400D02*
X133374674Y-102373066D01*
X133374674Y-102373066D02*
X133408007Y-102406400D01*
X133408007Y-102406400D02*
X133474674Y-102439733D01*
X133474674Y-102439733D02*
X133608007Y-102439733D01*
X133608007Y-102439733D02*
X133674674Y-102406400D01*
X133674674Y-102406400D02*
X133708007Y-102373066D01*
X133708007Y-102373066D02*
X133741340Y-102306400D01*
X133741340Y-102306400D02*
X133741340Y-101739733D01*
X134441340Y-102439733D02*
X134041340Y-102439733D01*
X134241340Y-102439733D02*
X134241340Y-101739733D01*
X134241340Y-101739733D02*
X134174673Y-101839733D01*
X134174673Y-101839733D02*
X134108007Y-101906400D01*
X134108007Y-101906400D02*
X134041340Y-101939733D01*
D12*
X166105000Y-93534366D02*
X166038333Y-93501033D01*
X166038333Y-93501033D02*
X165938333Y-93501033D01*
X165938333Y-93501033D02*
X165838333Y-93534366D01*
X165838333Y-93534366D02*
X165771667Y-93601033D01*
X165771667Y-93601033D02*
X165738333Y-93667700D01*
X165738333Y-93667700D02*
X165705000Y-93801033D01*
X165705000Y-93801033D02*
X165705000Y-93901033D01*
X165705000Y-93901033D02*
X165738333Y-94034366D01*
X165738333Y-94034366D02*
X165771667Y-94101033D01*
X165771667Y-94101033D02*
X165838333Y-94167700D01*
X165838333Y-94167700D02*
X165938333Y-94201033D01*
X165938333Y-94201033D02*
X166005000Y-94201033D01*
X166005000Y-94201033D02*
X166105000Y-94167700D01*
X166105000Y-94167700D02*
X166138333Y-94134366D01*
X166138333Y-94134366D02*
X166138333Y-93901033D01*
X166138333Y-93901033D02*
X166005000Y-93901033D01*
X166271667Y-94267700D02*
X166805000Y-94267700D01*
X167105000Y-93501033D02*
X167238333Y-93501033D01*
X167238333Y-93501033D02*
X167305000Y-93534366D01*
X167305000Y-93534366D02*
X167371666Y-93601033D01*
X167371666Y-93601033D02*
X167405000Y-93734366D01*
X167405000Y-93734366D02*
X167405000Y-93967700D01*
X167405000Y-93967700D02*
X167371666Y-94101033D01*
X167371666Y-94101033D02*
X167305000Y-94167700D01*
X167305000Y-94167700D02*
X167238333Y-94201033D01*
X167238333Y-94201033D02*
X167105000Y-94201033D01*
X167105000Y-94201033D02*
X167038333Y-94167700D01*
X167038333Y-94167700D02*
X166971666Y-94101033D01*
X166971666Y-94101033D02*
X166938333Y-93967700D01*
X166938333Y-93967700D02*
X166938333Y-93734366D01*
X166938333Y-93734366D02*
X166971666Y-93601033D01*
X166971666Y-93601033D02*
X167038333Y-93534366D01*
X167038333Y-93534366D02*
X167105000Y-93501033D01*
X170883333Y-94916033D02*
X170650000Y-94582700D01*
X170483333Y-94916033D02*
X170483333Y-94216033D01*
X170483333Y-94216033D02*
X170750000Y-94216033D01*
X170750000Y-94216033D02*
X170816667Y-94249366D01*
X170816667Y-94249366D02*
X170850000Y-94282700D01*
X170850000Y-94282700D02*
X170883333Y-94349366D01*
X170883333Y-94349366D02*
X170883333Y-94449366D01*
X170883333Y-94449366D02*
X170850000Y-94516033D01*
X170850000Y-94516033D02*
X170816667Y-94549366D01*
X170816667Y-94549366D02*
X170750000Y-94582700D01*
X170750000Y-94582700D02*
X170483333Y-94582700D01*
X171016667Y-94982700D02*
X171550000Y-94982700D01*
X171850000Y-94216033D02*
X171983333Y-94216033D01*
X171983333Y-94216033D02*
X172050000Y-94249366D01*
X172050000Y-94249366D02*
X172116666Y-94316033D01*
X172116666Y-94316033D02*
X172150000Y-94449366D01*
X172150000Y-94449366D02*
X172150000Y-94682700D01*
X172150000Y-94682700D02*
X172116666Y-94816033D01*
X172116666Y-94816033D02*
X172050000Y-94882700D01*
X172050000Y-94882700D02*
X171983333Y-94916033D01*
X171983333Y-94916033D02*
X171850000Y-94916033D01*
X171850000Y-94916033D02*
X171783333Y-94882700D01*
X171783333Y-94882700D02*
X171716666Y-94816033D01*
X171716666Y-94816033D02*
X171683333Y-94682700D01*
X171683333Y-94682700D02*
X171683333Y-94449366D01*
X171683333Y-94449366D02*
X171716666Y-94316033D01*
X171716666Y-94316033D02*
X171783333Y-94249366D01*
X171783333Y-94249366D02*
X171850000Y-94216033D01*
D14*
X148358333Y-99269733D02*
X148125000Y-98936400D01*
X147958333Y-99269733D02*
X147958333Y-98569733D01*
X147958333Y-98569733D02*
X148225000Y-98569733D01*
X148225000Y-98569733D02*
X148291667Y-98603066D01*
X148291667Y-98603066D02*
X148325000Y-98636400D01*
X148325000Y-98636400D02*
X148358333Y-98703066D01*
X148358333Y-98703066D02*
X148358333Y-98803066D01*
X148358333Y-98803066D02*
X148325000Y-98869733D01*
X148325000Y-98869733D02*
X148291667Y-98903066D01*
X148291667Y-98903066D02*
X148225000Y-98936400D01*
X148225000Y-98936400D02*
X147958333Y-98936400D01*
X148758333Y-98869733D02*
X148691667Y-98836400D01*
X148691667Y-98836400D02*
X148658333Y-98803066D01*
X148658333Y-98803066D02*
X148625000Y-98736400D01*
X148625000Y-98736400D02*
X148625000Y-98703066D01*
X148625000Y-98703066D02*
X148658333Y-98636400D01*
X148658333Y-98636400D02*
X148691667Y-98603066D01*
X148691667Y-98603066D02*
X148758333Y-98569733D01*
X148758333Y-98569733D02*
X148891667Y-98569733D01*
X148891667Y-98569733D02*
X148958333Y-98603066D01*
X148958333Y-98603066D02*
X148991667Y-98636400D01*
X148991667Y-98636400D02*
X149025000Y-98703066D01*
X149025000Y-98703066D02*
X149025000Y-98736400D01*
X149025000Y-98736400D02*
X148991667Y-98803066D01*
X148991667Y-98803066D02*
X148958333Y-98836400D01*
X148958333Y-98836400D02*
X148891667Y-98869733D01*
X148891667Y-98869733D02*
X148758333Y-98869733D01*
X148758333Y-98869733D02*
X148691667Y-98903066D01*
X148691667Y-98903066D02*
X148658333Y-98936400D01*
X148658333Y-98936400D02*
X148625000Y-99003066D01*
X148625000Y-99003066D02*
X148625000Y-99136400D01*
X148625000Y-99136400D02*
X148658333Y-99203066D01*
X148658333Y-99203066D02*
X148691667Y-99236400D01*
X148691667Y-99236400D02*
X148758333Y-99269733D01*
X148758333Y-99269733D02*
X148891667Y-99269733D01*
X148891667Y-99269733D02*
X148958333Y-99236400D01*
X148958333Y-99236400D02*
X148991667Y-99203066D01*
X148991667Y-99203066D02*
X149025000Y-99136400D01*
X149025000Y-99136400D02*
X149025000Y-99003066D01*
X149025000Y-99003066D02*
X148991667Y-98936400D01*
X148991667Y-98936400D02*
X148958333Y-98903066D01*
X148958333Y-98903066D02*
X148891667Y-98869733D01*
%TO.C,R4*%
D15*
X153847936Y-96890000D02*
X154302064Y-96890000D01*
X153847936Y-98360000D02*
X154302064Y-98360000D01*
%TO.C,R5*%
X150147936Y-96890000D02*
X150602064Y-96890000D01*
X150147936Y-98360000D02*
X150602064Y-98360000D01*
%TO.C,TP5*%
X134225000Y-90575000D02*
X136125000Y-90575000D01*
X134225000Y-92475000D02*
X134225000Y-90575000D01*
X136125000Y-90575000D02*
X136125000Y-92475000D01*
X136125000Y-92475000D02*
X134225000Y-92475000D01*
%TO.C,C8*%
X146213748Y-93040000D02*
X146736252Y-93040000D01*
X146213748Y-94510000D02*
X146736252Y-94510000D01*
%TO.C,C1*%
X169673752Y-96490000D02*
X169151248Y-96490000D01*
X169673752Y-97960000D02*
X169151248Y-97960000D01*
%TO.C,C3*%
X132440000Y-99486252D02*
X132440000Y-98963748D01*
X133910000Y-99486252D02*
X133910000Y-98963748D01*
%TO.C,R2*%
X136640000Y-92852064D02*
X136640000Y-92397936D01*
X138110000Y-92852064D02*
X138110000Y-92397936D01*
%TO.C,C2*%
X133651248Y-103329080D02*
X134173752Y-103329080D01*
X133651248Y-104799080D02*
X134173752Y-104799080D01*
%TO.C,TP4*%
X138625000Y-90575000D02*
X140525000Y-90575000D01*
X138625000Y-92475000D02*
X138625000Y-90575000D01*
X140525000Y-90575000D02*
X140525000Y-92475000D01*
X140525000Y-92475000D02*
X138625000Y-92475000D01*
%TO.C,R1*%
X132240000Y-92852064D02*
X132240000Y-92397936D01*
X133710000Y-92852064D02*
X133710000Y-92397936D01*
%TO.C,TP1*%
X171625000Y-99075000D02*
X173525000Y-99075000D01*
X171625000Y-100975000D02*
X171625000Y-99075000D01*
X173525000Y-99075000D02*
X173525000Y-100975000D01*
X173525000Y-100975000D02*
X171625000Y-100975000D01*
%TO.C,TP2*%
X171625000Y-96575000D02*
X173525000Y-96575000D01*
X171625000Y-98475000D02*
X171625000Y-96575000D01*
X173525000Y-96575000D02*
X173525000Y-98475000D01*
X173525000Y-98475000D02*
X171625000Y-98475000D01*
%TO.C,TP7*%
X149325000Y-90575000D02*
X151225000Y-90575000D01*
X149325000Y-92475000D02*
X149325000Y-90575000D01*
X151225000Y-90575000D02*
X151225000Y-92475000D01*
X151225000Y-92475000D02*
X149325000Y-92475000D01*
%TO.C,C5*%
X142340000Y-99486252D02*
X142340000Y-98963748D01*
X143810000Y-99486252D02*
X143810000Y-98963748D01*
%TO.C,TP6*%
X153125000Y-90575000D02*
X155025000Y-90575000D01*
X153125000Y-92475000D02*
X153125000Y-90575000D01*
X155025000Y-90575000D02*
X155025000Y-92475000D01*
X155025000Y-92475000D02*
X153125000Y-92475000D01*
%TO.C,R7*%
X154302064Y-94990000D02*
X153847936Y-94990000D01*
X154302064Y-96460000D02*
X153847936Y-96460000D01*
%TO.C,J1*%
D16*
X156575010Y-97942500D02*
X156575010Y-99925000D01*
X156575010Y-99925000D02*
X166174990Y-99925000D01*
X159407503Y-94925000D02*
X156575010Y-94925000D01*
X166174990Y-94925000D02*
X163342502Y-94925000D01*
X166174990Y-99925000D02*
X166174990Y-97942500D01*
%TO.C,R11*%
D15*
X150302064Y-99890000D02*
X149847936Y-99890000D01*
X150302064Y-101360000D02*
X149847936Y-101360000D01*
%TO.C,R10*%
X138002064Y-105280000D02*
X137547936Y-105280000D01*
X138002064Y-106750000D02*
X137547936Y-106750000D01*
%TO.C,R6*%
X146902064Y-96890000D02*
X146447936Y-96890000D01*
X146902064Y-98360000D02*
X146447936Y-98360000D01*
%TO.C,TP3*%
X143025000Y-90575000D02*
X144925000Y-90575000D01*
X143025000Y-92475000D02*
X143025000Y-90575000D01*
X144925000Y-90575000D02*
X144925000Y-92475000D01*
X144925000Y-92475000D02*
X143025000Y-92475000D01*
%TO.C,R15*%
X141247936Y-104869771D02*
X141702064Y-104869771D01*
X141247936Y-106339771D02*
X141702064Y-106339771D01*
%TO.C,R9*%
X146447936Y-94990000D02*
X146902064Y-94990000D01*
X146447936Y-96460000D02*
X146902064Y-96460000D01*
%TO.C,R3*%
X141040000Y-92852064D02*
X141040000Y-92397936D01*
X142510000Y-92852064D02*
X142510000Y-92397936D01*
%TO.C,C7*%
X150536252Y-93040000D02*
X150013748Y-93040000D01*
X150536252Y-94510000D02*
X150013748Y-94510000D01*
%TO.C,R13*%
X150340000Y-103497936D02*
X150340000Y-103952064D01*
X151810000Y-103497936D02*
X151810000Y-103952064D01*
%TO.C,TP8*%
X145525000Y-90575000D02*
X147425000Y-90575000D01*
X145525000Y-92475000D02*
X145525000Y-90575000D01*
X147425000Y-90575000D02*
X147425000Y-92475000D01*
X147425000Y-92475000D02*
X145525000Y-92475000D01*
%TO.C,JP1*%
X169639564Y-99290000D02*
X169185436Y-99290000D01*
X169639564Y-100760000D02*
X169185436Y-100760000D01*
%TO.C,J9*%
X157075000Y-93210000D02*
X157715000Y-93210000D01*
X157125000Y-90490000D02*
X159825000Y-90490000D01*
X157715000Y-93210000D02*
X157715000Y-93840000D01*
X159875000Y-93210000D02*
X159235000Y-93210000D01*
%TO.C,C6*%
X154336252Y-93040000D02*
X153813748Y-93040000D01*
X154336252Y-94510000D02*
X153813748Y-94510000D01*
%TO.C,C4*%
X140340000Y-99486252D02*
X140340000Y-98963748D01*
X141810000Y-99486252D02*
X141810000Y-98963748D01*
%TO.C,R12*%
X144640000Y-103952064D02*
X144640000Y-103497936D01*
X146110000Y-103952064D02*
X146110000Y-103497936D01*
%TO.C,R14*%
X148440000Y-103497936D02*
X148440000Y-103952064D01*
X149910000Y-103497936D02*
X149910000Y-103952064D01*
%TO.C,U1*%
X134665000Y-96915000D02*
X134865000Y-96915000D01*
X134665000Y-101535000D02*
X134665000Y-96915000D01*
X134865000Y-101535000D02*
X134665000Y-101535000D01*
X139685000Y-96915000D02*
X139885000Y-96915000D01*
X139885000Y-96915000D02*
X139885000Y-101535000D01*
X139885000Y-101535000D02*
X139685000Y-101535000D01*
X139685000Y-96275000D02*
X140155000Y-95935000D01*
X140155000Y-96615000D01*
X139685000Y-96275000D01*
G36*
X140155000Y-96615000D02*
G01*
X139685000Y-96275000D01*
X140155000Y-95935000D01*
X140155000Y-96615000D01*
G37*
%TO.C,J8*%
X163475000Y-93210000D02*
X164115000Y-93210000D01*
X163525000Y-90490000D02*
X166225000Y-90490000D01*
X164115000Y-93210000D02*
X164115000Y-93840000D01*
X166275000Y-93210000D02*
X165635000Y-93210000D01*
%TO.C,J10*%
X169875000Y-93210000D02*
X170515000Y-93210000D01*
X169925000Y-90490000D02*
X172625000Y-90490000D01*
X170515000Y-93210000D02*
X170515000Y-93840000D01*
X172675000Y-93210000D02*
X172035000Y-93210000D01*
%TO.C,R8*%
X150602064Y-94990000D02*
X150147936Y-94990000D01*
X150602064Y-96460000D02*
X150147936Y-96460000D01*
%TD*%
M02*
