%TF.GenerationSoftware,KiCad,Pcbnew,10.0.3*%
%TF.CreationDate,2026-06-06T21:49:40-06:00*%
%TF.ProjectId,SNEdge,534e4564-6765-42e6-9b69-6361645f7063,rev?*%
%TF.SameCoordinates,Original*%
%TF.FileFunction,Soldermask,Top*%
%TF.FilePolarity,Negative*%
%FSLAX46Y46*%
G04 Gerber Fmt 4.6, Leading zero omitted, Abs format (unit mm)*
G04 Created by KiCad (PCBNEW 10.0.3) date 2026-06-06 21:49:40*
%MOMM*%
%LPD*%
G01*
G04 APERTURE LIST*
G04 Aperture macros list*
%AMRoundRect*
0 Rectangle with rounded corners*
0 $1 Rounding radius*
0 $2 $3 $4 $5 $6 $7 $8 $9 X,Y pos of 4 corners*
0 Add a 4 corners polygon primitive as box body*
4,1,4,$2,$3,$4,$5,$6,$7,$8,$9,$2,$3,0*
0 Add four circle primitives for the rounded corners*
1,1,$1+$1,$2,$3*
1,1,$1+$1,$4,$5*
1,1,$1+$1,$6,$7*
1,1,$1+$1,$8,$9*
0 Add four rect primitives between the rounded corners*
20,1,$1+$1,$2,$3,$4,$5,0*
20,1,$1+$1,$4,$5,$6,$7,0*
20,1,$1+$1,$6,$7,$8,$9,0*
20,1,$1+$1,$8,$9,$2,$3,0*%
G04 Aperture macros list end*
%ADD10C,0.000000*%
%ADD11C,0.100000*%
%ADD12RoundRect,0.250000X-0.350000X-0.450000X0.350000X-0.450000X0.350000X0.450000X-0.350000X0.450000X0*%
%ADD13R,1.500000X1.500000*%
%ADD14RoundRect,0.250000X-0.337500X-0.475000X0.337500X-0.475000X0.337500X0.475000X-0.337500X0.475000X0*%
%ADD15RoundRect,0.250000X0.337500X0.475000X-0.337500X0.475000X-0.337500X-0.475000X0.337500X-0.475000X0*%
%ADD16RoundRect,0.250000X0.475000X-0.337500X0.475000X0.337500X-0.475000X0.337500X-0.475000X-0.337500X0*%
%ADD17RoundRect,0.250000X0.450000X-0.350000X0.450000X0.350000X-0.450000X0.350000X-0.450000X-0.350000X0*%
%ADD18RoundRect,0.250000X0.350000X0.450000X-0.350000X0.450000X-0.350000X-0.450000X0.350000X-0.450000X0*%
%ADD19R,0.300000X0.800000*%
%ADD20R,1.300000X3.049999*%
%ADD21RoundRect,0.250000X-0.450000X0.350000X-0.450000X-0.350000X0.450000X-0.350000X0.450000X0.350000X0*%
%ADD22RoundRect,0.250000X0.250000X-0.275000X0.250000X0.275000X-0.250000X0.275000X-0.250000X-0.275000X0*%
%ADD23RoundRect,0.250000X0.275000X-0.850000X0.275000X0.850000X-0.275000X0.850000X-0.275000X-0.850000X0*%
%ADD24RoundRect,0.100000X-0.100000X0.637500X-0.100000X-0.637500X0.100000X-0.637500X0.100000X0.637500X0*%
G04 APERTURE END LIST*
D10*
%TO.C,J1*%
G36*
X157325000Y-97625000D02*
G01*
X156225000Y-97625000D01*
X156225000Y-95425000D01*
X157325000Y-95425000D01*
X157325000Y-97625000D01*
G37*
G36*
X166525000Y-97625000D02*
G01*
X165425000Y-97625000D01*
X165425000Y-95425000D01*
X166525000Y-95425000D01*
X166525000Y-97625000D01*
G37*
%TO.C,JP1*%
D11*
X168912500Y-99525000D02*
X169912500Y-99525000D01*
X169912500Y-100525000D01*
X168912500Y-100525000D01*
X168912500Y-99525000D01*
G36*
X168912500Y-99525000D02*
G01*
X169912500Y-99525000D01*
X169912500Y-100525000D01*
X168912500Y-100525000D01*
X168912500Y-99525000D01*
G37*
%TO.C,J9*%
G36*
X157535000Y-90750000D02*
G01*
X159415000Y-90750000D01*
X159415000Y-92840000D01*
X157535000Y-92840000D01*
X157535000Y-90750000D01*
G37*
%TO.C,J8*%
G36*
X163935000Y-90750000D02*
G01*
X165815000Y-90750000D01*
X165815000Y-92840000D01*
X163935000Y-92840000D01*
X163935000Y-90750000D01*
G37*
%TO.C,J10*%
G36*
X170335000Y-90750000D02*
G01*
X172215000Y-90750000D01*
X172215000Y-92840000D01*
X170335000Y-92840000D01*
X170335000Y-90750000D01*
G37*
%TD*%
D12*
%TO.C,R4*%
X153075000Y-97625000D03*
X155075000Y-97625000D03*
%TD*%
%TO.C,R5*%
X149375000Y-97625000D03*
X151375000Y-97625000D03*
%TD*%
D13*
%TO.C,TP5*%
X135175000Y-91525000D03*
%TD*%
D14*
%TO.C,C8*%
X145437500Y-93775000D03*
X147512500Y-93775000D03*
%TD*%
D15*
%TO.C,C1*%
X170450000Y-97225000D03*
X168375000Y-97225000D03*
%TD*%
D16*
%TO.C,C3*%
X133175000Y-100262500D03*
X133175000Y-98187500D03*
%TD*%
D17*
%TO.C,R2*%
X137375000Y-93625000D03*
X137375000Y-91625000D03*
%TD*%
D14*
%TO.C,C2*%
X132875000Y-104064080D03*
X134950000Y-104064080D03*
%TD*%
D13*
%TO.C,TP4*%
X139575000Y-91525000D03*
%TD*%
D17*
%TO.C,R1*%
X132975000Y-93625000D03*
X132975000Y-91625000D03*
%TD*%
D13*
%TO.C,TP1*%
X172575000Y-100025000D03*
%TD*%
%TO.C,TP2*%
X172575000Y-97525000D03*
%TD*%
%TO.C,TP7*%
X150275000Y-91525000D03*
%TD*%
D16*
%TO.C,C5*%
X143075000Y-100262500D03*
X143075000Y-98187500D03*
%TD*%
D13*
%TO.C,TP6*%
X154075000Y-91525000D03*
%TD*%
D18*
%TO.C,R7*%
X155075000Y-95725000D03*
X153075000Y-95725000D03*
%TD*%
D19*
%TO.C,J1*%
X159875003Y-95025000D03*
X160375002Y-95025000D03*
X160875004Y-95025000D03*
X161375003Y-95025000D03*
X161875004Y-95025000D03*
X162375003Y-95025000D03*
X162875002Y-95025000D03*
D20*
X157975003Y-96950000D03*
X164774997Y-96950000D03*
%TD*%
D18*
%TO.C,R11*%
X151075000Y-100625000D03*
X149075000Y-100625000D03*
%TD*%
%TO.C,R10*%
X138775000Y-106015000D03*
X136775000Y-106015000D03*
%TD*%
%TO.C,R6*%
X147675000Y-97625000D03*
X145675000Y-97625000D03*
%TD*%
D13*
%TO.C,TP3*%
X143975000Y-91525000D03*
%TD*%
D12*
%TO.C,R15*%
X140475000Y-105604771D03*
X142475000Y-105604771D03*
%TD*%
%TO.C,R9*%
X145675000Y-95725000D03*
X147675000Y-95725000D03*
%TD*%
D17*
%TO.C,R3*%
X141775000Y-93625000D03*
X141775000Y-91625000D03*
%TD*%
D15*
%TO.C,C7*%
X151312500Y-93775000D03*
X149237500Y-93775000D03*
%TD*%
D21*
%TO.C,R13*%
X151075000Y-102725000D03*
X151075000Y-104725000D03*
%TD*%
D13*
%TO.C,TP8*%
X146475000Y-91525000D03*
%TD*%
D18*
%TO.C,JP1*%
X170412500Y-100025000D03*
X168412500Y-100025000D03*
%TD*%
D22*
%TO.C,J9*%
X158475000Y-93375000D03*
D23*
X157000000Y-91850000D03*
X159950000Y-91850000D03*
%TD*%
D15*
%TO.C,C6*%
X155112500Y-93775000D03*
X153037500Y-93775000D03*
%TD*%
D16*
%TO.C,C4*%
X141075000Y-100262500D03*
X141075000Y-98187500D03*
%TD*%
D17*
%TO.C,R12*%
X145375000Y-104725000D03*
X145375000Y-102725000D03*
%TD*%
D21*
%TO.C,R14*%
X149175000Y-102725000D03*
X149175000Y-104725000D03*
%TD*%
D24*
%TO.C,U1*%
X139225000Y-96362500D03*
X138575000Y-96362500D03*
X137925000Y-96362500D03*
X137275000Y-96362500D03*
X136625000Y-96362500D03*
X135975000Y-96362500D03*
X135325000Y-96362500D03*
X135325000Y-102087500D03*
X135975000Y-102087500D03*
X136625000Y-102087500D03*
X137275000Y-102087500D03*
X137925000Y-102087500D03*
X138575000Y-102087500D03*
X139225000Y-102087500D03*
%TD*%
D22*
%TO.C,J8*%
X164875000Y-93375000D03*
D23*
X163400000Y-91850000D03*
X166350000Y-91850000D03*
%TD*%
D22*
%TO.C,J10*%
X171275000Y-93375000D03*
D23*
X169800000Y-91850000D03*
X172750000Y-91850000D03*
%TD*%
D18*
%TO.C,R8*%
X151375000Y-95725000D03*
X149375000Y-95725000D03*
%TD*%
M02*
