%TF.GenerationSoftware,KiCad,Pcbnew,8.0.4*%
%TF.CreationDate,2024-08-31T12:18:16-06:00*%
%TF.ProjectId,SNEdge,534e4564-6765-42e6-9b69-6361645f7063,rev?*%
%TF.SameCoordinates,Original*%
%TF.FileFunction,Legend,Top*%
%TF.FilePolarity,Positive*%
%FSLAX46Y46*%
G04 Gerber Fmt 4.6, Leading zero omitted, Abs format (unit mm)*
G04 Created by KiCad (PCBNEW 8.0.4) date 2024-08-31 12:18:16*
%MOMM*%
%LPD*%
G01*
G04 APERTURE LIST*
%ADD10C,0.100000*%
%ADD11C,0.300000*%
%ADD12C,0.150000*%
%ADD13C,0.120000*%
%ADD14C,0.152400*%
G04 APERTURE END LIST*
D10*
X136800000Y-105100000D02*
X138600000Y-105100000D01*
X138600000Y-105700000D01*
X136800000Y-105700000D01*
X136800000Y-105100000D01*
G36*
X136800000Y-105100000D02*
G01*
X138600000Y-105100000D01*
X138600000Y-105700000D01*
X136800000Y-105700000D01*
X136800000Y-105100000D01*
G37*
X128400000Y-96000000D02*
X128740332Y-96340332D01*
X133800000Y-105100000D02*
X135600000Y-105100000D01*
X135600000Y-106900000D01*
X133800000Y-106900000D01*
X133800000Y-105100000D01*
X136800000Y-106300000D02*
X138600000Y-106300000D01*
X138600000Y-106900000D01*
X136800000Y-106900000D01*
X136800000Y-106300000D01*
G36*
X136800000Y-106300000D02*
G01*
X138600000Y-106300000D01*
X138600000Y-106900000D01*
X136800000Y-106900000D01*
X136800000Y-106300000D01*
G37*
X136800000Y-105100000D02*
X138600000Y-105100000D01*
X138600000Y-106900000D01*
X136800000Y-106900000D01*
X136800000Y-105100000D01*
X126500000Y-96000000D02*
X128400000Y-96000000D01*
D11*
G36*
X121350175Y-95480861D02*
G01*
X121450782Y-95581468D01*
X121503961Y-95687827D01*
X121566917Y-95939648D01*
X121566917Y-96117007D01*
X121503961Y-96368828D01*
X121450782Y-96475188D01*
X121350176Y-96575794D01*
X121192574Y-96628328D01*
X121009774Y-96628328D01*
X121009774Y-95428328D01*
X121192577Y-95428328D01*
X121350175Y-95480861D01*
G37*
G36*
X122033584Y-97094995D02*
G01*
X117400250Y-97094995D01*
X117400250Y-95921185D01*
X117566917Y-95921185D01*
X117566917Y-96135471D01*
X117567419Y-96140574D01*
X117567094Y-96142762D01*
X117568713Y-96153712D01*
X117569799Y-96164735D01*
X117570646Y-96166779D01*
X117571396Y-96171851D01*
X117642824Y-96457565D01*
X117643595Y-96459723D01*
X117643672Y-96460804D01*
X117648330Y-96472978D01*
X117652717Y-96485256D01*
X117653361Y-96486126D01*
X117654181Y-96488267D01*
X117725610Y-96631124D01*
X117733537Y-96643717D01*
X117735053Y-96647377D01*
X117738434Y-96651496D01*
X117741275Y-96656010D01*
X117744268Y-96658606D01*
X117753708Y-96670108D01*
X117896565Y-96812966D01*
X117919295Y-96831621D01*
X117924274Y-96833683D01*
X117928346Y-96837215D01*
X117955197Y-96849203D01*
X118169483Y-96920631D01*
X118183995Y-96923930D01*
X118187653Y-96925446D01*
X118192955Y-96925968D01*
X118198157Y-96927151D01*
X118202111Y-96926869D01*
X118216917Y-96928328D01*
X118359774Y-96928328D01*
X118374579Y-96926869D01*
X118378534Y-96927151D01*
X118383735Y-96925968D01*
X118389038Y-96925446D01*
X118392695Y-96923930D01*
X118407208Y-96920631D01*
X118621494Y-96849203D01*
X118648345Y-96837215D01*
X118652418Y-96833681D01*
X118657396Y-96831620D01*
X118680127Y-96812965D01*
X118751555Y-96741536D01*
X118770209Y-96718806D01*
X118790380Y-96670108D01*
X118792606Y-96664735D01*
X118795488Y-96635471D01*
X118795488Y-96135471D01*
X118792606Y-96106207D01*
X118770208Y-96052135D01*
X118728824Y-96010751D01*
X118674752Y-95988353D01*
X118645488Y-95985471D01*
X118359774Y-95985471D01*
X118330510Y-95988353D01*
X118276438Y-96010751D01*
X118235054Y-96052135D01*
X118212656Y-96106207D01*
X118212656Y-96164735D01*
X118235054Y-96218807D01*
X118276438Y-96260191D01*
X118330510Y-96282589D01*
X118359774Y-96285471D01*
X118495488Y-96285471D01*
X118495488Y-96573339D01*
X118493033Y-96575794D01*
X118335431Y-96628328D01*
X118241260Y-96628328D01*
X118083657Y-96575794D01*
X117983052Y-96475188D01*
X117929871Y-96368828D01*
X117866917Y-96117007D01*
X117866917Y-95939648D01*
X117929871Y-95687827D01*
X117983052Y-95581467D01*
X118083658Y-95480861D01*
X118241260Y-95428328D01*
X118395793Y-95428328D01*
X118506977Y-95483921D01*
X118534441Y-95494430D01*
X118592821Y-95498579D01*
X118648343Y-95480072D01*
X118692559Y-95441725D01*
X118718733Y-95389376D01*
X118722882Y-95330996D01*
X118705326Y-95278328D01*
X119138345Y-95278328D01*
X119138345Y-96778328D01*
X119141227Y-96807592D01*
X119163625Y-96861664D01*
X119205009Y-96903048D01*
X119259081Y-96925446D01*
X119317609Y-96925446D01*
X119371681Y-96903048D01*
X119413065Y-96861664D01*
X119435463Y-96807592D01*
X119438345Y-96778328D01*
X119438345Y-95843161D01*
X120015252Y-96852749D01*
X120019629Y-96858916D01*
X120020768Y-96861664D01*
X120023567Y-96864463D01*
X120032273Y-96876727D01*
X120048046Y-96888942D01*
X120062152Y-96903048D01*
X120070985Y-96906706D01*
X120078547Y-96912563D01*
X120097795Y-96917812D01*
X120116224Y-96925446D01*
X120125786Y-96925446D01*
X120135011Y-96927962D01*
X120154802Y-96925446D01*
X120174752Y-96925446D01*
X120183585Y-96921786D01*
X120193071Y-96920581D01*
X120210393Y-96910682D01*
X120228824Y-96903048D01*
X120235584Y-96896287D01*
X120243887Y-96891543D01*
X120256100Y-96875771D01*
X120270208Y-96861664D01*
X120273867Y-96852828D01*
X120279722Y-96845269D01*
X120284970Y-96826024D01*
X120292606Y-96807592D01*
X120294079Y-96792627D01*
X120295122Y-96788806D01*
X120294746Y-96785854D01*
X120295488Y-96778328D01*
X120295488Y-95278328D01*
X120709774Y-95278328D01*
X120709774Y-96778328D01*
X120712656Y-96807592D01*
X120735054Y-96861664D01*
X120776438Y-96903048D01*
X120830510Y-96925446D01*
X120859774Y-96928328D01*
X121216917Y-96928328D01*
X121231722Y-96926869D01*
X121235677Y-96927151D01*
X121240878Y-96925968D01*
X121246181Y-96925446D01*
X121249838Y-96923930D01*
X121264351Y-96920631D01*
X121478637Y-96849203D01*
X121505488Y-96837215D01*
X121509559Y-96833683D01*
X121514539Y-96831621D01*
X121537269Y-96812966D01*
X121680126Y-96670108D01*
X121689564Y-96658606D01*
X121692559Y-96656010D01*
X121695399Y-96651496D01*
X121698781Y-96647377D01*
X121700296Y-96643717D01*
X121708224Y-96631124D01*
X121779653Y-96488268D01*
X121780472Y-96486125D01*
X121781117Y-96485256D01*
X121785501Y-96472984D01*
X121790162Y-96460804D01*
X121790238Y-96459723D01*
X121791010Y-96457565D01*
X121862438Y-96171851D01*
X121863187Y-96166779D01*
X121864035Y-96164735D01*
X121865120Y-96153712D01*
X121866740Y-96142762D01*
X121866414Y-96140574D01*
X121866917Y-96135471D01*
X121866917Y-95921185D01*
X121866414Y-95916081D01*
X121866740Y-95913894D01*
X121865120Y-95902943D01*
X121864035Y-95891921D01*
X121863187Y-95889876D01*
X121862438Y-95884805D01*
X121791010Y-95599091D01*
X121790238Y-95596932D01*
X121790162Y-95595852D01*
X121785501Y-95583671D01*
X121781117Y-95571400D01*
X121780472Y-95570530D01*
X121779653Y-95568388D01*
X121708224Y-95425532D01*
X121700297Y-95412940D01*
X121698781Y-95409278D01*
X121695397Y-95405155D01*
X121692559Y-95400646D01*
X121689566Y-95398050D01*
X121680126Y-95386548D01*
X121537269Y-95243691D01*
X121514538Y-95225036D01*
X121509558Y-95222973D01*
X121505488Y-95219443D01*
X121478637Y-95207454D01*
X121264351Y-95136026D01*
X121249843Y-95132727D01*
X121246181Y-95131210D01*
X121240872Y-95130687D01*
X121235678Y-95129506D01*
X121231728Y-95129786D01*
X121216917Y-95128328D01*
X120859774Y-95128328D01*
X120830510Y-95131210D01*
X120776438Y-95153608D01*
X120735054Y-95194992D01*
X120712656Y-95249064D01*
X120709774Y-95278328D01*
X120295488Y-95278328D01*
X120292606Y-95249064D01*
X120270208Y-95194992D01*
X120228824Y-95153608D01*
X120174752Y-95131210D01*
X120116224Y-95131210D01*
X120062152Y-95153608D01*
X120020768Y-95194992D01*
X119998370Y-95249064D01*
X119995488Y-95278328D01*
X119995488Y-96213492D01*
X119418581Y-95203907D01*
X119414203Y-95197739D01*
X119413065Y-95194992D01*
X119410265Y-95192192D01*
X119401560Y-95179929D01*
X119385788Y-95167715D01*
X119371681Y-95153608D01*
X119362845Y-95149948D01*
X119355286Y-95144094D01*
X119336041Y-95138845D01*
X119317609Y-95131210D01*
X119308047Y-95131210D01*
X119298822Y-95128694D01*
X119279031Y-95131210D01*
X119259081Y-95131210D01*
X119250247Y-95134869D01*
X119240762Y-95136075D01*
X119223439Y-95145973D01*
X119205009Y-95153608D01*
X119198248Y-95160368D01*
X119189946Y-95165113D01*
X119177732Y-95180884D01*
X119163625Y-95194992D01*
X119159965Y-95203827D01*
X119154111Y-95211387D01*
X119148862Y-95230631D01*
X119141227Y-95249064D01*
X119139753Y-95264030D01*
X119138711Y-95267851D01*
X119139086Y-95270802D01*
X119138345Y-95278328D01*
X118705326Y-95278328D01*
X118704374Y-95275473D01*
X118666028Y-95231258D01*
X118641142Y-95215593D01*
X118498285Y-95144164D01*
X118470822Y-95133655D01*
X118465447Y-95133273D01*
X118460467Y-95131210D01*
X118431203Y-95128328D01*
X118216917Y-95128328D01*
X118202105Y-95129786D01*
X118198156Y-95129506D01*
X118192961Y-95130687D01*
X118187653Y-95131210D01*
X118183991Y-95132726D01*
X118169482Y-95136026D01*
X117955197Y-95207455D01*
X117928346Y-95219443D01*
X117924276Y-95222972D01*
X117919295Y-95225036D01*
X117896565Y-95243691D01*
X117753708Y-95386548D01*
X117744268Y-95398049D01*
X117741275Y-95400646D01*
X117738434Y-95405159D01*
X117735053Y-95409279D01*
X117733537Y-95412938D01*
X117725610Y-95425532D01*
X117654181Y-95568389D01*
X117653361Y-95570529D01*
X117652717Y-95571400D01*
X117648330Y-95583677D01*
X117643672Y-95595852D01*
X117643595Y-95596932D01*
X117642824Y-95599091D01*
X117571396Y-95884805D01*
X117570646Y-95889876D01*
X117569799Y-95891921D01*
X117568713Y-95902943D01*
X117567094Y-95913894D01*
X117567419Y-95916081D01*
X117566917Y-95921185D01*
X117400250Y-95921185D01*
X117400250Y-94961661D01*
X122033584Y-94961661D01*
X122033584Y-97094995D01*
G37*
G36*
X138585214Y-106346067D02*
G01*
X136814786Y-106346067D01*
X136814786Y-106000136D01*
X136981453Y-106000136D01*
X136981453Y-106058664D01*
X137003851Y-106112736D01*
X137045235Y-106154120D01*
X137099307Y-106176518D01*
X137128571Y-106179400D01*
X138271429Y-106179400D01*
X138300693Y-106176518D01*
X138354765Y-106154120D01*
X138396149Y-106112736D01*
X138418547Y-106058664D01*
X138418547Y-106000136D01*
X138396149Y-105946064D01*
X138354765Y-105904680D01*
X138300693Y-105882282D01*
X138271429Y-105879400D01*
X137128571Y-105879400D01*
X137099307Y-105882282D01*
X137045235Y-105904680D01*
X137003851Y-105946064D01*
X136981453Y-106000136D01*
X136814786Y-106000136D01*
X136814786Y-105712733D01*
X138585214Y-105712733D01*
X138585214Y-106346067D01*
G37*
G36*
X118064461Y-105195147D02*
G01*
X118093638Y-105224324D01*
X118138345Y-105313737D01*
X118138345Y-105457204D01*
X118093638Y-105546617D01*
X118056633Y-105583622D01*
X117967221Y-105628328D01*
X117581202Y-105628328D01*
X117581202Y-105142614D01*
X117906859Y-105142614D01*
X118064461Y-105195147D01*
G37*
G36*
X117985206Y-104473035D02*
G01*
X118022210Y-104510039D01*
X118066917Y-104599452D01*
X118066917Y-104671489D01*
X118022210Y-104760902D01*
X117985206Y-104797907D01*
X117895792Y-104842614D01*
X117581202Y-104842614D01*
X117581202Y-104428328D01*
X117895792Y-104428328D01*
X117985206Y-104473035D01*
G37*
G36*
X121962155Y-106237852D02*
G01*
X117114535Y-106237852D01*
X117114535Y-104278328D01*
X117281202Y-104278328D01*
X117281202Y-105778328D01*
X117284084Y-105807592D01*
X117306482Y-105861664D01*
X117347866Y-105903048D01*
X117401938Y-105925446D01*
X117431202Y-105928328D01*
X118002631Y-105928328D01*
X118031895Y-105925446D01*
X118036873Y-105923383D01*
X118042249Y-105923002D01*
X118069713Y-105912492D01*
X118110855Y-105891921D01*
X118426942Y-105891921D01*
X118426942Y-105950449D01*
X118449340Y-106004521D01*
X118490724Y-106045905D01*
X118544796Y-106068303D01*
X118574060Y-106071185D01*
X119716917Y-106071185D01*
X119746181Y-106068303D01*
X119800253Y-106045905D01*
X119841637Y-106004521D01*
X119864035Y-105950449D01*
X119864035Y-105891921D01*
X119841637Y-105837849D01*
X119800253Y-105796465D01*
X119746181Y-105774067D01*
X119716917Y-105771185D01*
X118574060Y-105771185D01*
X118544796Y-105774067D01*
X118490724Y-105796465D01*
X118449340Y-105837849D01*
X118426942Y-105891921D01*
X118110855Y-105891921D01*
X118212570Y-105841064D01*
X118225163Y-105833136D01*
X118228823Y-105831621D01*
X118232942Y-105828239D01*
X118237456Y-105825399D01*
X118240052Y-105822405D01*
X118251554Y-105812966D01*
X118322983Y-105741537D01*
X118332424Y-105730032D01*
X118335416Y-105727438D01*
X118338254Y-105722928D01*
X118341638Y-105718806D01*
X118343154Y-105715144D01*
X118351081Y-105702553D01*
X118422509Y-105559695D01*
X118433019Y-105532232D01*
X118433400Y-105526856D01*
X118435463Y-105521878D01*
X118438345Y-105492614D01*
X118438345Y-105278328D01*
X118435463Y-105249064D01*
X118433400Y-105244085D01*
X118433019Y-105238710D01*
X118422509Y-105211247D01*
X118351081Y-105068389D01*
X118343154Y-105055797D01*
X118341638Y-105052136D01*
X118338254Y-105048013D01*
X118335416Y-105043504D01*
X118332424Y-105040909D01*
X118322983Y-105029405D01*
X118251554Y-104957976D01*
X118250371Y-104957005D01*
X118251554Y-104955823D01*
X118260994Y-104944320D01*
X118263987Y-104941725D01*
X118266825Y-104937215D01*
X118270209Y-104933093D01*
X118271725Y-104929430D01*
X118279652Y-104916839D01*
X118351081Y-104773983D01*
X118361590Y-104746519D01*
X118361971Y-104741144D01*
X118364035Y-104736164D01*
X118366917Y-104706900D01*
X118366917Y-104564042D01*
X118364035Y-104534778D01*
X118361971Y-104529797D01*
X118361590Y-104524423D01*
X118351081Y-104496959D01*
X118279652Y-104354103D01*
X118271725Y-104341511D01*
X118270209Y-104337849D01*
X118266825Y-104333726D01*
X118263987Y-104329217D01*
X118260994Y-104326621D01*
X118251554Y-104315119D01*
X118214763Y-104278328D01*
X119924059Y-104278328D01*
X119924059Y-105778328D01*
X119926941Y-105807592D01*
X119949339Y-105861664D01*
X119990723Y-105903048D01*
X120044795Y-105925446D01*
X120103323Y-105925446D01*
X120157395Y-105903048D01*
X120198779Y-105861664D01*
X120221177Y-105807592D01*
X120224059Y-105778328D01*
X120224059Y-104278328D01*
X120638345Y-104278328D01*
X120638345Y-105778328D01*
X120641227Y-105807592D01*
X120663625Y-105861664D01*
X120705009Y-105903048D01*
X120759081Y-105925446D01*
X120817609Y-105925446D01*
X120871681Y-105903048D01*
X120913065Y-105861664D01*
X120935463Y-105807592D01*
X120938345Y-105778328D01*
X120938345Y-104843161D01*
X121515252Y-105852749D01*
X121519629Y-105858916D01*
X121520768Y-105861664D01*
X121523567Y-105864463D01*
X121532273Y-105876727D01*
X121548046Y-105888942D01*
X121562152Y-105903048D01*
X121570985Y-105906706D01*
X121578547Y-105912563D01*
X121597795Y-105917812D01*
X121616224Y-105925446D01*
X121625786Y-105925446D01*
X121635011Y-105927962D01*
X121654802Y-105925446D01*
X121674752Y-105925446D01*
X121683585Y-105921786D01*
X121693071Y-105920581D01*
X121710393Y-105910682D01*
X121728824Y-105903048D01*
X121735584Y-105896287D01*
X121743887Y-105891543D01*
X121756100Y-105875771D01*
X121770208Y-105861664D01*
X121773867Y-105852828D01*
X121779722Y-105845269D01*
X121784970Y-105826024D01*
X121792606Y-105807592D01*
X121794079Y-105792627D01*
X121795122Y-105788806D01*
X121794746Y-105785854D01*
X121795488Y-105778328D01*
X121795488Y-104278328D01*
X121792606Y-104249064D01*
X121770208Y-104194992D01*
X121728824Y-104153608D01*
X121674752Y-104131210D01*
X121616224Y-104131210D01*
X121562152Y-104153608D01*
X121520768Y-104194992D01*
X121498370Y-104249064D01*
X121495488Y-104278328D01*
X121495488Y-105213492D01*
X120918581Y-104203907D01*
X120914203Y-104197739D01*
X120913065Y-104194992D01*
X120910265Y-104192192D01*
X120901560Y-104179929D01*
X120885788Y-104167715D01*
X120871681Y-104153608D01*
X120862845Y-104149948D01*
X120855286Y-104144094D01*
X120836041Y-104138845D01*
X120817609Y-104131210D01*
X120808047Y-104131210D01*
X120798822Y-104128694D01*
X120779031Y-104131210D01*
X120759081Y-104131210D01*
X120750247Y-104134869D01*
X120740762Y-104136075D01*
X120723439Y-104145973D01*
X120705009Y-104153608D01*
X120698248Y-104160368D01*
X120689946Y-104165113D01*
X120677732Y-104180884D01*
X120663625Y-104194992D01*
X120659965Y-104203827D01*
X120654111Y-104211387D01*
X120648862Y-104230631D01*
X120641227Y-104249064D01*
X120639753Y-104264030D01*
X120638711Y-104267851D01*
X120639086Y-104270802D01*
X120638345Y-104278328D01*
X120224059Y-104278328D01*
X120221177Y-104249064D01*
X120198779Y-104194992D01*
X120157395Y-104153608D01*
X120103323Y-104131210D01*
X120044795Y-104131210D01*
X119990723Y-104153608D01*
X119949339Y-104194992D01*
X119926941Y-104249064D01*
X119924059Y-104278328D01*
X118214763Y-104278328D01*
X118180126Y-104243691D01*
X118168624Y-104234251D01*
X118166028Y-104231258D01*
X118161514Y-104228417D01*
X118157395Y-104225036D01*
X118153735Y-104223520D01*
X118141142Y-104215593D01*
X117998284Y-104144164D01*
X117970821Y-104133654D01*
X117965443Y-104133271D01*
X117960466Y-104131210D01*
X117931202Y-104128328D01*
X117431202Y-104128328D01*
X117401938Y-104131210D01*
X117347866Y-104153608D01*
X117306482Y-104194992D01*
X117284084Y-104249064D01*
X117281202Y-104278328D01*
X117114535Y-104278328D01*
X117114535Y-103961661D01*
X121962155Y-103961661D01*
X121962155Y-106237852D01*
G37*
G36*
X121350175Y-107480861D02*
G01*
X121450782Y-107581468D01*
X121503961Y-107687827D01*
X121566917Y-107939648D01*
X121566917Y-108117007D01*
X121503961Y-108368828D01*
X121450782Y-108475188D01*
X121350176Y-108575794D01*
X121192574Y-108628328D01*
X121009774Y-108628328D01*
X121009774Y-107428328D01*
X121192577Y-107428328D01*
X121350175Y-107480861D01*
G37*
G36*
X122033584Y-109094995D02*
G01*
X117400250Y-109094995D01*
X117400250Y-107921185D01*
X117566917Y-107921185D01*
X117566917Y-108135471D01*
X117567419Y-108140574D01*
X117567094Y-108142762D01*
X117568713Y-108153712D01*
X117569799Y-108164735D01*
X117570646Y-108166779D01*
X117571396Y-108171851D01*
X117642824Y-108457565D01*
X117643595Y-108459723D01*
X117643672Y-108460804D01*
X117648330Y-108472978D01*
X117652717Y-108485256D01*
X117653361Y-108486126D01*
X117654181Y-108488267D01*
X117725610Y-108631124D01*
X117733537Y-108643717D01*
X117735053Y-108647377D01*
X117738434Y-108651496D01*
X117741275Y-108656010D01*
X117744268Y-108658606D01*
X117753708Y-108670108D01*
X117896565Y-108812966D01*
X117919295Y-108831621D01*
X117924274Y-108833683D01*
X117928346Y-108837215D01*
X117955197Y-108849203D01*
X118169483Y-108920631D01*
X118183995Y-108923930D01*
X118187653Y-108925446D01*
X118192955Y-108925968D01*
X118198157Y-108927151D01*
X118202111Y-108926869D01*
X118216917Y-108928328D01*
X118359774Y-108928328D01*
X118374579Y-108926869D01*
X118378534Y-108927151D01*
X118383735Y-108925968D01*
X118389038Y-108925446D01*
X118392695Y-108923930D01*
X118407208Y-108920631D01*
X118621494Y-108849203D01*
X118648345Y-108837215D01*
X118652418Y-108833681D01*
X118657396Y-108831620D01*
X118680127Y-108812965D01*
X118751555Y-108741536D01*
X118770209Y-108718806D01*
X118790380Y-108670108D01*
X118792606Y-108664735D01*
X118795488Y-108635471D01*
X118795488Y-108135471D01*
X118792606Y-108106207D01*
X118770208Y-108052135D01*
X118728824Y-108010751D01*
X118674752Y-107988353D01*
X118645488Y-107985471D01*
X118359774Y-107985471D01*
X118330510Y-107988353D01*
X118276438Y-108010751D01*
X118235054Y-108052135D01*
X118212656Y-108106207D01*
X118212656Y-108164735D01*
X118235054Y-108218807D01*
X118276438Y-108260191D01*
X118330510Y-108282589D01*
X118359774Y-108285471D01*
X118495488Y-108285471D01*
X118495488Y-108573339D01*
X118493033Y-108575794D01*
X118335431Y-108628328D01*
X118241260Y-108628328D01*
X118083657Y-108575794D01*
X117983052Y-108475188D01*
X117929871Y-108368828D01*
X117866917Y-108117007D01*
X117866917Y-107939648D01*
X117929871Y-107687827D01*
X117983052Y-107581467D01*
X118083658Y-107480861D01*
X118241260Y-107428328D01*
X118395793Y-107428328D01*
X118506977Y-107483921D01*
X118534441Y-107494430D01*
X118592821Y-107498579D01*
X118648343Y-107480072D01*
X118692559Y-107441725D01*
X118718733Y-107389376D01*
X118722882Y-107330996D01*
X118705326Y-107278328D01*
X119138345Y-107278328D01*
X119138345Y-108778328D01*
X119141227Y-108807592D01*
X119163625Y-108861664D01*
X119205009Y-108903048D01*
X119259081Y-108925446D01*
X119317609Y-108925446D01*
X119371681Y-108903048D01*
X119413065Y-108861664D01*
X119435463Y-108807592D01*
X119438345Y-108778328D01*
X119438345Y-107843161D01*
X120015252Y-108852749D01*
X120019629Y-108858916D01*
X120020768Y-108861664D01*
X120023567Y-108864463D01*
X120032273Y-108876727D01*
X120048046Y-108888942D01*
X120062152Y-108903048D01*
X120070985Y-108906706D01*
X120078547Y-108912563D01*
X120097795Y-108917812D01*
X120116224Y-108925446D01*
X120125786Y-108925446D01*
X120135011Y-108927962D01*
X120154802Y-108925446D01*
X120174752Y-108925446D01*
X120183585Y-108921786D01*
X120193071Y-108920581D01*
X120210393Y-108910682D01*
X120228824Y-108903048D01*
X120235584Y-108896287D01*
X120243887Y-108891543D01*
X120256100Y-108875771D01*
X120270208Y-108861664D01*
X120273867Y-108852828D01*
X120279722Y-108845269D01*
X120284970Y-108826024D01*
X120292606Y-108807592D01*
X120294079Y-108792627D01*
X120295122Y-108788806D01*
X120294746Y-108785854D01*
X120295488Y-108778328D01*
X120295488Y-107278328D01*
X120709774Y-107278328D01*
X120709774Y-108778328D01*
X120712656Y-108807592D01*
X120735054Y-108861664D01*
X120776438Y-108903048D01*
X120830510Y-108925446D01*
X120859774Y-108928328D01*
X121216917Y-108928328D01*
X121231722Y-108926869D01*
X121235677Y-108927151D01*
X121240878Y-108925968D01*
X121246181Y-108925446D01*
X121249838Y-108923930D01*
X121264351Y-108920631D01*
X121478637Y-108849203D01*
X121505488Y-108837215D01*
X121509559Y-108833683D01*
X121514539Y-108831621D01*
X121537269Y-108812966D01*
X121680126Y-108670108D01*
X121689564Y-108658606D01*
X121692559Y-108656010D01*
X121695399Y-108651496D01*
X121698781Y-108647377D01*
X121700296Y-108643717D01*
X121708224Y-108631124D01*
X121779653Y-108488268D01*
X121780472Y-108486125D01*
X121781117Y-108485256D01*
X121785501Y-108472984D01*
X121790162Y-108460804D01*
X121790238Y-108459723D01*
X121791010Y-108457565D01*
X121862438Y-108171851D01*
X121863187Y-108166779D01*
X121864035Y-108164735D01*
X121865120Y-108153712D01*
X121866740Y-108142762D01*
X121866414Y-108140574D01*
X121866917Y-108135471D01*
X121866917Y-107921185D01*
X121866414Y-107916081D01*
X121866740Y-107913894D01*
X121865120Y-107902943D01*
X121864035Y-107891921D01*
X121863187Y-107889876D01*
X121862438Y-107884805D01*
X121791010Y-107599091D01*
X121790238Y-107596932D01*
X121790162Y-107595852D01*
X121785501Y-107583671D01*
X121781117Y-107571400D01*
X121780472Y-107570530D01*
X121779653Y-107568388D01*
X121708224Y-107425532D01*
X121700297Y-107412940D01*
X121698781Y-107409278D01*
X121695397Y-107405155D01*
X121692559Y-107400646D01*
X121689566Y-107398050D01*
X121680126Y-107386548D01*
X121537269Y-107243691D01*
X121514538Y-107225036D01*
X121509558Y-107222973D01*
X121505488Y-107219443D01*
X121478637Y-107207454D01*
X121264351Y-107136026D01*
X121249843Y-107132727D01*
X121246181Y-107131210D01*
X121240872Y-107130687D01*
X121235678Y-107129506D01*
X121231728Y-107129786D01*
X121216917Y-107128328D01*
X120859774Y-107128328D01*
X120830510Y-107131210D01*
X120776438Y-107153608D01*
X120735054Y-107194992D01*
X120712656Y-107249064D01*
X120709774Y-107278328D01*
X120295488Y-107278328D01*
X120292606Y-107249064D01*
X120270208Y-107194992D01*
X120228824Y-107153608D01*
X120174752Y-107131210D01*
X120116224Y-107131210D01*
X120062152Y-107153608D01*
X120020768Y-107194992D01*
X119998370Y-107249064D01*
X119995488Y-107278328D01*
X119995488Y-108213492D01*
X119418581Y-107203907D01*
X119414203Y-107197739D01*
X119413065Y-107194992D01*
X119410265Y-107192192D01*
X119401560Y-107179929D01*
X119385788Y-107167715D01*
X119371681Y-107153608D01*
X119362845Y-107149948D01*
X119355286Y-107144094D01*
X119336041Y-107138845D01*
X119317609Y-107131210D01*
X119308047Y-107131210D01*
X119298822Y-107128694D01*
X119279031Y-107131210D01*
X119259081Y-107131210D01*
X119250247Y-107134869D01*
X119240762Y-107136075D01*
X119223439Y-107145973D01*
X119205009Y-107153608D01*
X119198248Y-107160368D01*
X119189946Y-107165113D01*
X119177732Y-107180884D01*
X119163625Y-107194992D01*
X119159965Y-107203827D01*
X119154111Y-107211387D01*
X119148862Y-107230631D01*
X119141227Y-107249064D01*
X119139753Y-107264030D01*
X119138711Y-107267851D01*
X119139086Y-107270802D01*
X119138345Y-107278328D01*
X118705326Y-107278328D01*
X118704374Y-107275473D01*
X118666028Y-107231258D01*
X118641142Y-107215593D01*
X118498285Y-107144164D01*
X118470822Y-107133655D01*
X118465447Y-107133273D01*
X118460467Y-107131210D01*
X118431203Y-107128328D01*
X118216917Y-107128328D01*
X118202105Y-107129786D01*
X118198156Y-107129506D01*
X118192961Y-107130687D01*
X118187653Y-107131210D01*
X118183991Y-107132726D01*
X118169482Y-107136026D01*
X117955197Y-107207455D01*
X117928346Y-107219443D01*
X117924276Y-107222972D01*
X117919295Y-107225036D01*
X117896565Y-107243691D01*
X117753708Y-107386548D01*
X117744268Y-107398049D01*
X117741275Y-107400646D01*
X117738434Y-107405159D01*
X117735053Y-107409279D01*
X117733537Y-107412938D01*
X117725610Y-107425532D01*
X117654181Y-107568389D01*
X117653361Y-107570529D01*
X117652717Y-107571400D01*
X117648330Y-107583677D01*
X117643672Y-107595852D01*
X117643595Y-107596932D01*
X117642824Y-107599091D01*
X117571396Y-107884805D01*
X117570646Y-107889876D01*
X117569799Y-107891921D01*
X117568713Y-107902943D01*
X117567094Y-107913894D01*
X117567419Y-107916081D01*
X117566917Y-107921185D01*
X117400250Y-107921185D01*
X117400250Y-106961661D01*
X122033584Y-106961661D01*
X122033584Y-109094995D01*
G37*
G36*
X154125438Y-104950352D02*
G01*
X150066415Y-104950352D01*
X150066415Y-103633685D01*
X150233082Y-103633685D01*
X150233082Y-103847971D01*
X150233584Y-103853074D01*
X150233259Y-103855262D01*
X150234878Y-103866212D01*
X150235964Y-103877235D01*
X150236811Y-103879279D01*
X150237561Y-103884351D01*
X150308989Y-104170065D01*
X150309760Y-104172223D01*
X150309837Y-104173304D01*
X150314495Y-104185478D01*
X150318882Y-104197756D01*
X150319526Y-104198626D01*
X150320346Y-104200767D01*
X150391775Y-104343624D01*
X150399702Y-104356217D01*
X150401218Y-104359877D01*
X150404599Y-104363996D01*
X150407440Y-104368510D01*
X150410433Y-104371106D01*
X150419873Y-104382608D01*
X150562730Y-104525466D01*
X150585460Y-104544121D01*
X150590439Y-104546183D01*
X150594511Y-104549715D01*
X150621362Y-104561703D01*
X150835648Y-104633131D01*
X150850160Y-104636430D01*
X150853818Y-104637946D01*
X150859120Y-104638468D01*
X150864322Y-104639651D01*
X150868276Y-104639369D01*
X150883082Y-104640828D01*
X151025939Y-104640828D01*
X151040744Y-104639369D01*
X151044699Y-104639651D01*
X151049900Y-104638468D01*
X151055203Y-104637946D01*
X151058860Y-104636430D01*
X151073373Y-104633131D01*
X151159504Y-104604421D01*
X151450250Y-104604421D01*
X151450250Y-104662949D01*
X151472648Y-104717021D01*
X151514032Y-104758405D01*
X151568104Y-104780803D01*
X151597368Y-104783685D01*
X152740225Y-104783685D01*
X152769489Y-104780803D01*
X152823561Y-104758405D01*
X152864945Y-104717021D01*
X152887343Y-104662949D01*
X152887343Y-104604421D01*
X152864945Y-104550349D01*
X152823561Y-104508965D01*
X152769489Y-104486567D01*
X152740225Y-104483685D01*
X151597368Y-104483685D01*
X151568104Y-104486567D01*
X151514032Y-104508965D01*
X151472648Y-104550349D01*
X151450250Y-104604421D01*
X151159504Y-104604421D01*
X151287659Y-104561703D01*
X151314510Y-104549715D01*
X151318583Y-104546181D01*
X151323561Y-104544120D01*
X151346292Y-104525465D01*
X151417720Y-104454036D01*
X151436374Y-104431306D01*
X151456545Y-104382608D01*
X151458771Y-104377235D01*
X151461653Y-104347971D01*
X151461653Y-103847971D01*
X151458771Y-103818707D01*
X151436373Y-103764635D01*
X151394989Y-103723251D01*
X151340917Y-103700853D01*
X151311653Y-103697971D01*
X151025939Y-103697971D01*
X150996675Y-103700853D01*
X150942603Y-103723251D01*
X150901219Y-103764635D01*
X150878821Y-103818707D01*
X150878821Y-103877235D01*
X150901219Y-103931307D01*
X150942603Y-103972691D01*
X150996675Y-103995089D01*
X151025939Y-103997971D01*
X151161653Y-103997971D01*
X151161653Y-104285839D01*
X151159198Y-104288294D01*
X151001596Y-104340828D01*
X150907425Y-104340828D01*
X150749822Y-104288294D01*
X150649217Y-104187688D01*
X150596036Y-104081328D01*
X150533082Y-103829507D01*
X150533082Y-103652148D01*
X150596036Y-103400327D01*
X150649217Y-103293967D01*
X150749823Y-103193361D01*
X150907425Y-103140828D01*
X151061958Y-103140828D01*
X151173142Y-103196421D01*
X151200606Y-103206930D01*
X151258986Y-103211079D01*
X151314508Y-103192572D01*
X151358724Y-103154225D01*
X151384898Y-103101876D01*
X151389047Y-103043496D01*
X151371491Y-102990828D01*
X152947367Y-102990828D01*
X152947367Y-104490828D01*
X152950249Y-104520092D01*
X152972647Y-104574164D01*
X153014031Y-104615548D01*
X153068103Y-104637946D01*
X153097367Y-104640828D01*
X153811653Y-104640828D01*
X153840917Y-104637946D01*
X153894989Y-104615548D01*
X153936373Y-104574164D01*
X153958771Y-104520092D01*
X153958771Y-104461564D01*
X153936373Y-104407492D01*
X153894989Y-104366108D01*
X153840917Y-104343710D01*
X153811653Y-104340828D01*
X153247367Y-104340828D01*
X153247367Y-103855114D01*
X153597367Y-103855114D01*
X153626631Y-103852232D01*
X153680703Y-103829834D01*
X153722087Y-103788450D01*
X153744485Y-103734378D01*
X153744485Y-103675850D01*
X153722087Y-103621778D01*
X153680703Y-103580394D01*
X153626631Y-103557996D01*
X153597367Y-103555114D01*
X153247367Y-103555114D01*
X153247367Y-103140828D01*
X153811653Y-103140828D01*
X153840917Y-103137946D01*
X153894989Y-103115548D01*
X153936373Y-103074164D01*
X153958771Y-103020092D01*
X153958771Y-102961564D01*
X153936373Y-102907492D01*
X153894989Y-102866108D01*
X153840917Y-102843710D01*
X153811653Y-102840828D01*
X153097367Y-102840828D01*
X153068103Y-102843710D01*
X153014031Y-102866108D01*
X152972647Y-102907492D01*
X152950249Y-102961564D01*
X152947367Y-102990828D01*
X151371491Y-102990828D01*
X151370539Y-102987973D01*
X151332193Y-102943758D01*
X151307307Y-102928093D01*
X151164450Y-102856664D01*
X151136987Y-102846155D01*
X151131612Y-102845773D01*
X151126632Y-102843710D01*
X151097368Y-102840828D01*
X150883082Y-102840828D01*
X150868270Y-102842286D01*
X150864321Y-102842006D01*
X150859126Y-102843187D01*
X150853818Y-102843710D01*
X150850156Y-102845226D01*
X150835647Y-102848526D01*
X150621362Y-102919955D01*
X150594511Y-102931943D01*
X150590441Y-102935472D01*
X150585460Y-102937536D01*
X150562730Y-102956191D01*
X150419873Y-103099048D01*
X150410433Y-103110549D01*
X150407440Y-103113146D01*
X150404599Y-103117659D01*
X150401218Y-103121779D01*
X150399702Y-103125438D01*
X150391775Y-103138032D01*
X150320346Y-103280889D01*
X150319526Y-103283029D01*
X150318882Y-103283900D01*
X150314495Y-103296177D01*
X150309837Y-103308352D01*
X150309760Y-103309432D01*
X150308989Y-103311591D01*
X150237561Y-103597305D01*
X150236811Y-103602376D01*
X150235964Y-103604421D01*
X150234878Y-103615443D01*
X150233259Y-103626394D01*
X150233584Y-103628581D01*
X150233082Y-103633685D01*
X150066415Y-103633685D01*
X150066415Y-102674161D01*
X154125438Y-102674161D01*
X154125438Y-104950352D01*
G37*
G36*
X151079943Y-99785535D02*
G01*
X151116947Y-99822539D01*
X151161653Y-99911951D01*
X151161653Y-100055418D01*
X151116946Y-100144831D01*
X151079941Y-100181836D01*
X150990529Y-100226542D01*
X150604510Y-100226542D01*
X150604510Y-99740828D01*
X150990529Y-99740828D01*
X151079943Y-99785535D01*
G37*
G36*
X154125438Y-101550352D02*
G01*
X150137843Y-101550352D01*
X150137843Y-99590828D01*
X150304510Y-99590828D01*
X150304510Y-101090828D01*
X150307392Y-101120092D01*
X150329790Y-101174164D01*
X150371174Y-101215548D01*
X150425246Y-101237946D01*
X150483774Y-101237946D01*
X150537846Y-101215548D01*
X150579230Y-101174164D01*
X150601628Y-101120092D01*
X150604510Y-101090828D01*
X150604510Y-100526542D01*
X150733555Y-100526542D01*
X151188768Y-101176847D01*
X151207911Y-101199169D01*
X151257268Y-101230622D01*
X151314904Y-101240793D01*
X151372046Y-101228134D01*
X151405921Y-101204421D01*
X151450250Y-101204421D01*
X151450250Y-101262949D01*
X151472648Y-101317021D01*
X151514032Y-101358405D01*
X151568104Y-101380803D01*
X151597368Y-101383685D01*
X152740225Y-101383685D01*
X152769489Y-101380803D01*
X152823561Y-101358405D01*
X152864945Y-101317021D01*
X152887343Y-101262949D01*
X152887343Y-101204421D01*
X152864945Y-101150349D01*
X152823561Y-101108965D01*
X152769489Y-101086567D01*
X152740225Y-101083685D01*
X151597368Y-101083685D01*
X151568104Y-101086567D01*
X151514032Y-101108965D01*
X151472648Y-101150349D01*
X151450250Y-101204421D01*
X151405921Y-101204421D01*
X151419994Y-101194570D01*
X151451447Y-101145213D01*
X151461618Y-101087577D01*
X151448959Y-101030435D01*
X151434538Y-101004809D01*
X151089586Y-100512020D01*
X151093021Y-100510706D01*
X151235878Y-100439278D01*
X151248471Y-100431350D01*
X151252131Y-100429835D01*
X151256250Y-100426453D01*
X151260764Y-100423613D01*
X151263360Y-100420619D01*
X151274862Y-100411180D01*
X151346291Y-100339751D01*
X151355732Y-100328246D01*
X151358724Y-100325652D01*
X151361562Y-100321142D01*
X151364946Y-100317020D01*
X151366462Y-100313358D01*
X151374389Y-100300767D01*
X151445817Y-100157909D01*
X151456327Y-100130446D01*
X151456708Y-100125070D01*
X151458771Y-100120092D01*
X151461653Y-100090828D01*
X151461653Y-99876542D01*
X151458771Y-99847278D01*
X151456708Y-99842299D01*
X151456327Y-99836924D01*
X151445817Y-99809461D01*
X151374389Y-99666603D01*
X151366460Y-99654008D01*
X151364945Y-99650349D01*
X151361563Y-99646228D01*
X151358724Y-99641718D01*
X151355732Y-99639123D01*
X151346290Y-99627618D01*
X151309499Y-99590828D01*
X152947367Y-99590828D01*
X152947367Y-101090828D01*
X152950249Y-101120092D01*
X152972647Y-101174164D01*
X153014031Y-101215548D01*
X153068103Y-101237946D01*
X153097367Y-101240828D01*
X153811653Y-101240828D01*
X153840917Y-101237946D01*
X153894989Y-101215548D01*
X153936373Y-101174164D01*
X153958771Y-101120092D01*
X153958771Y-101061564D01*
X153936373Y-101007492D01*
X153894989Y-100966108D01*
X153840917Y-100943710D01*
X153811653Y-100940828D01*
X153247367Y-100940828D01*
X153247367Y-100455114D01*
X153597367Y-100455114D01*
X153626631Y-100452232D01*
X153680703Y-100429834D01*
X153722087Y-100388450D01*
X153744485Y-100334378D01*
X153744485Y-100275850D01*
X153722087Y-100221778D01*
X153680703Y-100180394D01*
X153626631Y-100157996D01*
X153597367Y-100155114D01*
X153247367Y-100155114D01*
X153247367Y-99740828D01*
X153811653Y-99740828D01*
X153840917Y-99737946D01*
X153894989Y-99715548D01*
X153936373Y-99674164D01*
X153958771Y-99620092D01*
X153958771Y-99561564D01*
X153936373Y-99507492D01*
X153894989Y-99466108D01*
X153840917Y-99443710D01*
X153811653Y-99440828D01*
X153097367Y-99440828D01*
X153068103Y-99443710D01*
X153014031Y-99466108D01*
X152972647Y-99507492D01*
X152950249Y-99561564D01*
X152947367Y-99590828D01*
X151309499Y-99590828D01*
X151274861Y-99556190D01*
X151263361Y-99546752D01*
X151260764Y-99543758D01*
X151256247Y-99540915D01*
X151252130Y-99537536D01*
X151248473Y-99536021D01*
X151235878Y-99528093D01*
X151093021Y-99456664D01*
X151065558Y-99446155D01*
X151060183Y-99445773D01*
X151055203Y-99443710D01*
X151025939Y-99440828D01*
X150454510Y-99440828D01*
X150425246Y-99443710D01*
X150371174Y-99466108D01*
X150329790Y-99507492D01*
X150307392Y-99561564D01*
X150304510Y-99590828D01*
X150137843Y-99590828D01*
X150137843Y-99274161D01*
X154125438Y-99274161D01*
X154125438Y-101550352D01*
G37*
G36*
X118056635Y-92473035D02*
G01*
X118093639Y-92510039D01*
X118138345Y-92599451D01*
X118138345Y-92742918D01*
X118093638Y-92832331D01*
X118056633Y-92869336D01*
X117967221Y-92914042D01*
X117581202Y-92914042D01*
X117581202Y-92428328D01*
X117967221Y-92428328D01*
X118056635Y-92473035D01*
G37*
G36*
X121962155Y-94237852D02*
G01*
X117114535Y-94237852D01*
X117114535Y-92278328D01*
X117281202Y-92278328D01*
X117281202Y-93778328D01*
X117284084Y-93807592D01*
X117306482Y-93861664D01*
X117347866Y-93903048D01*
X117401938Y-93925446D01*
X117460466Y-93925446D01*
X117514538Y-93903048D01*
X117555922Y-93861664D01*
X117578320Y-93807592D01*
X117581202Y-93778328D01*
X117581202Y-93214042D01*
X117710247Y-93214042D01*
X118165460Y-93864347D01*
X118184603Y-93886669D01*
X118233960Y-93918122D01*
X118291596Y-93928293D01*
X118348738Y-93915634D01*
X118382613Y-93891921D01*
X118426942Y-93891921D01*
X118426942Y-93950449D01*
X118449340Y-94004521D01*
X118490724Y-94045905D01*
X118544796Y-94068303D01*
X118574060Y-94071185D01*
X119716917Y-94071185D01*
X119746181Y-94068303D01*
X119800253Y-94045905D01*
X119841637Y-94004521D01*
X119864035Y-93950449D01*
X119864035Y-93891921D01*
X119841637Y-93837849D01*
X119800253Y-93796465D01*
X119746181Y-93774067D01*
X119716917Y-93771185D01*
X118574060Y-93771185D01*
X118544796Y-93774067D01*
X118490724Y-93796465D01*
X118449340Y-93837849D01*
X118426942Y-93891921D01*
X118382613Y-93891921D01*
X118396686Y-93882070D01*
X118428139Y-93832713D01*
X118438310Y-93775077D01*
X118425651Y-93717935D01*
X118411230Y-93692309D01*
X118066278Y-93199520D01*
X118069713Y-93198206D01*
X118212570Y-93126778D01*
X118225163Y-93118850D01*
X118228823Y-93117335D01*
X118232942Y-93113953D01*
X118237456Y-93111113D01*
X118240052Y-93108119D01*
X118251554Y-93098680D01*
X118322983Y-93027251D01*
X118332424Y-93015746D01*
X118335416Y-93013152D01*
X118338254Y-93008642D01*
X118341638Y-93004520D01*
X118343154Y-93000858D01*
X118351081Y-92988267D01*
X118422509Y-92845409D01*
X118433019Y-92817946D01*
X118433400Y-92812570D01*
X118435463Y-92807592D01*
X118438345Y-92778328D01*
X118438345Y-92564042D01*
X118435463Y-92534778D01*
X118433400Y-92529799D01*
X118433019Y-92524424D01*
X118422509Y-92496961D01*
X118351081Y-92354103D01*
X118343152Y-92341508D01*
X118341637Y-92337849D01*
X118338255Y-92333728D01*
X118335416Y-92329218D01*
X118332424Y-92326623D01*
X118322982Y-92315118D01*
X118286191Y-92278328D01*
X119924059Y-92278328D01*
X119924059Y-93778328D01*
X119926941Y-93807592D01*
X119949339Y-93861664D01*
X119990723Y-93903048D01*
X120044795Y-93925446D01*
X120103323Y-93925446D01*
X120157395Y-93903048D01*
X120198779Y-93861664D01*
X120221177Y-93807592D01*
X120224059Y-93778328D01*
X120224059Y-92278328D01*
X120638345Y-92278328D01*
X120638345Y-93778328D01*
X120641227Y-93807592D01*
X120663625Y-93861664D01*
X120705009Y-93903048D01*
X120759081Y-93925446D01*
X120817609Y-93925446D01*
X120871681Y-93903048D01*
X120913065Y-93861664D01*
X120935463Y-93807592D01*
X120938345Y-93778328D01*
X120938345Y-92843161D01*
X121515252Y-93852749D01*
X121519629Y-93858916D01*
X121520768Y-93861664D01*
X121523567Y-93864463D01*
X121532273Y-93876727D01*
X121548046Y-93888942D01*
X121562152Y-93903048D01*
X121570985Y-93906706D01*
X121578547Y-93912563D01*
X121597795Y-93917812D01*
X121616224Y-93925446D01*
X121625786Y-93925446D01*
X121635011Y-93927962D01*
X121654802Y-93925446D01*
X121674752Y-93925446D01*
X121683585Y-93921786D01*
X121693071Y-93920581D01*
X121710393Y-93910682D01*
X121728824Y-93903048D01*
X121735584Y-93896287D01*
X121743887Y-93891543D01*
X121756100Y-93875771D01*
X121770208Y-93861664D01*
X121773867Y-93852828D01*
X121779722Y-93845269D01*
X121784970Y-93826024D01*
X121792606Y-93807592D01*
X121794079Y-93792627D01*
X121795122Y-93788806D01*
X121794746Y-93785854D01*
X121795488Y-93778328D01*
X121795488Y-92278328D01*
X121792606Y-92249064D01*
X121770208Y-92194992D01*
X121728824Y-92153608D01*
X121674752Y-92131210D01*
X121616224Y-92131210D01*
X121562152Y-92153608D01*
X121520768Y-92194992D01*
X121498370Y-92249064D01*
X121495488Y-92278328D01*
X121495488Y-93213492D01*
X120918581Y-92203907D01*
X120914203Y-92197739D01*
X120913065Y-92194992D01*
X120910265Y-92192192D01*
X120901560Y-92179929D01*
X120885788Y-92167715D01*
X120871681Y-92153608D01*
X120862845Y-92149948D01*
X120855286Y-92144094D01*
X120836041Y-92138845D01*
X120817609Y-92131210D01*
X120808047Y-92131210D01*
X120798822Y-92128694D01*
X120779031Y-92131210D01*
X120759081Y-92131210D01*
X120750247Y-92134869D01*
X120740762Y-92136075D01*
X120723439Y-92145973D01*
X120705009Y-92153608D01*
X120698248Y-92160368D01*
X120689946Y-92165113D01*
X120677732Y-92180884D01*
X120663625Y-92194992D01*
X120659965Y-92203827D01*
X120654111Y-92211387D01*
X120648862Y-92230631D01*
X120641227Y-92249064D01*
X120639753Y-92264030D01*
X120638711Y-92267851D01*
X120639086Y-92270802D01*
X120638345Y-92278328D01*
X120224059Y-92278328D01*
X120221177Y-92249064D01*
X120198779Y-92194992D01*
X120157395Y-92153608D01*
X120103323Y-92131210D01*
X120044795Y-92131210D01*
X119990723Y-92153608D01*
X119949339Y-92194992D01*
X119926941Y-92249064D01*
X119924059Y-92278328D01*
X118286191Y-92278328D01*
X118251553Y-92243690D01*
X118240053Y-92234252D01*
X118237456Y-92231258D01*
X118232939Y-92228415D01*
X118228822Y-92225036D01*
X118225165Y-92223521D01*
X118212570Y-92215593D01*
X118069713Y-92144164D01*
X118042250Y-92133655D01*
X118036875Y-92133273D01*
X118031895Y-92131210D01*
X118002631Y-92128328D01*
X117431202Y-92128328D01*
X117401938Y-92131210D01*
X117347866Y-92153608D01*
X117306482Y-92194992D01*
X117284084Y-92249064D01*
X117281202Y-92278328D01*
X117114535Y-92278328D01*
X117114535Y-91961661D01*
X121962155Y-91961661D01*
X121962155Y-94237852D01*
G37*
D12*
X142271431Y-96296009D02*
X142414288Y-96343628D01*
X142414288Y-96343628D02*
X142461907Y-96391247D01*
X142461907Y-96391247D02*
X142509526Y-96486485D01*
X142509526Y-96486485D02*
X142509526Y-96629342D01*
X142509526Y-96629342D02*
X142461907Y-96724580D01*
X142461907Y-96724580D02*
X142414288Y-96772200D01*
X142414288Y-96772200D02*
X142319050Y-96819819D01*
X142319050Y-96819819D02*
X141938098Y-96819819D01*
X141938098Y-96819819D02*
X141938098Y-95819819D01*
X141938098Y-95819819D02*
X142271431Y-95819819D01*
X142271431Y-95819819D02*
X142366669Y-95867438D01*
X142366669Y-95867438D02*
X142414288Y-95915057D01*
X142414288Y-95915057D02*
X142461907Y-96010295D01*
X142461907Y-96010295D02*
X142461907Y-96105533D01*
X142461907Y-96105533D02*
X142414288Y-96200771D01*
X142414288Y-96200771D02*
X142366669Y-96248390D01*
X142366669Y-96248390D02*
X142271431Y-96296009D01*
X142271431Y-96296009D02*
X141938098Y-96296009D01*
X135723810Y-96198390D02*
X136676191Y-96198390D01*
X135914286Y-96484104D02*
X136485714Y-96484104D01*
X136200000Y-95769819D02*
X136200000Y-96198390D01*
X136295238Y-96769819D02*
X136104762Y-96769819D01*
D11*
G36*
X121962155Y-100237852D02*
G01*
X117043107Y-100237852D01*
X117043107Y-98921185D01*
X117209774Y-98921185D01*
X117209774Y-99135471D01*
X117210276Y-99140574D01*
X117209951Y-99142762D01*
X117211570Y-99153712D01*
X117212656Y-99164735D01*
X117213503Y-99166779D01*
X117214253Y-99171851D01*
X117285681Y-99457565D01*
X117286452Y-99459723D01*
X117286529Y-99460804D01*
X117291187Y-99472978D01*
X117295574Y-99485256D01*
X117296218Y-99486126D01*
X117297038Y-99488267D01*
X117368467Y-99631124D01*
X117376394Y-99643717D01*
X117377910Y-99647377D01*
X117381291Y-99651496D01*
X117384132Y-99656010D01*
X117387125Y-99658606D01*
X117396565Y-99670108D01*
X117539422Y-99812966D01*
X117562152Y-99831621D01*
X117567131Y-99833683D01*
X117571203Y-99837215D01*
X117598054Y-99849203D01*
X117812340Y-99920631D01*
X117826852Y-99923930D01*
X117830510Y-99925446D01*
X117835812Y-99925968D01*
X117841014Y-99927151D01*
X117844968Y-99926869D01*
X117859774Y-99928328D01*
X118002631Y-99928328D01*
X118017436Y-99926869D01*
X118021391Y-99927151D01*
X118026592Y-99925968D01*
X118031895Y-99925446D01*
X118035552Y-99923930D01*
X118050065Y-99920631D01*
X118136196Y-99891921D01*
X118426942Y-99891921D01*
X118426942Y-99950449D01*
X118449340Y-100004521D01*
X118490724Y-100045905D01*
X118544796Y-100068303D01*
X118574060Y-100071185D01*
X119716917Y-100071185D01*
X119746181Y-100068303D01*
X119800253Y-100045905D01*
X119841637Y-100004521D01*
X119864035Y-99950449D01*
X119864035Y-99891921D01*
X119841637Y-99837849D01*
X119800253Y-99796465D01*
X119746181Y-99774067D01*
X119716917Y-99771185D01*
X118574060Y-99771185D01*
X118544796Y-99774067D01*
X118490724Y-99796465D01*
X118449340Y-99837849D01*
X118426942Y-99891921D01*
X118136196Y-99891921D01*
X118264351Y-99849203D01*
X118291202Y-99837215D01*
X118295275Y-99833681D01*
X118300253Y-99831620D01*
X118322984Y-99812965D01*
X118394412Y-99741536D01*
X118413066Y-99718806D01*
X118433237Y-99670108D01*
X118435463Y-99664735D01*
X118438345Y-99635471D01*
X118438345Y-99135471D01*
X118435463Y-99106207D01*
X118413065Y-99052135D01*
X118371681Y-99010751D01*
X118317609Y-98988353D01*
X118288345Y-98985471D01*
X118002631Y-98985471D01*
X117973367Y-98988353D01*
X117919295Y-99010751D01*
X117877911Y-99052135D01*
X117855513Y-99106207D01*
X117855513Y-99164735D01*
X117877911Y-99218807D01*
X117919295Y-99260191D01*
X117973367Y-99282589D01*
X118002631Y-99285471D01*
X118138345Y-99285471D01*
X118138345Y-99573339D01*
X118135890Y-99575794D01*
X117978288Y-99628328D01*
X117884117Y-99628328D01*
X117726514Y-99575794D01*
X117625909Y-99475188D01*
X117572728Y-99368828D01*
X117509774Y-99117007D01*
X117509774Y-98939648D01*
X117572728Y-98687827D01*
X117625909Y-98581467D01*
X117726515Y-98480861D01*
X117884117Y-98428328D01*
X118038650Y-98428328D01*
X118149834Y-98483921D01*
X118177298Y-98494430D01*
X118235678Y-98498579D01*
X118291200Y-98480072D01*
X118335416Y-98441725D01*
X118361590Y-98389376D01*
X118365739Y-98330996D01*
X118348183Y-98278328D01*
X119924059Y-98278328D01*
X119924059Y-99778328D01*
X119926941Y-99807592D01*
X119949339Y-99861664D01*
X119990723Y-99903048D01*
X120044795Y-99925446D01*
X120103323Y-99925446D01*
X120157395Y-99903048D01*
X120198779Y-99861664D01*
X120221177Y-99807592D01*
X120224059Y-99778328D01*
X120224059Y-98278328D01*
X120638345Y-98278328D01*
X120638345Y-99778328D01*
X120641227Y-99807592D01*
X120663625Y-99861664D01*
X120705009Y-99903048D01*
X120759081Y-99925446D01*
X120817609Y-99925446D01*
X120871681Y-99903048D01*
X120913065Y-99861664D01*
X120935463Y-99807592D01*
X120938345Y-99778328D01*
X120938345Y-98843161D01*
X121515252Y-99852749D01*
X121519629Y-99858916D01*
X121520768Y-99861664D01*
X121523567Y-99864463D01*
X121532273Y-99876727D01*
X121548046Y-99888942D01*
X121562152Y-99903048D01*
X121570985Y-99906706D01*
X121578547Y-99912563D01*
X121597795Y-99917812D01*
X121616224Y-99925446D01*
X121625786Y-99925446D01*
X121635011Y-99927962D01*
X121654802Y-99925446D01*
X121674752Y-99925446D01*
X121683585Y-99921786D01*
X121693071Y-99920581D01*
X121710393Y-99910682D01*
X121728824Y-99903048D01*
X121735584Y-99896287D01*
X121743887Y-99891543D01*
X121756100Y-99875771D01*
X121770208Y-99861664D01*
X121773867Y-99852828D01*
X121779722Y-99845269D01*
X121784970Y-99826024D01*
X121792606Y-99807592D01*
X121794079Y-99792627D01*
X121795122Y-99788806D01*
X121794746Y-99785854D01*
X121795488Y-99778328D01*
X121795488Y-98278328D01*
X121792606Y-98249064D01*
X121770208Y-98194992D01*
X121728824Y-98153608D01*
X121674752Y-98131210D01*
X121616224Y-98131210D01*
X121562152Y-98153608D01*
X121520768Y-98194992D01*
X121498370Y-98249064D01*
X121495488Y-98278328D01*
X121495488Y-99213492D01*
X120918581Y-98203907D01*
X120914203Y-98197739D01*
X120913065Y-98194992D01*
X120910265Y-98192192D01*
X120901560Y-98179929D01*
X120885788Y-98167715D01*
X120871681Y-98153608D01*
X120862845Y-98149948D01*
X120855286Y-98144094D01*
X120836041Y-98138845D01*
X120817609Y-98131210D01*
X120808047Y-98131210D01*
X120798822Y-98128694D01*
X120779031Y-98131210D01*
X120759081Y-98131210D01*
X120750247Y-98134869D01*
X120740762Y-98136075D01*
X120723439Y-98145973D01*
X120705009Y-98153608D01*
X120698248Y-98160368D01*
X120689946Y-98165113D01*
X120677732Y-98180884D01*
X120663625Y-98194992D01*
X120659965Y-98203827D01*
X120654111Y-98211387D01*
X120648862Y-98230631D01*
X120641227Y-98249064D01*
X120639753Y-98264030D01*
X120638711Y-98267851D01*
X120639086Y-98270802D01*
X120638345Y-98278328D01*
X120224059Y-98278328D01*
X120221177Y-98249064D01*
X120198779Y-98194992D01*
X120157395Y-98153608D01*
X120103323Y-98131210D01*
X120044795Y-98131210D01*
X119990723Y-98153608D01*
X119949339Y-98194992D01*
X119926941Y-98249064D01*
X119924059Y-98278328D01*
X118348183Y-98278328D01*
X118347231Y-98275473D01*
X118308885Y-98231258D01*
X118283999Y-98215593D01*
X118141142Y-98144164D01*
X118113679Y-98133655D01*
X118108304Y-98133273D01*
X118103324Y-98131210D01*
X118074060Y-98128328D01*
X117859774Y-98128328D01*
X117844962Y-98129786D01*
X117841013Y-98129506D01*
X117835818Y-98130687D01*
X117830510Y-98131210D01*
X117826848Y-98132726D01*
X117812339Y-98136026D01*
X117598054Y-98207455D01*
X117571203Y-98219443D01*
X117567133Y-98222972D01*
X117562152Y-98225036D01*
X117539422Y-98243691D01*
X117396565Y-98386548D01*
X117387125Y-98398049D01*
X117384132Y-98400646D01*
X117381291Y-98405159D01*
X117377910Y-98409279D01*
X117376394Y-98412938D01*
X117368467Y-98425532D01*
X117297038Y-98568389D01*
X117296218Y-98570529D01*
X117295574Y-98571400D01*
X117291187Y-98583677D01*
X117286529Y-98595852D01*
X117286452Y-98596932D01*
X117285681Y-98599091D01*
X117214253Y-98884805D01*
X117213503Y-98889876D01*
X117212656Y-98891921D01*
X117211570Y-98902943D01*
X117209951Y-98913894D01*
X117210276Y-98916081D01*
X117209774Y-98921185D01*
X117043107Y-98921185D01*
X117043107Y-97961661D01*
X121962155Y-97961661D01*
X121962155Y-100237852D01*
G37*
G36*
X151087769Y-107307647D02*
G01*
X151116946Y-107336824D01*
X151161653Y-107426237D01*
X151161653Y-107569704D01*
X151116946Y-107659117D01*
X151079941Y-107696122D01*
X150990529Y-107740828D01*
X150604510Y-107740828D01*
X150604510Y-107255114D01*
X150930167Y-107255114D01*
X151087769Y-107307647D01*
G37*
G36*
X151008514Y-106585535D02*
G01*
X151045518Y-106622539D01*
X151090225Y-106711952D01*
X151090225Y-106783989D01*
X151045518Y-106873402D01*
X151008514Y-106910407D01*
X150919100Y-106955114D01*
X150604510Y-106955114D01*
X150604510Y-106540828D01*
X150919100Y-106540828D01*
X151008514Y-106585535D01*
G37*
G36*
X154125438Y-108350352D02*
G01*
X150137843Y-108350352D01*
X150137843Y-106390828D01*
X150304510Y-106390828D01*
X150304510Y-107890828D01*
X150307392Y-107920092D01*
X150329790Y-107974164D01*
X150371174Y-108015548D01*
X150425246Y-108037946D01*
X150454510Y-108040828D01*
X151025939Y-108040828D01*
X151055203Y-108037946D01*
X151060181Y-108035883D01*
X151065557Y-108035502D01*
X151093021Y-108024992D01*
X151134163Y-108004421D01*
X151450250Y-108004421D01*
X151450250Y-108062949D01*
X151472648Y-108117021D01*
X151514032Y-108158405D01*
X151568104Y-108180803D01*
X151597368Y-108183685D01*
X152740225Y-108183685D01*
X152769489Y-108180803D01*
X152823561Y-108158405D01*
X152864945Y-108117021D01*
X152887343Y-108062949D01*
X152887343Y-108004421D01*
X152864945Y-107950349D01*
X152823561Y-107908965D01*
X152769489Y-107886567D01*
X152740225Y-107883685D01*
X151597368Y-107883685D01*
X151568104Y-107886567D01*
X151514032Y-107908965D01*
X151472648Y-107950349D01*
X151450250Y-108004421D01*
X151134163Y-108004421D01*
X151235878Y-107953564D01*
X151248471Y-107945636D01*
X151252131Y-107944121D01*
X151256250Y-107940739D01*
X151260764Y-107937899D01*
X151263360Y-107934905D01*
X151274862Y-107925466D01*
X151346291Y-107854037D01*
X151355732Y-107842532D01*
X151358724Y-107839938D01*
X151361562Y-107835428D01*
X151364946Y-107831306D01*
X151366462Y-107827644D01*
X151374389Y-107815053D01*
X151445817Y-107672195D01*
X151456327Y-107644732D01*
X151456708Y-107639356D01*
X151458771Y-107634378D01*
X151461653Y-107605114D01*
X151461653Y-107390828D01*
X151458771Y-107361564D01*
X151456708Y-107356585D01*
X151456327Y-107351210D01*
X151445817Y-107323747D01*
X151374389Y-107180889D01*
X151366462Y-107168297D01*
X151364946Y-107164636D01*
X151361562Y-107160513D01*
X151358724Y-107156004D01*
X151355732Y-107153409D01*
X151346291Y-107141905D01*
X151274862Y-107070476D01*
X151273679Y-107069505D01*
X151274862Y-107068323D01*
X151284302Y-107056820D01*
X151287295Y-107054225D01*
X151290133Y-107049715D01*
X151293517Y-107045593D01*
X151295033Y-107041930D01*
X151302960Y-107029339D01*
X151374389Y-106886483D01*
X151384898Y-106859019D01*
X151385279Y-106853644D01*
X151387343Y-106848664D01*
X151390225Y-106819400D01*
X151390225Y-106676542D01*
X151387343Y-106647278D01*
X151385279Y-106642297D01*
X151384898Y-106636923D01*
X151374389Y-106609459D01*
X151302960Y-106466603D01*
X151295033Y-106454011D01*
X151293517Y-106450349D01*
X151290133Y-106446226D01*
X151287295Y-106441717D01*
X151284302Y-106439121D01*
X151274862Y-106427619D01*
X151238071Y-106390828D01*
X152947367Y-106390828D01*
X152947367Y-107890828D01*
X152950249Y-107920092D01*
X152972647Y-107974164D01*
X153014031Y-108015548D01*
X153068103Y-108037946D01*
X153097367Y-108040828D01*
X153811653Y-108040828D01*
X153840917Y-108037946D01*
X153894989Y-108015548D01*
X153936373Y-107974164D01*
X153958771Y-107920092D01*
X153958771Y-107861564D01*
X153936373Y-107807492D01*
X153894989Y-107766108D01*
X153840917Y-107743710D01*
X153811653Y-107740828D01*
X153247367Y-107740828D01*
X153247367Y-107255114D01*
X153597367Y-107255114D01*
X153626631Y-107252232D01*
X153680703Y-107229834D01*
X153722087Y-107188450D01*
X153744485Y-107134378D01*
X153744485Y-107075850D01*
X153722087Y-107021778D01*
X153680703Y-106980394D01*
X153626631Y-106957996D01*
X153597367Y-106955114D01*
X153247367Y-106955114D01*
X153247367Y-106540828D01*
X153811653Y-106540828D01*
X153840917Y-106537946D01*
X153894989Y-106515548D01*
X153936373Y-106474164D01*
X153958771Y-106420092D01*
X153958771Y-106361564D01*
X153936373Y-106307492D01*
X153894989Y-106266108D01*
X153840917Y-106243710D01*
X153811653Y-106240828D01*
X153097367Y-106240828D01*
X153068103Y-106243710D01*
X153014031Y-106266108D01*
X152972647Y-106307492D01*
X152950249Y-106361564D01*
X152947367Y-106390828D01*
X151238071Y-106390828D01*
X151203434Y-106356191D01*
X151191932Y-106346751D01*
X151189336Y-106343758D01*
X151184822Y-106340917D01*
X151180703Y-106337536D01*
X151177043Y-106336020D01*
X151164450Y-106328093D01*
X151021592Y-106256664D01*
X150994129Y-106246154D01*
X150988751Y-106245771D01*
X150983774Y-106243710D01*
X150954510Y-106240828D01*
X150454510Y-106240828D01*
X150425246Y-106243710D01*
X150371174Y-106266108D01*
X150329790Y-106307492D01*
X150307392Y-106361564D01*
X150304510Y-106390828D01*
X150137843Y-106390828D01*
X150137843Y-106074161D01*
X154125438Y-106074161D01*
X154125438Y-108350352D01*
G37*
G36*
X154016340Y-96780861D02*
G01*
X154116947Y-96881468D01*
X154170126Y-96987827D01*
X154233082Y-97239648D01*
X154233082Y-97417007D01*
X154170126Y-97668828D01*
X154116947Y-97775188D01*
X154016341Y-97875794D01*
X153858739Y-97928328D01*
X153675939Y-97928328D01*
X153675939Y-96728328D01*
X153858742Y-96728328D01*
X154016340Y-96780861D01*
G37*
G36*
X154699749Y-98394995D02*
G01*
X150066415Y-98394995D01*
X150066415Y-97221185D01*
X150233082Y-97221185D01*
X150233082Y-97435471D01*
X150233584Y-97440574D01*
X150233259Y-97442762D01*
X150234878Y-97453712D01*
X150235964Y-97464735D01*
X150236811Y-97466779D01*
X150237561Y-97471851D01*
X150308989Y-97757565D01*
X150309760Y-97759723D01*
X150309837Y-97760804D01*
X150314495Y-97772978D01*
X150318882Y-97785256D01*
X150319526Y-97786126D01*
X150320346Y-97788267D01*
X150391775Y-97931124D01*
X150399702Y-97943717D01*
X150401218Y-97947377D01*
X150404599Y-97951496D01*
X150407440Y-97956010D01*
X150410433Y-97958606D01*
X150419873Y-97970108D01*
X150562730Y-98112966D01*
X150585460Y-98131621D01*
X150590439Y-98133683D01*
X150594511Y-98137215D01*
X150621362Y-98149203D01*
X150835648Y-98220631D01*
X150850160Y-98223930D01*
X150853818Y-98225446D01*
X150859120Y-98225968D01*
X150864322Y-98227151D01*
X150868276Y-98226869D01*
X150883082Y-98228328D01*
X151025939Y-98228328D01*
X151040744Y-98226869D01*
X151044699Y-98227151D01*
X151049900Y-98225968D01*
X151055203Y-98225446D01*
X151058860Y-98223930D01*
X151073373Y-98220631D01*
X151287659Y-98149203D01*
X151314510Y-98137215D01*
X151318583Y-98133681D01*
X151323561Y-98131620D01*
X151346292Y-98112965D01*
X151417720Y-98041536D01*
X151436374Y-98018806D01*
X151456545Y-97970108D01*
X151458771Y-97964735D01*
X151461653Y-97935471D01*
X151461653Y-97435471D01*
X151458771Y-97406207D01*
X151436373Y-97352135D01*
X151394989Y-97310751D01*
X151340917Y-97288353D01*
X151311653Y-97285471D01*
X151025939Y-97285471D01*
X150996675Y-97288353D01*
X150942603Y-97310751D01*
X150901219Y-97352135D01*
X150878821Y-97406207D01*
X150878821Y-97464735D01*
X150901219Y-97518807D01*
X150942603Y-97560191D01*
X150996675Y-97582589D01*
X151025939Y-97585471D01*
X151161653Y-97585471D01*
X151161653Y-97873339D01*
X151159198Y-97875794D01*
X151001596Y-97928328D01*
X150907425Y-97928328D01*
X150749822Y-97875794D01*
X150649217Y-97775188D01*
X150596036Y-97668828D01*
X150533082Y-97417007D01*
X150533082Y-97239648D01*
X150596036Y-96987827D01*
X150649217Y-96881467D01*
X150749823Y-96780861D01*
X150907425Y-96728328D01*
X151061958Y-96728328D01*
X151173142Y-96783921D01*
X151200606Y-96794430D01*
X151258986Y-96798579D01*
X151314508Y-96780072D01*
X151358724Y-96741725D01*
X151384898Y-96689376D01*
X151389047Y-96630996D01*
X151371491Y-96578328D01*
X151804510Y-96578328D01*
X151804510Y-98078328D01*
X151807392Y-98107592D01*
X151829790Y-98161664D01*
X151871174Y-98203048D01*
X151925246Y-98225446D01*
X151983774Y-98225446D01*
X152037846Y-98203048D01*
X152079230Y-98161664D01*
X152101628Y-98107592D01*
X152104510Y-98078328D01*
X152104510Y-97143161D01*
X152681417Y-98152749D01*
X152685794Y-98158916D01*
X152686933Y-98161664D01*
X152689732Y-98164463D01*
X152698438Y-98176727D01*
X152714211Y-98188942D01*
X152728317Y-98203048D01*
X152737150Y-98206706D01*
X152744712Y-98212563D01*
X152763960Y-98217812D01*
X152782389Y-98225446D01*
X152791951Y-98225446D01*
X152801176Y-98227962D01*
X152820967Y-98225446D01*
X152840917Y-98225446D01*
X152849750Y-98221786D01*
X152859236Y-98220581D01*
X152876558Y-98210682D01*
X152894989Y-98203048D01*
X152901749Y-98196287D01*
X152910052Y-98191543D01*
X152922265Y-98175771D01*
X152936373Y-98161664D01*
X152940032Y-98152828D01*
X152945887Y-98145269D01*
X152951135Y-98126024D01*
X152958771Y-98107592D01*
X152960244Y-98092627D01*
X152961287Y-98088806D01*
X152960911Y-98085854D01*
X152961653Y-98078328D01*
X152961653Y-96578328D01*
X153375939Y-96578328D01*
X153375939Y-98078328D01*
X153378821Y-98107592D01*
X153401219Y-98161664D01*
X153442603Y-98203048D01*
X153496675Y-98225446D01*
X153525939Y-98228328D01*
X153883082Y-98228328D01*
X153897887Y-98226869D01*
X153901842Y-98227151D01*
X153907043Y-98225968D01*
X153912346Y-98225446D01*
X153916003Y-98223930D01*
X153930516Y-98220631D01*
X154144802Y-98149203D01*
X154171653Y-98137215D01*
X154175724Y-98133683D01*
X154180704Y-98131621D01*
X154203434Y-98112966D01*
X154346291Y-97970108D01*
X154355729Y-97958606D01*
X154358724Y-97956010D01*
X154361564Y-97951496D01*
X154364946Y-97947377D01*
X154366461Y-97943717D01*
X154374389Y-97931124D01*
X154445818Y-97788268D01*
X154446637Y-97786125D01*
X154447282Y-97785256D01*
X154451666Y-97772984D01*
X154456327Y-97760804D01*
X154456403Y-97759723D01*
X154457175Y-97757565D01*
X154528603Y-97471851D01*
X154529352Y-97466779D01*
X154530200Y-97464735D01*
X154531285Y-97453712D01*
X154532905Y-97442762D01*
X154532579Y-97440574D01*
X154533082Y-97435471D01*
X154533082Y-97221185D01*
X154532579Y-97216081D01*
X154532905Y-97213894D01*
X154531285Y-97202943D01*
X154530200Y-97191921D01*
X154529352Y-97189876D01*
X154528603Y-97184805D01*
X154457175Y-96899091D01*
X154456403Y-96896932D01*
X154456327Y-96895852D01*
X154451666Y-96883671D01*
X154447282Y-96871400D01*
X154446637Y-96870530D01*
X154445818Y-96868388D01*
X154374389Y-96725532D01*
X154366462Y-96712940D01*
X154364946Y-96709278D01*
X154361562Y-96705155D01*
X154358724Y-96700646D01*
X154355731Y-96698050D01*
X154346291Y-96686548D01*
X154203434Y-96543691D01*
X154180703Y-96525036D01*
X154175723Y-96522973D01*
X154171653Y-96519443D01*
X154144802Y-96507454D01*
X153930516Y-96436026D01*
X153916008Y-96432727D01*
X153912346Y-96431210D01*
X153907037Y-96430687D01*
X153901843Y-96429506D01*
X153897893Y-96429786D01*
X153883082Y-96428328D01*
X153525939Y-96428328D01*
X153496675Y-96431210D01*
X153442603Y-96453608D01*
X153401219Y-96494992D01*
X153378821Y-96549064D01*
X153375939Y-96578328D01*
X152961653Y-96578328D01*
X152958771Y-96549064D01*
X152936373Y-96494992D01*
X152894989Y-96453608D01*
X152840917Y-96431210D01*
X152782389Y-96431210D01*
X152728317Y-96453608D01*
X152686933Y-96494992D01*
X152664535Y-96549064D01*
X152661653Y-96578328D01*
X152661653Y-97513492D01*
X152084746Y-96503907D01*
X152080368Y-96497739D01*
X152079230Y-96494992D01*
X152076430Y-96492192D01*
X152067725Y-96479929D01*
X152051953Y-96467715D01*
X152037846Y-96453608D01*
X152029010Y-96449948D01*
X152021451Y-96444094D01*
X152002206Y-96438845D01*
X151983774Y-96431210D01*
X151974212Y-96431210D01*
X151964987Y-96428694D01*
X151945196Y-96431210D01*
X151925246Y-96431210D01*
X151916412Y-96434869D01*
X151906927Y-96436075D01*
X151889604Y-96445973D01*
X151871174Y-96453608D01*
X151864413Y-96460368D01*
X151856111Y-96465113D01*
X151843897Y-96480884D01*
X151829790Y-96494992D01*
X151826130Y-96503827D01*
X151820276Y-96511387D01*
X151815027Y-96530631D01*
X151807392Y-96549064D01*
X151805918Y-96564030D01*
X151804876Y-96567851D01*
X151805251Y-96570802D01*
X151804510Y-96578328D01*
X151371491Y-96578328D01*
X151370539Y-96575473D01*
X151332193Y-96531258D01*
X151307307Y-96515593D01*
X151164450Y-96444164D01*
X151136987Y-96433655D01*
X151131612Y-96433273D01*
X151126632Y-96431210D01*
X151097368Y-96428328D01*
X150883082Y-96428328D01*
X150868270Y-96429786D01*
X150864321Y-96429506D01*
X150859126Y-96430687D01*
X150853818Y-96431210D01*
X150850156Y-96432726D01*
X150835647Y-96436026D01*
X150621362Y-96507455D01*
X150594511Y-96519443D01*
X150590441Y-96522972D01*
X150585460Y-96525036D01*
X150562730Y-96543691D01*
X150419873Y-96686548D01*
X150410433Y-96698049D01*
X150407440Y-96700646D01*
X150404599Y-96705159D01*
X150401218Y-96709279D01*
X150399702Y-96712938D01*
X150391775Y-96725532D01*
X150320346Y-96868389D01*
X150319526Y-96870529D01*
X150318882Y-96871400D01*
X150314495Y-96883677D01*
X150309837Y-96895852D01*
X150309760Y-96896932D01*
X150308989Y-96899091D01*
X150237561Y-97184805D01*
X150236811Y-97189876D01*
X150235964Y-97191921D01*
X150234878Y-97202943D01*
X150233259Y-97213894D01*
X150233584Y-97216081D01*
X150233082Y-97221185D01*
X150066415Y-97221185D01*
X150066415Y-96261661D01*
X154699749Y-96261661D01*
X154699749Y-98394995D01*
G37*
D12*
X138509526Y-96819819D02*
X138176193Y-96343628D01*
X137938098Y-96819819D02*
X137938098Y-95819819D01*
X137938098Y-95819819D02*
X138319050Y-95819819D01*
X138319050Y-95819819D02*
X138414288Y-95867438D01*
X138414288Y-95867438D02*
X138461907Y-95915057D01*
X138461907Y-95915057D02*
X138509526Y-96010295D01*
X138509526Y-96010295D02*
X138509526Y-96153152D01*
X138509526Y-96153152D02*
X138461907Y-96248390D01*
X138461907Y-96248390D02*
X138414288Y-96296009D01*
X138414288Y-96296009D02*
X138319050Y-96343628D01*
X138319050Y-96343628D02*
X137938098Y-96343628D01*
D11*
G36*
X135585214Y-106914613D02*
G01*
X133814786Y-106914613D01*
X133814786Y-106000136D01*
X133981453Y-106000136D01*
X133981453Y-106058664D01*
X134003851Y-106112736D01*
X134045235Y-106154120D01*
X134099307Y-106176518D01*
X134128571Y-106179400D01*
X134550000Y-106179400D01*
X134550000Y-106600828D01*
X134552882Y-106630092D01*
X134575280Y-106684164D01*
X134616664Y-106725548D01*
X134670736Y-106747946D01*
X134729264Y-106747946D01*
X134783336Y-106725548D01*
X134824720Y-106684164D01*
X134847118Y-106630092D01*
X134850000Y-106600828D01*
X134850000Y-106179400D01*
X135271429Y-106179400D01*
X135300693Y-106176518D01*
X135354765Y-106154120D01*
X135396149Y-106112736D01*
X135418547Y-106058664D01*
X135418547Y-106000136D01*
X135396149Y-105946064D01*
X135354765Y-105904680D01*
X135300693Y-105882282D01*
X135271429Y-105879400D01*
X134850000Y-105879400D01*
X134850000Y-105457971D01*
X134847118Y-105428707D01*
X134824720Y-105374635D01*
X134783336Y-105333251D01*
X134729264Y-105310853D01*
X134670736Y-105310853D01*
X134616664Y-105333251D01*
X134575280Y-105374635D01*
X134552882Y-105428707D01*
X134550000Y-105457971D01*
X134550000Y-105879400D01*
X134128571Y-105879400D01*
X134099307Y-105882282D01*
X134045235Y-105904680D01*
X134003851Y-105946064D01*
X133981453Y-106000136D01*
X133814786Y-106000136D01*
X133814786Y-105144186D01*
X135585214Y-105144186D01*
X135585214Y-106914613D01*
G37*
D12*
X140461907Y-95867438D02*
X140366669Y-95819819D01*
X140366669Y-95819819D02*
X140223812Y-95819819D01*
X140223812Y-95819819D02*
X140080955Y-95867438D01*
X140080955Y-95867438D02*
X139985717Y-95962676D01*
X139985717Y-95962676D02*
X139938098Y-96057914D01*
X139938098Y-96057914D02*
X139890479Y-96248390D01*
X139890479Y-96248390D02*
X139890479Y-96391247D01*
X139890479Y-96391247D02*
X139938098Y-96581723D01*
X139938098Y-96581723D02*
X139985717Y-96676961D01*
X139985717Y-96676961D02*
X140080955Y-96772200D01*
X140080955Y-96772200D02*
X140223812Y-96819819D01*
X140223812Y-96819819D02*
X140319050Y-96819819D01*
X140319050Y-96819819D02*
X140461907Y-96772200D01*
X140461907Y-96772200D02*
X140509526Y-96724580D01*
X140509526Y-96724580D02*
X140509526Y-96391247D01*
X140509526Y-96391247D02*
X140319050Y-96391247D01*
D11*
G36*
X121350175Y-101480861D02*
G01*
X121450782Y-101581468D01*
X121503961Y-101687827D01*
X121566917Y-101939648D01*
X121566917Y-102117007D01*
X121503961Y-102368828D01*
X121450782Y-102475188D01*
X121350176Y-102575794D01*
X121192574Y-102628328D01*
X121009774Y-102628328D01*
X121009774Y-101428328D01*
X121192577Y-101428328D01*
X121350175Y-101480861D01*
G37*
G36*
X122033584Y-103094995D02*
G01*
X117400250Y-103094995D01*
X117400250Y-101921185D01*
X117566917Y-101921185D01*
X117566917Y-102135471D01*
X117567419Y-102140574D01*
X117567094Y-102142762D01*
X117568713Y-102153712D01*
X117569799Y-102164735D01*
X117570646Y-102166779D01*
X117571396Y-102171851D01*
X117642824Y-102457565D01*
X117643595Y-102459723D01*
X117643672Y-102460804D01*
X117648330Y-102472978D01*
X117652717Y-102485256D01*
X117653361Y-102486126D01*
X117654181Y-102488267D01*
X117725610Y-102631124D01*
X117733537Y-102643717D01*
X117735053Y-102647377D01*
X117738434Y-102651496D01*
X117741275Y-102656010D01*
X117744268Y-102658606D01*
X117753708Y-102670108D01*
X117896565Y-102812966D01*
X117919295Y-102831621D01*
X117924274Y-102833683D01*
X117928346Y-102837215D01*
X117955197Y-102849203D01*
X118169483Y-102920631D01*
X118183995Y-102923930D01*
X118187653Y-102925446D01*
X118192955Y-102925968D01*
X118198157Y-102927151D01*
X118202111Y-102926869D01*
X118216917Y-102928328D01*
X118359774Y-102928328D01*
X118374579Y-102926869D01*
X118378534Y-102927151D01*
X118383735Y-102925968D01*
X118389038Y-102925446D01*
X118392695Y-102923930D01*
X118407208Y-102920631D01*
X118621494Y-102849203D01*
X118648345Y-102837215D01*
X118652418Y-102833681D01*
X118657396Y-102831620D01*
X118680127Y-102812965D01*
X118751555Y-102741536D01*
X118770209Y-102718806D01*
X118790380Y-102670108D01*
X118792606Y-102664735D01*
X118795488Y-102635471D01*
X118795488Y-102135471D01*
X118792606Y-102106207D01*
X118770208Y-102052135D01*
X118728824Y-102010751D01*
X118674752Y-101988353D01*
X118645488Y-101985471D01*
X118359774Y-101985471D01*
X118330510Y-101988353D01*
X118276438Y-102010751D01*
X118235054Y-102052135D01*
X118212656Y-102106207D01*
X118212656Y-102164735D01*
X118235054Y-102218807D01*
X118276438Y-102260191D01*
X118330510Y-102282589D01*
X118359774Y-102285471D01*
X118495488Y-102285471D01*
X118495488Y-102573339D01*
X118493033Y-102575794D01*
X118335431Y-102628328D01*
X118241260Y-102628328D01*
X118083657Y-102575794D01*
X117983052Y-102475188D01*
X117929871Y-102368828D01*
X117866917Y-102117007D01*
X117866917Y-101939648D01*
X117929871Y-101687827D01*
X117983052Y-101581467D01*
X118083658Y-101480861D01*
X118241260Y-101428328D01*
X118395793Y-101428328D01*
X118506977Y-101483921D01*
X118534441Y-101494430D01*
X118592821Y-101498579D01*
X118648343Y-101480072D01*
X118692559Y-101441725D01*
X118718733Y-101389376D01*
X118722882Y-101330996D01*
X118705326Y-101278328D01*
X119138345Y-101278328D01*
X119138345Y-102778328D01*
X119141227Y-102807592D01*
X119163625Y-102861664D01*
X119205009Y-102903048D01*
X119259081Y-102925446D01*
X119317609Y-102925446D01*
X119371681Y-102903048D01*
X119413065Y-102861664D01*
X119435463Y-102807592D01*
X119438345Y-102778328D01*
X119438345Y-101843161D01*
X120015252Y-102852749D01*
X120019629Y-102858916D01*
X120020768Y-102861664D01*
X120023567Y-102864463D01*
X120032273Y-102876727D01*
X120048046Y-102888942D01*
X120062152Y-102903048D01*
X120070985Y-102906706D01*
X120078547Y-102912563D01*
X120097795Y-102917812D01*
X120116224Y-102925446D01*
X120125786Y-102925446D01*
X120135011Y-102927962D01*
X120154802Y-102925446D01*
X120174752Y-102925446D01*
X120183585Y-102921786D01*
X120193071Y-102920581D01*
X120210393Y-102910682D01*
X120228824Y-102903048D01*
X120235584Y-102896287D01*
X120243887Y-102891543D01*
X120256100Y-102875771D01*
X120270208Y-102861664D01*
X120273867Y-102852828D01*
X120279722Y-102845269D01*
X120284970Y-102826024D01*
X120292606Y-102807592D01*
X120294079Y-102792627D01*
X120295122Y-102788806D01*
X120294746Y-102785854D01*
X120295488Y-102778328D01*
X120295488Y-101278328D01*
X120709774Y-101278328D01*
X120709774Y-102778328D01*
X120712656Y-102807592D01*
X120735054Y-102861664D01*
X120776438Y-102903048D01*
X120830510Y-102925446D01*
X120859774Y-102928328D01*
X121216917Y-102928328D01*
X121231722Y-102926869D01*
X121235677Y-102927151D01*
X121240878Y-102925968D01*
X121246181Y-102925446D01*
X121249838Y-102923930D01*
X121264351Y-102920631D01*
X121478637Y-102849203D01*
X121505488Y-102837215D01*
X121509559Y-102833683D01*
X121514539Y-102831621D01*
X121537269Y-102812966D01*
X121680126Y-102670108D01*
X121689564Y-102658606D01*
X121692559Y-102656010D01*
X121695399Y-102651496D01*
X121698781Y-102647377D01*
X121700296Y-102643717D01*
X121708224Y-102631124D01*
X121779653Y-102488268D01*
X121780472Y-102486125D01*
X121781117Y-102485256D01*
X121785501Y-102472984D01*
X121790162Y-102460804D01*
X121790238Y-102459723D01*
X121791010Y-102457565D01*
X121862438Y-102171851D01*
X121863187Y-102166779D01*
X121864035Y-102164735D01*
X121865120Y-102153712D01*
X121866740Y-102142762D01*
X121866414Y-102140574D01*
X121866917Y-102135471D01*
X121866917Y-101921185D01*
X121866414Y-101916081D01*
X121866740Y-101913894D01*
X121865120Y-101902943D01*
X121864035Y-101891921D01*
X121863187Y-101889876D01*
X121862438Y-101884805D01*
X121791010Y-101599091D01*
X121790238Y-101596932D01*
X121790162Y-101595852D01*
X121785501Y-101583671D01*
X121781117Y-101571400D01*
X121780472Y-101570530D01*
X121779653Y-101568388D01*
X121708224Y-101425532D01*
X121700297Y-101412940D01*
X121698781Y-101409278D01*
X121695397Y-101405155D01*
X121692559Y-101400646D01*
X121689566Y-101398050D01*
X121680126Y-101386548D01*
X121537269Y-101243691D01*
X121514538Y-101225036D01*
X121509558Y-101222973D01*
X121505488Y-101219443D01*
X121478637Y-101207454D01*
X121264351Y-101136026D01*
X121249843Y-101132727D01*
X121246181Y-101131210D01*
X121240872Y-101130687D01*
X121235678Y-101129506D01*
X121231728Y-101129786D01*
X121216917Y-101128328D01*
X120859774Y-101128328D01*
X120830510Y-101131210D01*
X120776438Y-101153608D01*
X120735054Y-101194992D01*
X120712656Y-101249064D01*
X120709774Y-101278328D01*
X120295488Y-101278328D01*
X120292606Y-101249064D01*
X120270208Y-101194992D01*
X120228824Y-101153608D01*
X120174752Y-101131210D01*
X120116224Y-101131210D01*
X120062152Y-101153608D01*
X120020768Y-101194992D01*
X119998370Y-101249064D01*
X119995488Y-101278328D01*
X119995488Y-102213492D01*
X119418581Y-101203907D01*
X119414203Y-101197739D01*
X119413065Y-101194992D01*
X119410265Y-101192192D01*
X119401560Y-101179929D01*
X119385788Y-101167715D01*
X119371681Y-101153608D01*
X119362845Y-101149948D01*
X119355286Y-101144094D01*
X119336041Y-101138845D01*
X119317609Y-101131210D01*
X119308047Y-101131210D01*
X119298822Y-101128694D01*
X119279031Y-101131210D01*
X119259081Y-101131210D01*
X119250247Y-101134869D01*
X119240762Y-101136075D01*
X119223439Y-101145973D01*
X119205009Y-101153608D01*
X119198248Y-101160368D01*
X119189946Y-101165113D01*
X119177732Y-101180884D01*
X119163625Y-101194992D01*
X119159965Y-101203827D01*
X119154111Y-101211387D01*
X119148862Y-101230631D01*
X119141227Y-101249064D01*
X119139753Y-101264030D01*
X119138711Y-101267851D01*
X119139086Y-101270802D01*
X119138345Y-101278328D01*
X118705326Y-101278328D01*
X118704374Y-101275473D01*
X118666028Y-101231258D01*
X118641142Y-101215593D01*
X118498285Y-101144164D01*
X118470822Y-101133655D01*
X118465447Y-101133273D01*
X118460467Y-101131210D01*
X118431203Y-101128328D01*
X118216917Y-101128328D01*
X118202105Y-101129786D01*
X118198156Y-101129506D01*
X118192961Y-101130687D01*
X118187653Y-101131210D01*
X118183991Y-101132726D01*
X118169482Y-101136026D01*
X117955197Y-101207455D01*
X117928346Y-101219443D01*
X117924276Y-101222972D01*
X117919295Y-101225036D01*
X117896565Y-101243691D01*
X117753708Y-101386548D01*
X117744268Y-101398049D01*
X117741275Y-101400646D01*
X117738434Y-101405159D01*
X117735053Y-101409279D01*
X117733537Y-101412938D01*
X117725610Y-101425532D01*
X117654181Y-101568389D01*
X117653361Y-101570529D01*
X117652717Y-101571400D01*
X117648330Y-101583677D01*
X117643672Y-101595852D01*
X117643595Y-101596932D01*
X117642824Y-101599091D01*
X117571396Y-101884805D01*
X117570646Y-101889876D01*
X117569799Y-101891921D01*
X117568713Y-101902943D01*
X117567094Y-101913894D01*
X117567419Y-101916081D01*
X117566917Y-101921185D01*
X117400250Y-101921185D01*
X117400250Y-100961661D01*
X122033584Y-100961661D01*
X122033584Y-103094995D01*
G37*
D12*
X133054819Y-98533333D02*
X133769104Y-98533333D01*
X133769104Y-98533333D02*
X133911961Y-98580952D01*
X133911961Y-98580952D02*
X134007200Y-98676190D01*
X134007200Y-98676190D02*
X134054819Y-98819047D01*
X134054819Y-98819047D02*
X134054819Y-98914285D01*
X134054819Y-98057142D02*
X133054819Y-98057142D01*
X133054819Y-98057142D02*
X133054819Y-97676190D01*
X133054819Y-97676190D02*
X133102438Y-97580952D01*
X133102438Y-97580952D02*
X133150057Y-97533333D01*
X133150057Y-97533333D02*
X133245295Y-97485714D01*
X133245295Y-97485714D02*
X133388152Y-97485714D01*
X133388152Y-97485714D02*
X133483390Y-97533333D01*
X133483390Y-97533333D02*
X133531009Y-97580952D01*
X133531009Y-97580952D02*
X133578628Y-97676190D01*
X133578628Y-97676190D02*
X133578628Y-98057142D01*
X133150057Y-97104761D02*
X133102438Y-97057142D01*
X133102438Y-97057142D02*
X133054819Y-96961904D01*
X133054819Y-96961904D02*
X133054819Y-96723809D01*
X133054819Y-96723809D02*
X133102438Y-96628571D01*
X133102438Y-96628571D02*
X133150057Y-96580952D01*
X133150057Y-96580952D02*
X133245295Y-96533333D01*
X133245295Y-96533333D02*
X133340533Y-96533333D01*
X133340533Y-96533333D02*
X133483390Y-96580952D01*
X133483390Y-96580952D02*
X134054819Y-97152380D01*
X134054819Y-97152380D02*
X134054819Y-96533333D01*
X129183333Y-109409580D02*
X129135714Y-109457200D01*
X129135714Y-109457200D02*
X128992857Y-109504819D01*
X128992857Y-109504819D02*
X128897619Y-109504819D01*
X128897619Y-109504819D02*
X128754762Y-109457200D01*
X128754762Y-109457200D02*
X128659524Y-109361961D01*
X128659524Y-109361961D02*
X128611905Y-109266723D01*
X128611905Y-109266723D02*
X128564286Y-109076247D01*
X128564286Y-109076247D02*
X128564286Y-108933390D01*
X128564286Y-108933390D02*
X128611905Y-108742914D01*
X128611905Y-108742914D02*
X128659524Y-108647676D01*
X128659524Y-108647676D02*
X128754762Y-108552438D01*
X128754762Y-108552438D02*
X128897619Y-108504819D01*
X128897619Y-108504819D02*
X128992857Y-108504819D01*
X128992857Y-108504819D02*
X129135714Y-108552438D01*
X129135714Y-108552438D02*
X129183333Y-108600057D01*
X130135714Y-109504819D02*
X129564286Y-109504819D01*
X129850000Y-109504819D02*
X129850000Y-108504819D01*
X129850000Y-108504819D02*
X129754762Y-108647676D01*
X129754762Y-108647676D02*
X129659524Y-108742914D01*
X129659524Y-108742914D02*
X129564286Y-108790533D01*
X144416666Y-96004819D02*
X144416666Y-96719104D01*
X144416666Y-96719104D02*
X144369047Y-96861961D01*
X144369047Y-96861961D02*
X144273809Y-96957200D01*
X144273809Y-96957200D02*
X144130952Y-97004819D01*
X144130952Y-97004819D02*
X144035714Y-97004819D01*
X145416666Y-97004819D02*
X144845238Y-97004819D01*
X145130952Y-97004819D02*
X145130952Y-96004819D01*
X145130952Y-96004819D02*
X145035714Y-96147676D01*
X145035714Y-96147676D02*
X144940476Y-96242914D01*
X144940476Y-96242914D02*
X144845238Y-96290533D01*
X129316667Y-92486104D02*
X129278571Y-92524200D01*
X129278571Y-92524200D02*
X129164286Y-92562295D01*
X129164286Y-92562295D02*
X129088095Y-92562295D01*
X129088095Y-92562295D02*
X128973809Y-92524200D01*
X128973809Y-92524200D02*
X128897619Y-92448009D01*
X128897619Y-92448009D02*
X128859524Y-92371819D01*
X128859524Y-92371819D02*
X128821428Y-92219438D01*
X128821428Y-92219438D02*
X128821428Y-92105152D01*
X128821428Y-92105152D02*
X128859524Y-91952771D01*
X128859524Y-91952771D02*
X128897619Y-91876580D01*
X128897619Y-91876580D02*
X128973809Y-91800390D01*
X128973809Y-91800390D02*
X129088095Y-91762295D01*
X129088095Y-91762295D02*
X129164286Y-91762295D01*
X129164286Y-91762295D02*
X129278571Y-91800390D01*
X129278571Y-91800390D02*
X129316667Y-91838485D01*
X130040476Y-91762295D02*
X129659524Y-91762295D01*
X129659524Y-91762295D02*
X129621428Y-92143247D01*
X129621428Y-92143247D02*
X129659524Y-92105152D01*
X129659524Y-92105152D02*
X129735714Y-92067057D01*
X129735714Y-92067057D02*
X129926190Y-92067057D01*
X129926190Y-92067057D02*
X130002381Y-92105152D01*
X130002381Y-92105152D02*
X130040476Y-92143247D01*
X130040476Y-92143247D02*
X130078571Y-92219438D01*
X130078571Y-92219438D02*
X130078571Y-92409914D01*
X130078571Y-92409914D02*
X130040476Y-92486104D01*
X130040476Y-92486104D02*
X130002381Y-92524200D01*
X130002381Y-92524200D02*
X129926190Y-92562295D01*
X129926190Y-92562295D02*
X129735714Y-92562295D01*
X129735714Y-92562295D02*
X129659524Y-92524200D01*
X129659524Y-92524200D02*
X129621428Y-92486104D01*
X125433333Y-107159580D02*
X125385714Y-107207200D01*
X125385714Y-107207200D02*
X125242857Y-107254819D01*
X125242857Y-107254819D02*
X125147619Y-107254819D01*
X125147619Y-107254819D02*
X125004762Y-107207200D01*
X125004762Y-107207200D02*
X124909524Y-107111961D01*
X124909524Y-107111961D02*
X124861905Y-107016723D01*
X124861905Y-107016723D02*
X124814286Y-106826247D01*
X124814286Y-106826247D02*
X124814286Y-106683390D01*
X124814286Y-106683390D02*
X124861905Y-106492914D01*
X124861905Y-106492914D02*
X124909524Y-106397676D01*
X124909524Y-106397676D02*
X125004762Y-106302438D01*
X125004762Y-106302438D02*
X125147619Y-106254819D01*
X125147619Y-106254819D02*
X125242857Y-106254819D01*
X125242857Y-106254819D02*
X125385714Y-106302438D01*
X125385714Y-106302438D02*
X125433333Y-106350057D01*
X125814286Y-106350057D02*
X125861905Y-106302438D01*
X125861905Y-106302438D02*
X125957143Y-106254819D01*
X125957143Y-106254819D02*
X126195238Y-106254819D01*
X126195238Y-106254819D02*
X126290476Y-106302438D01*
X126290476Y-106302438D02*
X126338095Y-106350057D01*
X126338095Y-106350057D02*
X126385714Y-106445295D01*
X126385714Y-106445295D02*
X126385714Y-106540533D01*
X126385714Y-106540533D02*
X126338095Y-106683390D01*
X126338095Y-106683390D02*
X125766667Y-107254819D01*
X125766667Y-107254819D02*
X126385714Y-107254819D01*
X134933333Y-102259580D02*
X134885714Y-102307200D01*
X134885714Y-102307200D02*
X134742857Y-102354819D01*
X134742857Y-102354819D02*
X134647619Y-102354819D01*
X134647619Y-102354819D02*
X134504762Y-102307200D01*
X134504762Y-102307200D02*
X134409524Y-102211961D01*
X134409524Y-102211961D02*
X134361905Y-102116723D01*
X134361905Y-102116723D02*
X134314286Y-101926247D01*
X134314286Y-101926247D02*
X134314286Y-101783390D01*
X134314286Y-101783390D02*
X134361905Y-101592914D01*
X134361905Y-101592914D02*
X134409524Y-101497676D01*
X134409524Y-101497676D02*
X134504762Y-101402438D01*
X134504762Y-101402438D02*
X134647619Y-101354819D01*
X134647619Y-101354819D02*
X134742857Y-101354819D01*
X134742857Y-101354819D02*
X134885714Y-101402438D01*
X134885714Y-101402438D02*
X134933333Y-101450057D01*
X135266667Y-101354819D02*
X135933333Y-101354819D01*
X135933333Y-101354819D02*
X135504762Y-102354819D01*
X126159580Y-97866666D02*
X126207200Y-97914285D01*
X126207200Y-97914285D02*
X126254819Y-98057142D01*
X126254819Y-98057142D02*
X126254819Y-98152380D01*
X126254819Y-98152380D02*
X126207200Y-98295237D01*
X126207200Y-98295237D02*
X126111961Y-98390475D01*
X126111961Y-98390475D02*
X126016723Y-98438094D01*
X126016723Y-98438094D02*
X125826247Y-98485713D01*
X125826247Y-98485713D02*
X125683390Y-98485713D01*
X125683390Y-98485713D02*
X125492914Y-98438094D01*
X125492914Y-98438094D02*
X125397676Y-98390475D01*
X125397676Y-98390475D02*
X125302438Y-98295237D01*
X125302438Y-98295237D02*
X125254819Y-98152380D01*
X125254819Y-98152380D02*
X125254819Y-98057142D01*
X125254819Y-98057142D02*
X125302438Y-97914285D01*
X125302438Y-97914285D02*
X125350057Y-97866666D01*
X125588152Y-97009523D02*
X126254819Y-97009523D01*
X125207200Y-97247618D02*
X125921485Y-97485713D01*
X125921485Y-97485713D02*
X125921485Y-96866666D01*
X131050000Y-108508557D02*
X131050000Y-109151414D01*
X131050000Y-109151414D02*
X131007143Y-109279985D01*
X131007143Y-109279985D02*
X130921429Y-109365700D01*
X130921429Y-109365700D02*
X130792857Y-109408557D01*
X130792857Y-109408557D02*
X130707143Y-109408557D01*
X131478571Y-109408557D02*
X131478571Y-108508557D01*
X131478571Y-108508557D02*
X131821428Y-108508557D01*
X131821428Y-108508557D02*
X131907143Y-108551414D01*
X131907143Y-108551414D02*
X131950000Y-108594271D01*
X131950000Y-108594271D02*
X131992857Y-108679985D01*
X131992857Y-108679985D02*
X131992857Y-108808557D01*
X131992857Y-108808557D02*
X131950000Y-108894271D01*
X131950000Y-108894271D02*
X131907143Y-108937128D01*
X131907143Y-108937128D02*
X131821428Y-108979985D01*
X131821428Y-108979985D02*
X131478571Y-108979985D01*
X132850000Y-109408557D02*
X132335714Y-109408557D01*
X132592857Y-109408557D02*
X132592857Y-108508557D01*
X132592857Y-108508557D02*
X132507143Y-108637128D01*
X132507143Y-108637128D02*
X132421428Y-108722842D01*
X132421428Y-108722842D02*
X132335714Y-108765700D01*
X126259580Y-94366666D02*
X126307200Y-94414285D01*
X126307200Y-94414285D02*
X126354819Y-94557142D01*
X126354819Y-94557142D02*
X126354819Y-94652380D01*
X126354819Y-94652380D02*
X126307200Y-94795237D01*
X126307200Y-94795237D02*
X126211961Y-94890475D01*
X126211961Y-94890475D02*
X126116723Y-94938094D01*
X126116723Y-94938094D02*
X125926247Y-94985713D01*
X125926247Y-94985713D02*
X125783390Y-94985713D01*
X125783390Y-94985713D02*
X125592914Y-94938094D01*
X125592914Y-94938094D02*
X125497676Y-94890475D01*
X125497676Y-94890475D02*
X125402438Y-94795237D01*
X125402438Y-94795237D02*
X125354819Y-94652380D01*
X125354819Y-94652380D02*
X125354819Y-94557142D01*
X125354819Y-94557142D02*
X125402438Y-94414285D01*
X125402438Y-94414285D02*
X125450057Y-94366666D01*
X125354819Y-93509523D02*
X125354819Y-93699999D01*
X125354819Y-93699999D02*
X125402438Y-93795237D01*
X125402438Y-93795237D02*
X125450057Y-93842856D01*
X125450057Y-93842856D02*
X125592914Y-93938094D01*
X125592914Y-93938094D02*
X125783390Y-93985713D01*
X125783390Y-93985713D02*
X126164342Y-93985713D01*
X126164342Y-93985713D02*
X126259580Y-93938094D01*
X126259580Y-93938094D02*
X126307200Y-93890475D01*
X126307200Y-93890475D02*
X126354819Y-93795237D01*
X126354819Y-93795237D02*
X126354819Y-93604761D01*
X126354819Y-93604761D02*
X126307200Y-93509523D01*
X126307200Y-93509523D02*
X126259580Y-93461904D01*
X126259580Y-93461904D02*
X126164342Y-93414285D01*
X126164342Y-93414285D02*
X125926247Y-93414285D01*
X125926247Y-93414285D02*
X125831009Y-93461904D01*
X125831009Y-93461904D02*
X125783390Y-93509523D01*
X125783390Y-93509523D02*
X125735771Y-93604761D01*
X125735771Y-93604761D02*
X125735771Y-93795237D01*
X125735771Y-93795237D02*
X125783390Y-93890475D01*
X125783390Y-93890475D02*
X125831009Y-93938094D01*
X125831009Y-93938094D02*
X125926247Y-93985713D01*
X133054819Y-95033333D02*
X133769104Y-95033333D01*
X133769104Y-95033333D02*
X133911961Y-95080952D01*
X133911961Y-95080952D02*
X134007200Y-95176190D01*
X134007200Y-95176190D02*
X134054819Y-95319047D01*
X134054819Y-95319047D02*
X134054819Y-95414285D01*
X134054819Y-94557142D02*
X133054819Y-94557142D01*
X133054819Y-94557142D02*
X133054819Y-94176190D01*
X133054819Y-94176190D02*
X133102438Y-94080952D01*
X133102438Y-94080952D02*
X133150057Y-94033333D01*
X133150057Y-94033333D02*
X133245295Y-93985714D01*
X133245295Y-93985714D02*
X133388152Y-93985714D01*
X133388152Y-93985714D02*
X133483390Y-94033333D01*
X133483390Y-94033333D02*
X133531009Y-94080952D01*
X133531009Y-94080952D02*
X133578628Y-94176190D01*
X133578628Y-94176190D02*
X133578628Y-94557142D01*
X133054819Y-93652380D02*
X133054819Y-93033333D01*
X133054819Y-93033333D02*
X133435771Y-93366666D01*
X133435771Y-93366666D02*
X133435771Y-93223809D01*
X133435771Y-93223809D02*
X133483390Y-93128571D01*
X133483390Y-93128571D02*
X133531009Y-93080952D01*
X133531009Y-93080952D02*
X133626247Y-93033333D01*
X133626247Y-93033333D02*
X133864342Y-93033333D01*
X133864342Y-93033333D02*
X133959580Y-93080952D01*
X133959580Y-93080952D02*
X134007200Y-93128571D01*
X134007200Y-93128571D02*
X134054819Y-93223809D01*
X134054819Y-93223809D02*
X134054819Y-93509523D01*
X134054819Y-93509523D02*
X134007200Y-93604761D01*
X134007200Y-93604761D02*
X133959580Y-93652380D01*
X133656848Y-99545951D02*
X133656848Y-100355474D01*
X133656848Y-100355474D02*
X133704467Y-100450712D01*
X133704467Y-100450712D02*
X133752086Y-100498332D01*
X133752086Y-100498332D02*
X133847324Y-100545951D01*
X133847324Y-100545951D02*
X134037800Y-100545951D01*
X134037800Y-100545951D02*
X134133038Y-100498332D01*
X134133038Y-100498332D02*
X134180657Y-100450712D01*
X134180657Y-100450712D02*
X134228276Y-100355474D01*
X134228276Y-100355474D02*
X134228276Y-99545951D01*
X135228276Y-100545951D02*
X134656848Y-100545951D01*
X134942562Y-100545951D02*
X134942562Y-99545951D01*
X134942562Y-99545951D02*
X134847324Y-99688808D01*
X134847324Y-99688808D02*
X134752086Y-99784046D01*
X134752086Y-99784046D02*
X134656848Y-99831665D01*
X125333333Y-96359580D02*
X125285714Y-96407200D01*
X125285714Y-96407200D02*
X125142857Y-96454819D01*
X125142857Y-96454819D02*
X125047619Y-96454819D01*
X125047619Y-96454819D02*
X124904762Y-96407200D01*
X124904762Y-96407200D02*
X124809524Y-96311961D01*
X124809524Y-96311961D02*
X124761905Y-96216723D01*
X124761905Y-96216723D02*
X124714286Y-96026247D01*
X124714286Y-96026247D02*
X124714286Y-95883390D01*
X124714286Y-95883390D02*
X124761905Y-95692914D01*
X124761905Y-95692914D02*
X124809524Y-95597676D01*
X124809524Y-95597676D02*
X124904762Y-95502438D01*
X124904762Y-95502438D02*
X125047619Y-95454819D01*
X125047619Y-95454819D02*
X125142857Y-95454819D01*
X125142857Y-95454819D02*
X125285714Y-95502438D01*
X125285714Y-95502438D02*
X125333333Y-95550057D01*
X125666667Y-95454819D02*
X126285714Y-95454819D01*
X126285714Y-95454819D02*
X125952381Y-95835771D01*
X125952381Y-95835771D02*
X126095238Y-95835771D01*
X126095238Y-95835771D02*
X126190476Y-95883390D01*
X126190476Y-95883390D02*
X126238095Y-95931009D01*
X126238095Y-95931009D02*
X126285714Y-96026247D01*
X126285714Y-96026247D02*
X126285714Y-96264342D01*
X126285714Y-96264342D02*
X126238095Y-96359580D01*
X126238095Y-96359580D02*
X126190476Y-96407200D01*
X126190476Y-96407200D02*
X126095238Y-96454819D01*
X126095238Y-96454819D02*
X125809524Y-96454819D01*
X125809524Y-96454819D02*
X125714286Y-96407200D01*
X125714286Y-96407200D02*
X125666667Y-96359580D01*
D13*
%TO.C,JP2*%
X130800000Y-98400000D02*
X130800000Y-97000000D01*
X131500000Y-96300000D02*
X132100000Y-96300000D01*
X132100000Y-99100000D02*
X131500000Y-99100000D01*
X132800000Y-97000000D02*
X132800000Y-98400000D01*
X130800000Y-97000000D02*
G75*
G02*
X131500000Y-96300000I699999J1D01*
G01*
X131500000Y-99100000D02*
G75*
G02*
X130800000Y-98400000I0J700000D01*
G01*
X132100000Y-96300000D02*
G75*
G02*
X132800000Y-97000000I1J-699999D01*
G01*
X132800000Y-98400000D02*
G75*
G02*
X132100000Y-99100000I-700000J0D01*
G01*
%TO.C,C1*%
X128765000Y-107061252D02*
X128765000Y-106538748D01*
X130235000Y-107061252D02*
X130235000Y-106538748D01*
%TO.C,C8*%
X145665000Y-104073752D02*
X145665000Y-103551248D01*
X147135000Y-104073752D02*
X147135000Y-103551248D01*
D14*
%TO.C,J1*%
X135400013Y-90400000D02*
X135400013Y-92382500D01*
X135400013Y-95400000D02*
X138232501Y-95400000D01*
X142167500Y-95400000D02*
X144999993Y-95400000D01*
X144999993Y-90400000D02*
X135400013Y-90400000D01*
X144999993Y-92382500D02*
X144999993Y-90400000D01*
D13*
%TO.C,R3*%
X141565000Y-106985436D02*
X141565000Y-107439564D01*
X143035000Y-106985436D02*
X143035000Y-107439564D01*
%TO.C,C9*%
X145665000Y-107473752D02*
X145665000Y-106951248D01*
X147135000Y-107473752D02*
X147135000Y-106951248D01*
%TO.C,TP9*%
X137500003Y-97000000D02*
X138900003Y-97000000D01*
X137500003Y-98400000D02*
X137500003Y-97000000D01*
X138900003Y-97000000D02*
X138900003Y-98400000D01*
X138900003Y-98400000D02*
X137500003Y-98400000D01*
%TO.C,C5*%
X128765000Y-93938748D02*
X128765000Y-94461252D01*
X130235000Y-93938748D02*
X130235000Y-94461252D01*
%TO.C,R9*%
X143665000Y-100185436D02*
X143665000Y-100639564D01*
X145135000Y-100185436D02*
X145135000Y-100639564D01*
%TO.C,TP7*%
X122000000Y-103900000D02*
X124400000Y-103900000D01*
X122000000Y-106300000D02*
X122000000Y-103900000D01*
X124400000Y-103900000D02*
X124400000Y-106300000D01*
X124400000Y-106300000D02*
X122000000Y-106300000D01*
%TO.C,C2*%
X126765000Y-107061252D02*
X126765000Y-106538748D01*
X128235000Y-107061252D02*
X128235000Y-106538748D01*
%TO.C,R5*%
X139465000Y-100185436D02*
X139465000Y-100639564D01*
X140935000Y-100185436D02*
X140935000Y-100639564D01*
%TO.C,TP1*%
X133500000Y-106900000D02*
X135900000Y-106900000D01*
X133500000Y-109300000D02*
X133500000Y-106900000D01*
X135900000Y-106900000D02*
X135900000Y-109300000D01*
X135900000Y-109300000D02*
X133500000Y-109300000D01*
%TO.C,TP10*%
X139500003Y-97000000D02*
X140900003Y-97000000D01*
X139500003Y-98400000D02*
X139500003Y-97000000D01*
X140900003Y-97000000D02*
X140900003Y-98400000D01*
X140900003Y-98400000D02*
X139500003Y-98400000D01*
%TO.C,TP2*%
X136500000Y-106900000D02*
X138900000Y-106900000D01*
X136500000Y-109300000D02*
X136500000Y-106900000D01*
X138900000Y-106900000D02*
X138900000Y-109300000D01*
X138900000Y-109300000D02*
X136500000Y-109300000D01*
%TO.C,C7*%
X135361252Y-102765000D02*
X134838748Y-102765000D01*
X135361252Y-104235000D02*
X134838748Y-104235000D01*
%TO.C,R1*%
X141565000Y-103585436D02*
X141565000Y-104039564D01*
X143035000Y-103585436D02*
X143035000Y-104039564D01*
%TO.C,C4*%
X126765000Y-97438748D02*
X126765000Y-97961252D01*
X128235000Y-97438748D02*
X128235000Y-97961252D01*
%TO.C,R4*%
X143665000Y-107439564D02*
X143665000Y-106985436D01*
X145135000Y-107439564D02*
X145135000Y-106985436D01*
%TO.C,R8*%
X141565000Y-100639564D02*
X141565000Y-100185436D01*
X143035000Y-100639564D02*
X143035000Y-100185436D01*
%TO.C,C10*%
X145665000Y-100151248D02*
X145665000Y-100673752D01*
X147135000Y-100151248D02*
X147135000Y-100673752D01*
%TO.C,TP11*%
X141500003Y-97000000D02*
X142900003Y-97000000D01*
X141500003Y-98400000D02*
X141500003Y-97000000D01*
X142900003Y-97000000D02*
X142900003Y-98400000D01*
X142900003Y-98400000D02*
X141500003Y-98400000D01*
%TO.C,TP16*%
X135500000Y-97000000D02*
X136900000Y-97000000D01*
X135500000Y-98400000D02*
X135500000Y-97000000D01*
X136900000Y-97000000D02*
X136900000Y-98400000D01*
X136900000Y-98400000D02*
X135500000Y-98400000D01*
%TO.C,TP6*%
X122000000Y-97900000D02*
X124400000Y-97900000D01*
X122000000Y-100300000D02*
X122000000Y-97900000D01*
X124400000Y-97900000D02*
X124400000Y-100300000D01*
X124400000Y-100300000D02*
X122000000Y-100300000D01*
%TO.C,JP1*%
X130800000Y-107500000D02*
X130800000Y-106100000D01*
X131500000Y-105400000D02*
X132100000Y-105400000D01*
X132100000Y-108200000D02*
X131500000Y-108200000D01*
X132800000Y-106100000D02*
X132800000Y-107500000D01*
X130800000Y-106100000D02*
G75*
G02*
X131500000Y-105400000I700000J0D01*
G01*
X131500000Y-108200000D02*
G75*
G02*
X130800000Y-107500000I-1J699999D01*
G01*
X132100000Y-105400000D02*
G75*
G02*
X132800000Y-106100000I0J-700000D01*
G01*
X132800000Y-107500000D02*
G75*
G02*
X132100000Y-108200000I-699999J-1D01*
G01*
%TO.C,R2*%
X143665000Y-104039564D02*
X143665000Y-103585436D01*
X145135000Y-104039564D02*
X145135000Y-103585436D01*
%TO.C,C6*%
X126765000Y-93938748D02*
X126765000Y-94461252D01*
X128235000Y-93938748D02*
X128235000Y-94461252D01*
%TO.C,TP8*%
X122000000Y-106900000D02*
X124400000Y-106900000D01*
X122000000Y-109300000D02*
X122000000Y-106900000D01*
X124400000Y-106900000D02*
X124400000Y-109300000D01*
X124400000Y-109300000D02*
X122000000Y-109300000D01*
%TO.C,TP14*%
X147700000Y-99212500D02*
X150100000Y-99212500D01*
X147700000Y-101612500D02*
X147700000Y-99212500D01*
X150100000Y-99212500D02*
X150100000Y-101612500D01*
X150100000Y-101612500D02*
X147700000Y-101612500D01*
%TO.C,TP15*%
X147700000Y-96200000D02*
X150100000Y-96200000D01*
X147700000Y-98600000D02*
X147700000Y-96200000D01*
X150100000Y-96200000D02*
X150100000Y-98600000D01*
X150100000Y-98600000D02*
X147700000Y-98600000D01*
%TO.C,TP12*%
X147700000Y-102612500D02*
X150100000Y-102612500D01*
X147700000Y-105012500D02*
X147700000Y-102612500D01*
X150100000Y-102612500D02*
X150100000Y-105012500D01*
X150100000Y-105012500D02*
X147700000Y-105012500D01*
%TO.C,JP3*%
X130800000Y-94900000D02*
X130800000Y-93500000D01*
X131500000Y-92800000D02*
X132100000Y-92800000D01*
X132100000Y-95600000D02*
X131500000Y-95600000D01*
X132800000Y-93500000D02*
X132800000Y-94900000D01*
X130800000Y-93500000D02*
G75*
G02*
X131500000Y-92800000I699999J1D01*
G01*
X131500000Y-95600000D02*
G75*
G02*
X130800000Y-94900000I0J700000D01*
G01*
X132100000Y-92800000D02*
G75*
G02*
X132800000Y-93500000I1J-699999D01*
G01*
X132800000Y-94900000D02*
G75*
G02*
X132100000Y-95600000I-700000J0D01*
G01*
%TO.C,R7*%
X139465000Y-107439564D02*
X139465000Y-106985436D01*
X140935000Y-107439564D02*
X140935000Y-106985436D01*
%TO.C,R6*%
X139465000Y-104039564D02*
X139465000Y-103585436D01*
X140935000Y-104039564D02*
X140935000Y-103585436D01*
%TO.C,U1*%
X129500000Y-99690000D02*
X127300000Y-99690000D01*
X129500000Y-99690000D02*
X131700000Y-99690000D01*
X129500000Y-104910000D02*
X127300000Y-104910000D01*
X129500000Y-104910000D02*
X131700000Y-104910000D01*
X126600000Y-99890000D02*
X126360000Y-99560000D01*
X126840000Y-99560000D01*
X126600000Y-99890000D01*
G36*
X126600000Y-99890000D02*
G01*
X126360000Y-99560000D01*
X126840000Y-99560000D01*
X126600000Y-99890000D01*
G37*
%TO.C,TP13*%
X147700000Y-106012500D02*
X150100000Y-106012500D01*
X147700000Y-108412500D02*
X147700000Y-106012500D01*
X150100000Y-106012500D02*
X150100000Y-108412500D01*
X150100000Y-108412500D02*
X147700000Y-108412500D01*
%TO.C,TP3*%
X122000000Y-100900000D02*
X124400000Y-100900000D01*
X122000000Y-103300000D02*
X122000000Y-100900000D01*
X124400000Y-100900000D02*
X124400000Y-103300000D01*
X124400000Y-103300000D02*
X122000000Y-103300000D01*
%TO.C,TP5*%
X122000000Y-91900000D02*
X124400000Y-91900000D01*
X122000000Y-94300000D02*
X122000000Y-91900000D01*
X124400000Y-91900000D02*
X124400000Y-94300000D01*
X124400000Y-94300000D02*
X122000000Y-94300000D01*
%TO.C,C3*%
X128765000Y-97438748D02*
X128765000Y-97961252D01*
X130235000Y-97438748D02*
X130235000Y-97961252D01*
%TO.C,TP4*%
X122000000Y-94900000D02*
X124400000Y-94900000D01*
X122000000Y-97300000D02*
X122000000Y-94900000D01*
X124400000Y-94900000D02*
X124400000Y-97300000D01*
X124400000Y-97300000D02*
X122000000Y-97300000D01*
%TD*%
M02*
