M48
; DRILL file {KiCad 9.0.7} date 2026-03-05T18:20:00-0700
; FORMAT={-:-/ absolute / metric / decimal}
; #@! TF.CreationDate,2026-03-05T18:20:00-07:00
; #@! TF.GenerationSoftware,Kicad,Pcbnew,9.0.7
; #@! TF.FileFunction,Plated,1,2,PTH
FMAT,2
METRIC
; #@! TA.AperFunction,Plated,PTH,ViaDrill
T1C0.300
%
G90
G05
T1
X132.675Y-107.425
X132.874Y-105.284
X132.876Y-102.844
X132.975Y-94.725
X134.145Y-105.315
X134.475Y-107.695
X134.535Y-102.765
X135.65Y-105.225
X135.65Y-106.325
X135.878Y-103.123
X135.975Y-97.362
X136.375Y-94.525
X136.375Y-107.225
X136.625Y-97.362
X136.66Y-104.365
X138.375Y-107.225
X139.925Y-96.362
X140.175Y-107.225
X140.775Y-94.525
X141.875Y-107.225
X143.675Y-105.625
X143.675Y-107.225
X145.375Y-98.925
X145.375Y-100.425
X145.475Y-107.225
X146.275Y-101.425
X146.575Y-94.725
X146.675Y-96.725
X146.875Y-98.825
X147.075Y-104.325
X147.175Y-103.125
X147.275Y-107.225
X147.925Y-105.335
X147.976Y-104.325
X147.976Y-103.123
X148.001Y-101.457
X148.475Y-99.025
X149.175Y-105.925
X149.175Y-107.225
X149.986Y-98.823
X150.375Y-94.725
X150.375Y-96.725
X150.975Y-107.225
X151.075Y-105.925
X152.145Y-103.645
X152.275Y-99.825
X152.575Y-107.225
X153.375Y-102.825
X153.375Y-104.625
X153.375Y-106.525
X153.975Y-98.625
X154.075Y-94.725
X154.075Y-96.725
X154.137Y-100.987
X155.875Y-91.825
X155.975Y-100.225
X156.275Y-94.725
X156.975Y-93.525
X157.875Y-100.225
X159.159Y-95.012
X159.375Y-96.925
X159.775Y-100.225
X160.275Y-98.525
X160.775Y-96.425
X160.875Y-93.625
X161.075Y-91.825
X161.675Y-98.925
X161.695Y-100.225
X161.975Y-96.425
X162.275Y-91.825
X163.075Y-99.125
X163.375Y-96.925
X163.6Y-95.136
X164.775Y-100.225
X166.175Y-100.125
X166.375Y-93.525
X167.175Y-98.625
X167.275Y-95.425
X167.475Y-91.825
X168.095Y-93.835
X168.675Y-91.825
X169.775Y-93.525
X170.45Y-95.925
X170.45Y-98.625
X172.575Y-96.325
X172.575Y-98.725
X172.775Y-93.625
X172.955Y-94.925
M30
